/* XPM */
static const char * checked_xpm[] = {
"16 16 201 2",
"  	c None",
". 	c #EE7A31",
"+ 	c #FF761B",
"@ 	c #FE7A1B",
"# 	c #FE7D1C",
"$ 	c #FE7E1B",
"% 	c #FE7E1C",
"& 	c #FE7D1A",
"* 	c #FE771C",
"= 	c #FE721C",
"- 	c #FE6E1B",
"; 	c #FE691B",
"> 	c #FE631B",
", 	c #FE5E1B",
"' 	c #FE581B",
") 	c #F05827",
"! 	c #F1751F",
"~ 	c #FF7B19",
"{ 	c #FF7F19",
"] 	c #FF821A",
"^ 	c #FF8419",
"/ 	c #FF8219",
"( 	c #FF7C19",
"_ 	c #FF771A",
": 	c #FF721A",
"< 	c #FF6D19",
"[ 	c #FF671A",
"} 	c #FF6119",
"| 	c #FF5B1A",
"1 	c #F55019",
"2 	c #F1791F",
"3 	c #FF8119",
"4 	c #FF8619",
"5 	c #FF891A",
"6 	c #FF8B1A",
"7 	c #FF8C19",
"8 	c #FF801A",
"9 	c #FF7C1A",
"0 	c #FF7619",
"a 	c #FF6B12",
"b 	c #FD7023",
"c 	c #FE6821",
"d 	c #FF5D1A",
"e 	c #F55318",
"f 	c #F17C1F",
"g 	c #FF8519",
"h 	c #FF8A19",
"i 	c #FF8E1B",
"j 	c #FF911A",
"k 	c #FF8B19",
"l 	c #FF861A",
"m 	c #FE781A",
"n 	c #FCC7A3",
"o 	c #FCFDFD",
"p 	c #F88046",
"q 	c #FF6019",
"r 	c #F55519",
"s 	c #F17E1F",
"t 	c #FF8819",
"u 	c #FF8E1A",
"v 	c #FF931A",
"w 	c #FF9819",
"x 	c #FF941A",
"y 	c #FE7B10",
"z 	c #FCD0AC",
"A 	c #FFFFFF",
"B 	c #F7CAB0",
"C 	c #FE661A",
"D 	c #F5561A",
"E 	c #F17F1F",
"F 	c #FF8F1A",
"G 	c #FF9719",
"H 	c #FF9C1A",
"I 	c #FF9C19",
"J 	c #FF901B",
"K 	c #FF8717",
"L 	c #FBC28C",
"M 	c #FBFAF9",
"N 	c #FA6A15",
"O 	c #FF621A",
"P 	c #F55719",
"Q 	c #FF881A",
"R 	c #FF9419",
"S 	c #FF9919",
"T 	c #FF8F19",
"U 	c #FD9736",
"V 	c #FEFAF6",
"W 	c #FDFDFC",
"X 	c #F89251",
"Y 	c #FF6D17",
"Z 	c #FF661A",
"` 	c #FF611A",
" .	c #F54D0D",
"..	c #FF851A",
"+.	c #FF8612",
"@.	c #FBDDBF",
"#.	c #F9D3B9",
"$.	c #FD7119",
"%.	c #FF6D1A",
"&.	c #FF6519",
"*.	c #FE550A",
"=.	c #F54302",
"-.	c #F17518",
";.	c #FF811B",
">.	c #FF861B",
",.	c #FF8816",
"'.	c #FB9229",
").	c #FD9227",
"!.	c #FF8716",
"~.	c #FBB36E",
"{.	c #F9F6F3",
"].	c #FC761B",
"^.	c #FE6F18",
"/.	c #FE610C",
"(.	c #FF5503",
"_.	c #FF4C01",
":.	c #F54203",
"<.	c #F1670A",
"[.	c #FF6E01",
"}.	c #FF7609",
"|.	c #FA943D",
"1.	c #FEFFFF",
"2.	c #FCEAD7",
"3.	c #FC8D2C",
"4.	c #FEF2E8",
"5.	c #FEFEFD",
"6.	c #F78D44",
"7.	c #FF6706",
"8.	c #FF5D00",
"9.	c #FF5700",
"0.	c #FF5002",
"a.	c #FF4A01",
"b.	c #F53F02",
"c.	c #F1620A",
"d.	c #FF6802",
"e.	c #FF6C01",
"f.	c #FE6A00",
"g.	c #FCF4ED",
"h.	c #FEFAF5",
"i.	c #F7CFB4",
"j.	c #FE6100",
"k.	c #FF5F01",
"l.	c #FF5901",
"m.	c #FF5301",
"n.	c #FF4601",
"o.	c #F53C02",
"p.	c #F15D0A",
"q.	c #FF6101",
"r.	c #FF6501",
"s.	c #FF6701",
"t.	c #FB8232",
"u.	c #FEFDFB",
"v.	c #FBF4F0",
"w.	c #F96309",
"x.	c #FF5E00",
"y.	c #FF5900",
"z.	c #FF5401",
"A.	c #FF4E02",
"B.	c #FF4801",
"C.	c #FF4201",
"D.	c #F53A02",
"E.	c #F15709",
"F.	c #FF5A01",
"G.	c #FF5D02",
"H.	c #F9A572",
"I.	c #FDFFFF",
"J.	c #F77E3B",
"K.	c #FF5B00",
"L.	c #FF5701",
"M.	c #FF4E01",
"N.	c #FF4901",
"O.	c #FF4301",
"P.	c #FF3E01",
"Q.	c #F43903",
"R.	c #F1510A",
"S.	c #FF5500",
"T.	c #FF5801",
"U.	c #FF5902",
"V.	c #FF5400",
"W.	c #FC5804",
"X.	c #FF5402",
"Y.	c #FE3B01",
"Z.	c #F24A09",
"`.	c #FF5102",
" +	c #FF5001",
".+	c #FF4F02",
"++	c #FF4202",
"@+	c #F53802",
"#+	c #EC6134",
"$+	c #F54F14",
"%+	c #F45215",
"&+	c #F55315",
"*+	c #F55415",
"=+	c #F55215",
"-+	c #F55015",
";+	c #F54E15",
">+	c #F54B15",
",+	c #F54815",
"'+	c #F54715",
")+	c #F54714",
"!+	c #EC5529",
". + @ # $ % & @ * = - ; > , ' ) ",
"! ~ { ] ^ ^ / { ( _ : < [ } | 1 ",
"2 3 4 5 6 7 5 4 8 9 0 a b c d e ",
"f g h i j j i k l { m n o p q r ",
"s t u v w w x u 5 y z A B C } D ",
"E 5 F G H I G J K L A M N [ O P ",
"E Q u R S S R T U V W X Y Z `  .",
"f ..6 F j j F +.@.A #.$.%.&.*.=.",
"-.;.>.,.'.).!.~.A {.].^./.(._.:.",
"<.[.}.|.1.2.3.4.5.6.7.8.9.0.a.b.",
"c.d.e.f.g.A h.A i.j.k.l.m._.n.o.",
"p.q.r.s.t.u.A v.w.x.y.z.A.B.C.D.",
"E.F.G.k.x.H.I.J.K.L.m.M.N.O.P.Q.",
"R.z.S.T.U.V.W.S.X.0._.B.O.P.Y.Q.",
"Z._.0.0.`.`. +.+_.a.n.++P.Y.Y.@+",
"#+$+%+&+*+*+*+=+-+;+>+,+'+'+)+!+"};
