/* XPM */
static const char * deleted_xpm[] = {
"16 16 135 2",
"  	c None",
". 	c #FF1D48",
"+ 	c #FF1329",
"@ 	c #FF1531",
"# 	c #F9192E",
"$ 	c #F71B2A",
"% 	c #F81A20",
"& 	c #F2243C",
"* 	c #FF132F",
"= 	c #FF192F",
"- 	c #FF1B30",
"; 	c #FF1B2B",
"> 	c #FF1B26",
", 	c #F31919",
"' 	c #FF1526",
") 	c #FF1728",
"! 	c #FF1B31",
"~ 	c #F21A1F",
"{ 	c #FF192A",
"] 	c #FF272C",
"^ 	c #FD7059",
"/ 	c #FE5E48",
"( 	c #FE2026",
"_ 	c #FF1324",
": 	c #FD5169",
"< 	c #FD5D77",
"[ 	c #FF1D38",
"} 	c #F21A24",
"| 	c #FF1924",
"1 	c #FE3526",
"2 	c #FCD096",
"3 	c #FDF2E3",
"4 	c #FC785A",
"5 	c #FF1722",
"6 	c #FF1122",
"7 	c #FC585C",
"8 	c #FEF0E4",
"9 	c #F7C3A9",
"0 	c #FF1934",
"a 	c #F31B25",
"b 	c #FF1B21",
"c 	c #FF2817",
"d 	c #FE7646",
"e 	c #FEEFD8",
"f 	c #FCE9D2",
"g 	c #FD3733",
"h 	c #FC2A38",
"i 	c #FFEDDB",
"j 	c #FAF3EC",
"k 	c #FF315D",
"l 	c #FF261B",
"m 	c #FF2B15",
"n 	c #FDA169",
"o 	c #FEFAF4",
"p 	c #FAC396",
"q 	c #FCDFC0",
"r 	c #FDFFFF",
"s 	c #F94F6B",
"t 	c #F21712",
"u 	c #FF1F19",
"v 	c #FE1414",
"w 	c #FCCB96",
"x 	c #FFFFFF",
"y 	c #F69284",
"z 	c #FF110B",
"A 	c #F32503",
"B 	c #FF0F26",
"C 	c #FC7360",
"D 	c #FEF3E8",
"E 	c #FBFEFF",
"F 	c #FC3C5B",
"G 	c #FF111D",
"H 	c #FE1004",
"I 	c #FF1F01",
"J 	c #FC0006",
"K 	c #FF070D",
"L 	c #FF0D18",
"M 	c #FF0F1A",
"N 	c #FD3548",
"O 	c #FDE6D1",
"P 	c #FBEADD",
"Q 	c #FEF6F0",
"R 	c #FCDBC2",
"S 	c #FE0802",
"T 	c #FF1301",
"U 	c #FF1901",
"V 	c #F32A03",
"W 	c #F70505",
"X 	c #FF0101",
"Y 	c #FDC59F",
"Z 	c #FCF9F6",
"` 	c #FA486E",
" .	c #FB5973",
"..	c #FDFFFD",
"+.	c #FA8A8D",
"@.	c #FE1200",
"#.	c #FF1503",
"$.	c #FF1B03",
"%.	c #F60C06",
"&.	c #FF0701",
"*.	c #FD797C",
"=.	c #F9858B",
"-.	c #FE0C00",
";.	c #FB878F",
">.	c #FC6691",
",.	c #FF2501",
"'.	c #F51005",
").	c #FF0D01",
"!.	c #FF152B",
"~.	c #FA708A",
"{.	c #FB7790",
"].	c #FF172D",
"^.	c #FE0C0C",
"/.	c #FB7F9C",
"(.	c #FB739D",
"_.	c #FD1D05",
":.	c #FF2B01",
"<.	c #F33003",
"[.	c #F61706",
"}.	c #FF0F03",
"|.	c #FE0A0A",
"1.	c #FE0C06",
"2.	c #FE1A08",
"3.	c #FE1C0A",
"4.	c #FF2703",
"5.	c #FF3101",
"6.	c #F52105",
"7.	c #FE3102",
"8.	c #F01D12",
"9.	c #FA2502",
"0.	c #FA1F02",
"a.	c #FA2B02",
"b.	c #FA3102",
"c.	c #F93001",
"d.	c #ED290F",
". + + + + + + @ @ + + + # $ % & ",
"* = - - - - - = - - - = - ; > , ",
"* = - = ' ) = - - - ' ' = ! ; ~ ",
"* = { ] ^ / ( { - _ : < [ = ; } ",
"@ = | 1 2 3 4 5 6 7 8 9 0 = ; a ",
"@ ! b c d e f g h i j k = - ; a ",
"* = b l m n o p q r s = - - { t ",
"* ! ; b u v w x x y [ - - = z A ",
"B = = ! > ' C D E F = = G H I A ",
"J K L 6 M N O P Q R = S T U I V ",
"W X X X L Y Z `  ...+.@.#.$.I V ",
"%.&.X K *.r =.K -.;.x >.I I ,.V ",
"'.).).!.~.{.].).).^./.(._.,.:.<.",
"[.T T }.|.1.).T T U 2.3.4.:.5.<.",
"6.$.U U #.#.U $.U I ,.,.:.7.5.<.",
"8.9.0.0.0.0.0.0.9.9.a.a.b.b.c.d."};
