/* XPM */
static const char * download_xpm[] = {
"16 16 112 2",
"  	c None",
". 	c #2B802C",
"+ 	c #277528",
"@ 	c #297A2A",
"# 	c #2C832D",
"$ 	c #309031",
"% 	c #36A037",
"& 	c #3CB13E",
"* 	c #47BA48",
"= 	c #55C057",
"- 	c #64C865",
"; 	c #72D074",
"> 	c #85D686",
", 	c #206121",
"' 	c #29792A",
") 	c #2C862E",
"! 	c #2F8D30",
"~ 	c #329633",
"{ 	c #38A63A",
"] 	c #3EB440",
"^ 	c #4ABE4C",
"/ 	c #59C75A",
"( 	c #6FD070",
"_ 	c #89D88A",
": 	c #9ADE9C",
"< 	c #9DDE9E",
"[ 	c #2A802B",
"} 	c #A0DFA1",
"| 	c #99DD9A",
"1 	c #2D882F",
"2 	c #2E892F",
"3 	c #96DC97",
"4 	c #8FDA90",
"5 	c #329834",
"6 	c #339935",
"7 	c #57BA58",
"8 	c #38A83A",
"9 	c #37A838",
"0 	c #4CB74E",
"a 	c #88D889",
"b 	c #80D582",
"c 	c #3AAD3B",
"d 	c #3BAF3D",
"e 	c #54B055",
"f 	c #3AAB3C",
"g 	c #51C152",
"h 	c #78CC79",
"i 	c #74D176",
"j 	c #6FCF70",
"k 	c #45B947",
"l 	c #4ABB4B",
"m 	c #55C557",
"n 	c #91D392",
"o 	c #5FC960",
"p 	c #5CC95D",
"q 	c #56BE57",
"r 	c #5DC35E",
"s 	c #7CC87D",
"t 	c #67CA69",
"u 	c #84D685",
"v 	c #8ED98F",
"w 	c #7BD27C",
"x 	c #83D284",
"y 	c #4EC451",
"z 	c #4AC24C",
"A 	c #66C467",
"B 	c #6ECD6F",
"C 	c #91D791",
"D 	c #77D178",
"E 	c #68BC69",
"F 	c #41B943",
"G 	c #43B245",
"H 	c #73CC75",
"I 	c #81D582",
"J 	c #A2E2A3",
"K 	c #8DD78E",
"L 	c #7FD380",
"M 	c #8ECF8F",
"N 	c #A7E0A8",
"O 	c #3FA540",
"P 	c #439C44",
"Q 	c #7ED37F",
"R 	c #95DB95",
"S 	c #459A47",
"T 	c #418D43",
"U 	c #A0DFA0",
"V 	c #488F49",
"W 	c #3E803F",
"X 	c #9ADE9B",
"Y 	c #90DA91",
"Z 	c #7ED47F",
"` 	c #6CCE6E",
" .	c #59C85A",
"..	c #48C04A",
"+.	c #40B342",
"@.	c #38A03A",
"#.	c #389539",
"$.	c #3D8D3E",
"%.	c #408541",
"&.	c #256325",
"*.	c #448345",
"=.	c #7FD580",
"-.	c #6ECF6F",
";.	c #5DC95E",
">.	c #4DC44F",
",.	c #42BA43",
"'.	c #3EAB3F",
").	c #3F9B40",
"!.	c #449245",
"~.	c #438A44",
"{.	c #428343",
"].	c #488749",
"                                ",
"    . + @ # $ % & * = - ; >     ",
"  # , ' ) ! ~ { ] ^ / ( _ : <   ",
"  [ '                     } |   ",
"  1 2                     3 4   ",
"  5 6       7 8 9 0       a b   ",
"  c d       e f g h       i j   ",
"  k l         m b n       o p   ",
"  q r     s t u v w x     y z   ",
"  A B         C D E       F G   ",
"  H I     J K L i M N     O P   ",
"  Q R                     S T   ",
"  v U                     V W   ",
"  | X Y Z `  ...+.@.#.$.%.&.*.  ",
"    4 =.-.;.>.,.'.).!.~.{.].    ",
"                                "};
