/* XPM */
static char * E17_xpm[] = {
"35 48 2 1",
" 	c None",
".	c #000000",
"                                   ",
"                                   ",
"                 .                 ",
"             .   .   .             ",
"             .   .   .   .         ",
"         .   .. ... ..   .         ",
"     .   ..             ..   .     ",
"     ..  .     .....     .  ..     ",
"     ...    ............   ..      ",
" ..   .  .................  .   .. ",
"  ...   ...................   ...  ",
"   .   .........   .........   .   ",
"      ......          .......  .   ",
"     .....              ......     ",
"    .....     .......     .....    ",
"   .....    ...........    .....   ",
"   ....    .............   .....   ",
"  .....   ...............   .....  ",
"  ....   .................   ....  ",
"  ....  ...................  ....  ",
" ....   ...................  ..... ",
" ....     .................   .... ",
" ....      ................   .... ",
" ....        ..............   .... ",
" ....         .............   .... ",
" ....           ...........   .... ",
" ....            ..........   .... ",
" ....             .........  ..... ",
"  ....              ........ ....  ",
"  ....               ............  ",
"  .....                ..........  ",
"   ....                 ........   ",
"   .....                  ......   ",
"    .....                  ....    ",
"     .....                   .     ",
"   .  ......           ..          ",
"   .   ........    ......      .   ",
"  ...   ..................    ...  ",
"  .   .  .................  .    . ",
"      ..   .............   ...     ",
"     ..  .    ......     .  ..     ",
"     .   ..             ..   .     ",
"         .   .. ... ..   .         ",
"         .   .   .   .             ",
"             .   .   .             ",
"                 .                 ",
"                                   ",
"                                   "};
