/* XPM */
static const char * flcards_xpm[] = {
"48 48 460 2",
"  	c None",
". 	c #80827D",
"+ 	c #8C8E89",
"@ 	c #949692",
"# 	c #878984",
"$ 	c #858782",
"% 	c #959792",
"& 	c #C0C2BF",
"* 	c #EDEDEC",
"= 	c #FFFFFE",
"- 	c #FFFFFF",
"; 	c #FBFCFC",
"> 	c #ABADA9",
", 	c #81837D",
"' 	c #81837E",
") 	c #999B97",
"! 	c #DEDEDD",
"~ 	c #F9FAF9",
"{ 	c #F1F2F1",
"] 	c #DBDCDB",
"^ 	c #BBBCB9",
"/ 	c #9C9D98",
"( 	c #9A9C98",
"_ 	c #B2B4B1",
": 	c #D0D0CF",
"< 	c #F2F2F2",
"[ 	c #F5F5F5",
"} 	c #A8AAA6",
"| 	c #888A85",
"1 	c #92948F",
"2 	c #9C9E9A",
"3 	c #B0B2AE",
"4 	c #D6D7D4",
"5 	c #EEEFEE",
"6 	c #CFCFCE",
"7 	c #CACBC8",
"8 	c #F0F0F0",
"9 	c #F8F8F8",
"0 	c #FDFDFD",
"a 	c #F1F1F1",
"b 	c #C6C7C4",
"c 	c #9FA19C",
"d 	c #92938F",
"e 	c #AAABA8",
"f 	c #969893",
"g 	c #868883",
"h 	c #868882",
"i 	c #BBBCBA",
"j 	c #E2E3E1",
"k 	c #FCFCFC",
"l 	c #F7F7F7",
"m 	c #D6D7D6",
"n 	c #B1B2AF",
"o 	c #EDEEED",
"p 	c #F3F3F3",
"q 	c #FEFEFE",
"r 	c #F4F4F4",
"s 	c #CACAC8",
"t 	c #959893",
"u 	c #848782",
"v 	c #858882",
"w 	c #A3A5A0",
"x 	c #BCBCBA",
"y 	c #D4D4D3",
"z 	c #E9E9E8",
"A 	c #FAFAFA",
"B 	c #FBFBFB",
"C 	c #F6F6F6",
"D 	c #EEEEEE",
"E 	c #ECECEC",
"F 	c #EFEFEF",
"G 	c #C8C9C7",
"H 	c #A4A5A1",
"I 	c #FBFBFC",
"J 	c #F5F5F4",
"K 	c #DDDDDC",
"L 	c #BDBEBB",
"M 	c #9B9D99",
"N 	c #838580",
"O 	c #939590",
"P 	c #EDEDED",
"Q 	c #E8E8E8",
"R 	c #B9BBB8",
"S 	c #AEAFAC",
"T 	c #F9F9F9",
"U 	c #D0D1CF",
"V 	c #A2A49F",
"W 	c #888B86",
"X 	c #F7F8F7",
"Y 	c #DFE0DF",
"Z 	c #B5B7B4",
"` 	c #CDCDCB",
" .	c #F7F7F6",
"..	c #D3D4D2",
"+.	c #A0A29D",
"@.	c #939490",
"#.	c #D6D6D6",
"$.	c #F4F4F5",
"%.	c #E0E0DF",
"&.	c #B5B6B3",
"*.	c #848680",
"=.	c #A1A1A1",
"-.	c #191919",
";.	c #CFCFCF",
">.	c #F1F1F2",
",.	c #D2D3D2",
"'.	c #ABACA9",
").	c #E0E0E0",
"!.	c #030303",
"~.	c #000000",
"{.	c #424242",
"].	c #DADADA",
"^.	c #C2C3C1",
"/.	c #BBBDBA",
"(.	c #90928E",
"_.	c #B8BAB7",
":.	c #E2E2E2",
"<.	c #353535",
"[.	c #0F0F0F",
"}.	c #838383",
"|.	c #E5E6E5",
"1.	c #AAACA9",
"2.	c #D4D5D4",
"3.	c #FAFAFB",
"4.	c #8E908B",
"5.	c #A0A0A0",
"6.	c #050505",
"7.	c #3E3F3E",
"8.	c #ADAFAB",
"9.	c #F0EFEF",
"0.	c #E8E8E7",
"a.	c #888A84",
"b.	c #CDCDCD",
"c.	c #252624",
"d.	c #ACAEA9",
"e.	c #FCFBFC",
"f.	c #B3B4B1",
"g.	c #898B85",
"h.	c #EAEAEA",
"i.	c #767676",
"j.	c #020302",
"k.	c #424341",
"l.	c #D2D3D0",
"m.	c #8A8C86",
"n.	c #8A8C87",
"o.	c #D6D7D5",
"p.	c #565656",
"q.	c #10100F",
"r.	c #7D7D7B",
"s.	c #F1F2F0",
"t.	c #EEEEED",
"u.	c #898B86",
"v.	c #BDBEBC",
"w.	c #868686",
"x.	c #1E1F1D",
"y.	c #B1B3AF",
"z.	c #EFF1F1",
"A.	c #EFF2F2",
"B.	c #EDDFDF",
"C.	c #EDE4E4",
"D.	c #EEF3F3",
"E.	c #EEEFEF",
"F.	c #D4D5D3",
"G.	c #A4A6A2",
"H.	c #505050",
"I.	c #090909",
"J.	c #070707",
"K.	c #272727",
"L.	c #1B1B1B",
"M.	c #575757",
"N.	c #BEBEBE",
"O.	c #B3B4B2",
"P.	c #EEF0F0",
"Q.	c #E8BDBD",
"R.	c #DF6464",
"S.	c #DC4848",
"T.	c #DC4949",
"U.	c #E27B7B",
"V.	c #EBD2D2",
"W.	c #EDF0F0",
"X.	c #EDEEEE",
"Y.	c #EDF1F1",
"Z.	c #ECEFEF",
"`.	c #EBEBEB",
" +	c #8C8E88",
".+	c #3D3D3D",
"++	c #373737",
"@+	c #EFF4F4",
"#+	c #E7ACAC",
"$+	c #DD5252",
"%+	c #DC5252",
"&+	c #DC5151",
"*+	c #DC4D4D",
"=+	c #DE6767",
"-+	c #E9CECE",
";+	c #E8C5C5",
">+	c #E28D8D",
",+	c #E49F9F",
"'+	c #EBDDDD",
")+	c #ECEDED",
"!+	c #F2F1F1",
"~+	c #5A5A5A",
"{+	c #111111",
"]+	c #969695",
"^+	c #B7B8B4",
"/+	c #E5E5E4",
"(+	c #EBE0E0",
"_+	c #E28888",
":+	c #DB4848",
"<+	c #DC4F4F",
"[+	c #DB4F4F",
"}+	c #DB4D4D",
"|+	c #DB4949",
"1+	c #DC4E4E",
"2+	c #DA4545",
"3+	c #DA4343",
"4+	c #DB4646",
"5+	c #E4A6A6",
"6+	c #EAE5E5",
"7+	c #EBECEC",
"8+	c #F0F0EF",
"9+	c #CECECD",
"0+	c #F9F8F9",
"a+	c #E1E1E1",
"b+	c #7D7D7D",
"c+	c #7D7C7D",
"d+	c #ADAEAC",
"e+	c #AAACA7",
"f+	c #EEF6F6",
"g+	c #E9C4C4",
"h+	c #DD5F5F",
"i+	c #DB4C4C",
"j+	c #DB4A4A",
"k+	c #DA4747",
"l+	c #DA4646",
"m+	c #DA4444",
"n+	c #D94242",
"o+	c #D83E3E",
"p+	c #E7C8C8",
"q+	c #EBEEEE",
"r+	c #E9E9E9",
"s+	c #F4F3F5",
"t+	c #C0C1BF",
"u+	c #AAACA8",
"v+	c #D3D3D1",
"w+	c #B0B3AF",
"x+	c #EEF8F8",
"y+	c #E6B7B7",
"z+	c #DA4848",
"A+	c #D94343",
"B+	c #D94141",
"C+	c #D94040",
"D+	c #D73535",
"E+	c #DE7575",
"F+	c #E8DDDD",
"G+	c #EAECEC",
"H+	c #E7E7E7",
"I+	c #FEFFFE",
"J+	c #9D9F9B",
"K+	c #9B9C98",
"L+	c #E6E6E7",
"M+	c #B5B7B3",
"N+	c #D0D1CE",
"O+	c #EDF5F5",
"P+	c #E7C0C0",
"Q+	c #DC5858",
"R+	c #D94444",
"S+	c #D83F3F",
"T+	c #D83D3D",
"U+	c #D83C3C",
"V+	c #D83B3B",
"W+	c #D73838",
"X+	c #D84242",
"Y+	c #E6D0D0",
"Z+	c #E9EDED",
"`+	c #FDFDFC",
" @	c #949691",
".@	c #949591",
"+@	c #DCDDDC",
"@@	c #999B96",
"#@	c #E9EAE8",
"$@	c #E4E4E4",
"%@	c #EAE0E0",
"&@	c #E08383",
"*@	c #D83838",
"=@	c #D93F3F",
"-@	c #D83A3A",
";@	c #D73939",
">@	c #D73737",
",@	c #D73131",
"'@	c #DA5252",
")@	c #E7D5D5",
"!@	c #E9ECEC",
"~@	c #8D8E8A",
"{@	c #D1D2D0",
"]@	c #E5E5E5",
"^@	c #ECF3F3",
"/@	c #E39F9F",
"(@	c #D63636",
"_@	c #D63535",
":@	c #D52020",
"<@	c #E2AAAA",
"[@	c #E8E9E9",
"}@	c #C4C5C3",
"|@	c #8A8C88",
"1@	c #DDDEDC",
"2@	c #CBCBCA",
"3@	c #AFB1AD",
"4@	c #FFFEFF",
"5@	c #E6E8E8",
"6@	c #E6E3E3",
"7@	c #DA6D6D",
"8@	c #CF0B0B",
"9@	c #D01717",
"0@	c #D01313",
"a@	c #CF1010",
"b@	c #CE0D0D",
"c@	c #CD0909",
"d@	c #CD0606",
"e@	c #CD0505",
"f@	c #CC0000",
"g@	c #D65959",
"h@	c #E4D6D6",
"i@	c #E8EBEB",
"j@	c #979894",
"k@	c #B8B9B6",
"l@	c #B9BAB7",
"m@	c #E3E3E3",
"n@	c #E5ECEC",
"o@	c #DEB0B0",
"p@	c #D12B2B",
"q@	c #CB0000",
"r@	c #D76D6D",
"s@	c #E2DCDC",
"t@	c #E3E7E7",
"u@	c #E6E6E6",
"v@	c #A2A29F",
"w@	c #FCFCFD",
"x@	c #E5F2F2",
"y@	c #D97F7F",
"z@	c #CA0000",
"A@	c #D23F3F",
"B@	c #DFBBBB",
"C@	c #E3E5E5",
"D@	c #E3E4E4",
"E@	c #D7D8D6",
"F@	c #FCFBFB",
"G@	c #9FA19D",
"H@	c #E3E6E6",
"I@	c #D66262",
"J@	c #D12E2E",
"K@	c #DCA1A1",
"L@	c #E3E2E2",
"M@	c #8B8D88",
"N@	c #E6E5E6",
"O@	c #B5B7B5",
"P@	c #B2B4B0",
"Q@	c #FAF9FA",
"R@	c #E4EAEA",
"S@	c #DEB5B5",
"T@	c #CC0707",
"U@	c #DB9494",
"V@	c #A0A19D",
"W@	c #8B8E88",
"X@	c #CECECC",
"Y@	c #A3A5A1",
"Z@	c #D8D9D7",
"`@	c #E1D1D1",
" #	c #E2D7D7",
".#	c #8C8D89",
"+#	c #B8B9B5",
"@#	c #FEFDFE",
"##	c #9A9C97",
"$#	c #EFEEF0",
"%#	c #CFD0CF",
"&#	c #D7D6D6",
"*#	c #A5A7A3",
"=#	c #DEDEDE",
"-#	c #FDFDFE",
";#	c #A2A4A0",
">#	c #91938F",
",#	c #BCBEBB",
"'#	c #C9CAC8",
")#	c #F9F9FA",
"!#	c #979994",
"~#	c #8A8B87",
"{#	c #F1F0F0",
"]#	c #EAEAEB",
"^#	c #DCDDDD",
"/#	c #9D9F9A",
"(#	c #E8E9E8",
"_#	c #F1F1F0",
":#	c #898C87",
"<#	c #CCCDCA",
"[#	c #D1D1D0",
"}#	c #D2D2D0",
"|#	c #91938E",
"1#	c #A7A9A4",
"2#	c #C5C7C5",
"3#	c #959793",
"4#	c #DFDFDF",
"5#	c #A9AAA6",
"6#	c #989A95",
"7#	c #CDCDCC",
"8#	c #FBFAFA",
"9#	c #959693",
"0#	c #A8A9A7",
"a#	c #ACAFAC",
"b#	c #939491",
"c#	c #EFF0EF",
"d#	c #ACACAA",
"e#	c #A4A5A2",
"f#	c #C4C5C2",
"g#	c #EBECEA",
"h#	c #BCBDBB",
"i#	c #8D8F8A",
"j#	c #91928E",
"k#	c #D7D7D5",
"l#	c #E7E7E8",
"m#	c #C7C7C6",
"n#	c #8C8E8A",
"o#	c #B4B5B2",
"p#	c #DEDFDD",
"q#	c #B7B8B6",
"r#	c #F3F3F2",
"s#	c #8B8C87",
"t#	c #90928D",
"u#	c #E7E8E7",
"v#	c #EDEEEC",
"w#	c #EAEAE8",
"x#	c #CFCFCD",
"y#	c #B6B8B4",
"z#	c #A5A7A2",
"A#	c #6F706D",
"B#	c #636460",
"C#	c #72746F",
"D#	c #A8A9A5",
"E#	c #C3C4C1",
"F#	c #E5E6E4",
"G#	c #E1E1E0",
"H#	c #B7B8B5",
"I#	c #BFC1BE",
"J#	c #9D9E99",
"K#	c #80827C",
"L#	c #7E807B",
"M#	c #6E706C",
"N#	c #747571",
"O#	c #7D7F7A",
"P#	c #DBDDDB",
"Q#	c #DDDDDD",
"R#	c #FBFAFB",
"S#	c #797B76",
"T#	c #A9ABA8",
"U#	c #71736F",
"V#	c #7A7C77",
"W#	c #888A86",
"X#	c #A2A39F",
"Y#	c #BEBFBC",
"Z#	c #BCBDBA",
"`#	c #868783",
"                                                  . + @ +                                       ",
"                                      # # # $ % & * = - ; >                                     ",
"                              , ' ' ) ! ~ { ] ^ / ( _ : < [ }                                   ",
"                      | 1 2 3 4 5 6 7 - 8 < 9 0 - a b c d e f                                   ",
"          g h $ 1 i j k 0 k l [ m n o l < < < < < p l 0 q r s t u v                             ",
"    $ w x y z A - B C a D E E F G H A p < < < < < < < a p C I - J K L M N ,                     ",
"  O 9 - k [ a F D F D D D P P Q R S - 8 < < < < < < < < < < < 8 a [ k - T U V 1 W               ",
"| X l < a a 8 8 8 F F D D P D Y Z ` 0 a < < < < < < a a a a a a a a a a a r A I  ...+.N $       ",
"@.q p < a a 8 8 < l 8 D D P 8 #.3 $.[ < < < a a a a a a a a a a 8 8 8 8 8 8 F F < 9 - A %.&.*.  ",
"| k [ < a a a E =.-.;.D F P >.,.'.- a a a a a a a a a a a 8 8 8 8 8 8 8 8 8 8 8 F F F P 8 - b $ ",
"N %.9 < a a r ).!.~.!.{.].l Q ^./.- 8 a a a a a 8 8 8 8 8 8 8 8 8 8 8 F F F F F F F F F F 8 q (.",
"  _.q < < < :.<.~.~.~.~.[.}.|.1.2.3.8 a a a 8 8 8 8 8 8 8 8 8 8 F F F F F F F F F F F F D F - 4.",
"  @.- a < 8 5.~.~.~.~.~.~.6.7.8.9.< 8 8 8 8 8 8 8 8 8 F F F F F F F F F F F D D D D D P P p 0.N ",
"  a.B a < b.~.~.~.~.~.~.~.~.c.d.- F 8 8 8 8 8 F F F F F F F F F F D D D D D D D P P P P P e.f.  ",
"  g.h.[ E i.~.~.~.~.~.~.~.j.k.l.- F 8 8 8 F F F F F F F F F F D D D D D D D D P P P P P h.- m.  ",
"  n.o.T E p.~.~.~.~.~.~.~.q.r.s.l D F F F F F F F D D D D D D D D D D D P P P E E E E E E t.u.  ",
"    v.- P w.~.~.~.~.~.~.~.x.y.k < F F F F F D z.A.B.C.D.E.D D P P P P E E E E E E E E E [ F.u.  ",
"    G.- < P H.I.J.K.L.M.N.O.} - P F F D D E.P.Q.R.S.T.U.V.W.X.Y.Z.E E E E E E E E E `.h.- f.    ",
"     +- < < a a < ]..+++D &.L k E D D D D @+#+$+%+&+&+*+=+-+;+>+,+'+)+E E E `.`.`.`.`.h.- 1     ",
"    N !+p < a a < ).~+{+]+^+/+p D D D P W.(+_+:+<+[+}+}+|+1+|+2+3+4+5+6+7+`.`.`.h.h.h.E 8+N     ",
"    $ 9+0+< a a < a+b+c+d+e+- P P P P P f+g+h+|+i+j+j+:+k+l+2+m+3+n+o+p+q+`.h.h.h.h.r+s+t+g     ",
"      u+- a < a a 8 8 F v+w+- E P P P P x+y+i+l+z+l+2+m+A+n+B+B+C+C+D+E+F+G+r+r+r+r+H+I+J+      ",
"      K+- a < a a 8 a L+M+N+T `.P E E E O+P+Q+B+R+n+B+B+C+S+o+T+U+V+W+X+Y+Z+r+r+r+r+r+`+ @      ",
"      .@0 p < a a 8 < +@@@#@`.$@r+`.`.`.q+%@&@*@=@=@o+U+U+V+-@;@W+>@,@'@)@!@r+r+Q Q F a +       ",
"      ~@9 C < a a a 8 {@) 0 :.$@$@]@H+h.`.^@/@;@V+V+V+;@;@W+W+>@(@_@:@<@Q [@Q Q Q H+A }@        ",
"      |@1@B < a a a P 2@3@4@a+$@$@$@$@$@$@5@6@7@8@9@0@a@b@c@d@e@d@f@g@h@i@Q Q Q Q ]@- j@        ",
"        k@- a a a < Q l@] < m@$@$@$@$@$@$@$@n@o@p@q@f@f@f@f@f@f@f@r@s@t@m@]@H+u@u@$@C n.        ",
"        @ - a p a r /+v@w@Q m@$@$@$@$@$@$@m@m@x@y@f@f@f@f@f@z@A@B@C@D@:.:.:.:.]@]@8 E@n.        ",
"        u.F@$@u@u@]@9+G@- m@$@$@$@$@$@m@m@m@m@D@H@I@q@f@q@J@K@C@H@L@:.:.:.:.:.:.:.w@l@          ",
"        M@|.h.]@N@).O@P@Q@:.$@$@$@m@m@m@m@m@m@m@R@S@J@T@U@t@C@:.:.:.:.:.:.:.:.:.:.- V@          ",
"        W@X@p $@u@].Y@Z@P :.m@m@m@m@m@m@m@m@m@m@m@H@`@ #H@:.:.:.:.:.:.:.:.:.:.:.]@0 .#          ",
"          +#@#m@u@#.##0 m@m@m@m@m@m@m@m@m@m@m@m@m@m@:.:.:.:.:.:.:.:.:.:.:.:.:.).$#%#n.          ",
"          H - ]@u@&#*#- :.m@m@m@m@m@m@m@m@m@m@m@:.:.:.:.:.:.:.:.:.:.:.:.:.:.a+=#-#;#            ",
"          >#- H+:.,#'#)#a+m@m@m@m@m@m@m@m@m@:.:.:.:.:.:.:.:.:.:.:.:.:.a+a+a+a+).w@!#            ",
"          ~#{#]#^#/#(#P :.m@m@m@m@m@m@:.:.:.:.:.:.:.:.:.:.:.:.:.:.:.a+a+a+a+).r+_#1             ",
"          :#<#< [#O T :.m@m@m@m@m@:.:.:.:.:.:.:.:.:.:.:.:.:.:.a+a+a+a+a+a+a+).l }#|#            ",
"            1#k 2#3#- 4#m@m@:.:.:.:.:.:.:.:.:.:.:.:.:.:.a+a+a+a+a+a+a+a+a+a+4#- 5#              ",
"            6#- 7#1 8#r+a+a+:.:.:.:.:.:.:.:.:.:.:.:.a+a+a+a+a+a+a+a+a+a+a+a+4#- 4.              ",
"            9#~ :.0#a#- 0 8 ]@:.:.:.:.:.:.:.:.:.a+a+a+a+a+a+a+a+a+a+a+a+a+).r+! 4.              ",
"            b#c#D %.d#n.e#f#g#- B 8 ]@).a+a+a+a+a+a+a+a+a+a+a+a+a+a+a+).).=#9 h#i#              ",
"            j#k#C $@l#N@m#H + n#o#p#J k r r+$@a+).a+a+a+a+a+a+a+a+).).).).=#- 5#                ",
"              q#- m@]@]@$@H+D r#%.> s#t#y.u#- 0 r u@).a+a+a+).).).).).).).:.- 6#                ",
"              t#v#q T - k w#x#y#z# @' A#B#C#+ D#E#F#`+k a u@4#=#).).).).4#E G#~@                ",
"                M@H#I#J#K#. L#M#                N#O#g > P#J k [ Q m@).).Q#R#f.                  ",
"                                                        S#M@4.T#K B - [ A l 6#                  ",
"                                                              U#V#W#X#Y#Z#1                     ",
"                                                                      `##                       ",
"                                                                                                "};
