/* XPM */
static const char * gnome_xpm[] = {
"48 48 237 2",
"  	c None",
". 	c #406291",
"+ 	c #476693",
"@ 	c #587199",
"# 	c #62789D",
"$ 	c #647A9E",
"% 	c #61779C",
"& 	c #516C96",
"* 	c #426391",
"= 	c #416391",
"- 	c #4E6B96",
"; 	c #4C6995",
"> 	c #426392",
", 	c #9DA8BC",
"' 	c #CBD0D9",
") 	c #E1E4E8",
"! 	c #E7E9EC",
"~ 	c #DFE2E6",
"{ 	c #B8BECC",
"] 	c #657B9E",
"^ 	c #416291",
"/ 	c #577099",
"( 	c #9CA6BA",
"_ 	c #C1C6D2",
": 	c #B9C0CD",
"< 	c #7989A7",
"[ 	c #436492",
"} 	c #7687A6",
"| 	c #C9CED8",
"1 	c #F1F2F3",
"2 	c #F8F8F8",
"3 	c #F9F9F9",
"4 	c #F3F4F5",
"5 	c #A5AEC0",
"6 	c #496894",
"7 	c #4B6994",
"8 	c #A4ADC0",
"9 	c #ECEDF0",
"0 	c #F6F6F7",
"a 	c #BFC5D1",
"b 	c #556F98",
"c 	c #687C9F",
"d 	c #D0D3DC",
"e 	c #F5F6F7",
"f 	c #B7BECC",
"g 	c #506B96",
"h 	c #486793",
"i 	c #5F769C",
"j 	c #506C96",
"k 	c #60779C",
"l 	c #DCDEE4",
"m 	c #F8F8F9",
"n 	c #D7DAE1",
"o 	c #6C7FA1",
"p 	c #4A6894",
"q 	c #B4BBCA",
"r 	c #F3F3F5",
"s 	c #F4F5F6",
"t 	c #9FA9BC",
"u 	c #466693",
"v 	c #567098",
"w 	c #A8B1C2",
"x 	c #CDD1DA",
"y 	c #B5BCCA",
"z 	c #5A739A",
"A 	c #7184A4",
"B 	c #EEEFF1",
"C 	c #D7DBE1",
"D 	c #6D80A2",
"E 	c #7486A5",
"F 	c #E0E3E7",
"G 	c #DFE2E7",
"H 	c #7889A7",
"I 	c #446492",
"J 	c #9DA7BB",
"K 	c #EDEEF0",
"L 	c #EFF0F2",
"M 	c #9AA4B9",
"N 	c #446592",
"O 	c #CBCFD9",
"P 	c #5C749B",
"Q 	c #A0A9BD",
"R 	c #F2F3F4",
"S 	c #B0B8C7",
"T 	c #4D6A95",
"U 	c #C2C8D3",
"V 	c #C0C5D1",
"W 	c #486693",
"X 	c #657A9E",
"Y 	c #E5E7EB",
"Z 	c #F5F5F6",
"` 	c #B2B9C8",
" .	c #456593",
"..	c #B6BCCA",
"+.	c #F7F7F7",
"@.	c #F6F7F7",
"#.	c #CFD3DB",
"$.	c #677C9F",
"%.	c #C0C6D1",
"&.	c #F7F7F8",
"*.	c #CCD0DA",
"=.	c #496794",
"-.	c #566F98",
";.	c #C5CAD5",
">.	c #E4E6EA",
",.	c #8190AC",
"'.	c #BCC2CF",
").	c #F7F8F8",
"!.	c #D8DBE2",
"~.	c #7D8DAA",
"{.	c #798AA8",
"].	c #8A98B1",
"^.	c #456592",
"/.	c #9EA8BC",
"(.	c #C9CDD7",
"_.	c #8A98B0",
":.	c #E3E5E9",
"<.	c #EDEEF1",
"[.	c #AEB6C6",
"}.	c #8492AD",
"|.	c #466593",
"1.	c #8B98B1",
"2.	c #E2E4E9",
"3.	c #526D97",
"4.	c #667B9F",
"5.	c #B4BAC9",
"6.	c #919DB5",
"7.	c #8593AD",
"8.	c #E1E3E8",
"9.	c #C7CBD6",
"0.	c #7788A7",
"a.	c #BBC2CE",
"b.	c #E7E8EC",
"c.	c #8593AE",
"d.	c #8C99B1",
"e.	c #DADDE3",
"f.	c #DDE0E5",
"g.	c #7F8FAB",
"h.	c #95A1B7",
"i.	c #BDC3D0",
"j.	c #98A3B8",
"k.	c #B8BFCC",
"l.	c #ABB3C3",
"m.	c #7284A4",
"n.	c #536D97",
"o.	c #597299",
"p.	c #5D749B",
"q.	c #5E759B",
"r.	c #577199",
"s.	c #4B6995",
"t.	c #8E9AB2",
"u.	c #ECEDEF",
"v.	c #BBC1CE",
"w.	c #426492",
"x.	c #4E6A95",
"y.	c #6F82A3",
"z.	c #A6AFC1",
"A.	c #BEC4D0",
"B.	c #CCD1DA",
"C.	c #D6D9E0",
"D.	c #DADCE3",
"E.	c #D4D8DF",
"F.	c #C9CED7",
"G.	c #B3BBC9",
"H.	c #8F9BB3",
"I.	c #597199",
"J.	c #B7BECB",
"K.	c #536E97",
"L.	c #8D9AB2",
"M.	c #D9DCE2",
"N.	c #CFD3DC",
"O.	c #8996B0",
"P.	c #61789D",
"Q.	c #ACB4C4",
"R.	c #CCD0D9",
"S.	c #8A97B0",
"T.	c #8392AD",
"U.	c #C8CCD6",
"V.	c #E9EAED",
"W.	c #7385A5",
"X.	c #A7AFC1",
"Y.	c #A9B1C3",
"Z.	c #5B739A",
"`.	c #B6BDCB",
" +	c #4F6B96",
".+	c #ADB5C5",
"++	c #9BA6BA",
"@+	c #8694AE",
"#+	c #8E9BB3",
"$+	c #949FB6",
"%+	c #7C8CAA",
"&+	c #F2F2F4",
"*+	c #D1D4DC",
"=+	c #E4E7EA",
"-+	c #B1B8C7",
";+	c #7C8CA9",
">+	c #F0F1F3",
",+	c #DEE1E6",
"'+	c #A3ACBE",
")+	c #5E769B",
"!+	c #9CA7BB",
"~+	c #A7B0C2",
"{+	c #C4C9D4",
"]+	c #C1C7D2",
"^+	c #6E81A2",
"/+	c #DCDFE5",
"(+	c #6B7FA1",
"_+	c #E0E2E7",
":+	c #7E8DAA",
"<+	c #A2ACBE",
"[+	c #D0D4DC",
"}+	c #5C749A",
"|+	c #D3D7DE",
"1+	c #C6CBD5",
"2+	c #E5E6EA",
"3+	c #8795AF",
"4+	c #63799D",
"5+	c #DDDFE5",
"6+	c #F8F9F9",
"7+	c #7385A4",
"8+	c #D6DAE1",
"9+	c #8F9CB3",
"0+	c #5A729A",
"a+	c #9CA6BB",
"b+	c #ABB4C4",
"c+	c #8291AC",
"d+	c #E8EAED",
"e+	c #D4D7DF",
"f+	c #687CA0",
"g+	c #D5D8DF",
"h+	c #8896AF",
"i+	c #6F81A3",
"j+	c #909CB4",
"k+	c #ECEEF0",
"l+	c #808FAB",
"m+	c #8C98B1",
"n+	c #BAC0CD",
"        . . . . . . . . . . . . . . . . . . . . . . . . . . . . . . . . . . . . . . . .         ",
"    . . . . . . . . . . . . . . . . . . . . . . . . . . . . . . . . . . . . . . . . . . . .     ",
"  . . . . . . . . . . . . . . . . . . . . . . . . . . . . . . . . . . . . . . . . . . . . . .   ",
"  . . . . . . . . . . . . . . . . . . . . . . . . . . . . . . . . . . . . . . . . . . . . . .   ",
". . . . . . . . . . . . . . . . . . . . . . . . . . . . . . . . . . . . . . . . . . . . . . . . ",
". . . . . . . . . . . . . . . . . . . . . . . . . . . . . . . . + @ # $ % & * . . . . . . . . . ",
". . . . . . . . . . . . . . . . . . . . . . = - ; . . . . . > $ , ' ) ! ~ { ] ^ . . . . . . . . ",
". . . . . . . . . . . . . . . . . . . . . / ( _ : < ^ . . [ } | 1 2 3 3 3 4 5 6 . . . . . . . . ",
". . . . . . . . . . . . . . . . . . . . 7 8 9 2 0 a b . ^ c d e 3 3 3 3 3 2 f g . . . . . . . . ",
". . . . . . . . . . . . . . . h i j ^ . k l m 3 3 n o . p q r 3 3 3 3 3 3 s t u . . . . . . . . ",
". . . . . . . . . . . . . . v w x y z = A B 3 3 3 C D . E F 3 3 3 3 3 3 3 G H . . . . . . . . . ",
". . . . . . . . . . . . . I J K 3 L M N E L 3 3 3 O P . Q L 3 3 3 3 3 3 R S T . . . . . . . . . ",
". . . . . . . . . . . . . h U 0 3 0 V W X Y 3 3 Z `  .= ..+.3 3 3 3 3 @.#.$.. . . . . . . . . . ",
". . . . . . . . . . = > . W %.0 3 &.*.=.-.;.2 3 >.,.. [ '.3 3 3 3 3 ).!.~.[ . . . . . . . . . . ",
". . . . . . . . . =.{.].z ^./.1 3 +.(.h I _.:.<.S T . = [.s 3 3 3 0 n }.|.. . . . . . . . . . . ",
". . . . . . . . N 1.2.B : 3.4.n 2 s 5.u . p }.6.@ . . . 7.8.2 2 9 9.0. .. . . . . . . . . . . . ",
". . . . . . . . 3.a.&.3 b.c.u d.e.f.g.> . . > [ . . . . =.h._ i.j.@ > . . . . . . . . . . . . . ",
". . . . . . . . j k.&.3 r l.^ =.m.< =.. . = =.n.o.p.q.P r.j j s.^ . . . . . . . . . . . . . . . ",
". . . . . . . . [ t.u.3 2 v.w.. . . . x.y._.z.A.B.C.D.E.F.G.H.4.I . . . . . . . . . . . . . . . ",
". . . . . . . . . I.k.1 @.J.> . > K.L.v.M.B +.2 2 2 m 2 2 &.L N.O.+ . . . . . . . . . . . . . . ",
". . . . . . . . . . P.Q.R.S.^ ; T.U.V.0 3 3 3 3 3 3 3 3 3 3 3 ).f.W.= . . . . . . . . . . . . . ",
". . . . . . . . . . . T o.=.z X.Y @.3 3 3 3 3 3 3 3 3 3 3 3 3 3 r Y.^.. . . . . . . . . . . . . ",
". . . . . . . . . . . . . Z.`.L 3 3 3 3 3 3 3 3 3 3 3 3 3 3 3 3 Z `.u . . . . . . . . . . . . . ",
". . . . . . . . . . . .  +.+L 3 3 3 3 3 3 3 3 3 3 3 3 3 3 3 3 3 1 ++I . . . . . . . . . . . . . ",
". . . . . . . . . . . [ @+Y 3 3 3 3 3 3 3 3 3 3 3 3 3 3 3 3 3 2 C 4.. . . . . . . . . . . . . . ",
". . . . . . . . . . . n.i.&.3 3 3 3 3 3 3 3 3 3 3 3 3 3 3 3 m :.#+u . . . . . . . . . . . . . . ",
". . . . . . . . . . . X 2.3 3 3 3 3 3 3 3 3 3 3 3 3 3 3 3 +.F $+; . . . . . . . . . . . . . . . ",
". . . . . . . . . . = %+L 3 3 3 3 3 3 3 3 3 3 3 3 3 3 3 &+*+,.=.. . . . . . . . . . . . . . . . ",
". . . . . . . . . . > S.1 3 3 3 3 3 3 3 3 3 3 3 3 3 &.=+-+$.[ . . . . . . . . . . . . . . . . . ",
". . . . . . . . . . = ;+L 3 3 3 3 3 3 3 3 3 3 3 2 >+| 7. +. . . . . . . . . . . . . . . . . . . ",
". . . . . . . . . . . 4.Y 3 3 3 3 3 3 3 3 3 3 0 ,+'+)+[ . . . . . . . . . . . . . . . . . . . . ",
". . . . . . . . . . . r.F.2 3 3 3 3 3 3 3 3 R U.;+u . . = ^.h =.W [ . . . . . . . . . . . . . . ",
". . . . . . . . . . . u !+R 3 3 3 3 3 3 3 4 A.$ > . . 7 } ~+{+B.]+H.p . . . . . . . . . . . . . ",
". . . . . . . . . . . . ^+n m 3 3 3 3 3 m /+(+= . . p J >.4 0 &.0 _+:+. . . . . . . . . . . . . ",
". . . . . . . . . . . . u <+B 3 3 3 3 3 ).[+T . . . }+|+2 3 3 3 3 ! c.. . . . . . . . . . . . . ",
". . . . . . . . . . . . . }+1+Z 3 3 3 3 3 2+3+ .. . 4+5+6+3 3 3 2 M.i . . . . . . . . . . . . . ",
". . . . . . . . . . . . . = 7+8+&.3 3 3 3 &.!.9+P 0+a+L 3 3 3 3 R b+u . . . . . . . . . . . . . ",
". . . . . . . . . . . . . . ^.c+e.+.3 3 3 3 2 d+R.F.V.2 3 3 3 2 e+f+^ . . . . . . . . . . . . . ",
". . . . . . . . . . . . . . . u ,.g+s 3 3 3 3 3 3 3 3 3 3 3 2 G h+^.. . . . . . . . . . . . . . ",
". . . . . . . . . . . . . . . . N i+_ 9 2 3 3 3 3 3 3 3 3 @.5+j+h . . . . . . . . . . . . . . . ",
". . . . . . . . . . . . . . . . . = / j.x k+&.2 3 3 m &.9 ;.l+ .. . . . . . . . . . . . . . . . ",
". . . . . . . . . . . . . . . . . . . > 4+m+` [+,+8.n n+L.P > . . . . . . . . . . . . . . . . . ",
". . . . . . . . . . . . . . . . . . . . . > T 0+k # q.& [ . . . . . . . . . . . . . . . . . . . ",
". . . . . . . . . . . . . . . . . . . . . . . . . . . . . . . . . . . . . . . . . . . . . . . . ",
"  . . . . . . . . . . . . . . . . . . . . . . . . . . . . . . . . . . . . . . . . . . . . . .   ",
"  . . . . . . . . . . . . . . . . . . . . . . . . . . . . . . . . . . . . . . . . . . . . . .   ",
"    . . . . . . . . . . . . . . . . . . . . . . . . . . . . . . . . . . . . . . . . . . . .     ",
"        . . . . . . . . . . . . . . . . . . . . . . . . . . . . . . . . . . . . . . . .         "};
