/* XPM */
static const char * kde_xpm[] = {
"64 64 381 2",
"  	c None",
". 	c #0068C6",
"+ 	c #0067C5",
"@ 	c #046AC7",
"# 	c #247BCD",
"$ 	c #2D7FCE",
"% 	c #247ACD",
"& 	c #046BC7",
"* 	c #0067C6",
"= 	c #0065C5",
"- 	c #3889D2",
"; 	c #E6F0F9",
"> 	c #F3F8FD",
", 	c #ECF4FB",
"' 	c #3688D2",
") 	c #3F8DD4",
"! 	c #FFFFFF",
"~ 	c #4491D5",
"{ 	c #0058C0",
"] 	c #005DC2",
"^ 	c #0057C0",
"/ 	c #4391D5",
"( 	c #3C8BD3",
"_ 	c #0066C5",
": 	c #0D6FC8",
"< 	c #F2F7FC",
"[ 	c #277FCF",
"} 	c #3587D2",
"| 	c #F7FAFD",
"1 	c #1574CB",
"2 	c #3785D1",
"3 	c #F0F7FC",
"4 	c #005CC2",
"5 	c #0064C5",
"6 	c #096EC8",
"7 	c #1675CB",
"8 	c #237DCE",
"9 	c #096DC8",
"0 	c #0066C6",
"a 	c #005BC1",
"b 	c #E8F2FA",
"c 	c #3182D0",
"d 	c #3E8DD4",
"e 	c #BFD9F1",
"f 	c #0062C4",
"g 	c #1A76CB",
"h 	c #BED9F1",
"i 	c #C9DFF3",
"j 	c #CBE0F3",
"k 	c #CFE2F4",
"l 	c #DBEAF7",
"m 	c #E7F1FA",
"n 	c #F9FCFE",
"o 	c #3487D1",
"p 	c #6FAADF",
"q 	c #D1E4F5",
"r 	c #C4DCF1",
"s 	c #539AD8",
"t 	c #0059C0",
"u 	c #005FC2",
"v 	c #99C3E8",
"w 	c #3582D0",
"x 	c #BCD7F0",
"y 	c #227BCD",
"z 	c #F4F8FD",
"A 	c #3488D2",
"B 	c #4B94D7",
"C 	c #F6FAFD",
"D 	c #66A4DD",
"E 	c #3082D0",
"F 	c #227CCE",
"G 	c #0063C4",
"H 	c #97C2E8",
"I 	c #0169C6",
"J 	c #237CCE",
"K 	c #A3C8EA",
"L 	c #0061C3",
"M 	c #0969C6",
"N 	c #EBF4FB",
"O 	c #1271C9",
"P 	c #076BC7",
"Q 	c #CDE1F4",
"R 	c #1A78CC",
"S 	c #84B7E3",
"T 	c #2F83D1",
"U 	c #72AADF",
"V 	c #64A3DD",
"W 	c #A1C8EA",
"X 	c #3C86D1",
"Y 	c #257DCE",
"Z 	c #F4F9FD",
"` 	c #95C1E8",
" .	c #0059C1",
"..	c #ACCDEC",
"+.	c #FEFEFF",
"@.	c #AACDEC",
"#.	c #E7F1F9",
"$.	c #FEFFFF",
"%.	c #DEEBF7",
"&.	c #0369C6",
"*.	c #B1D1ED",
"=.	c #D2E4F5",
"-.	c #2C82D0",
";.	c #0168C6",
">.	c #1071CA",
",.	c #BAD5EF",
"'.	c #F2F8FC",
").	c #4590D6",
"!.	c #D5E6F6",
"~.	c #9AC2E8",
"{.	c #C0D9F1",
"].	c #267CCE",
"^.	c #2B81D0",
"/.	c #F8FBFE",
"(.	c #2D83D0",
"_.	c #1A74CA",
":.	c #F0F6FC",
"<.	c #257CCE",
"[.	c #096BC7",
"}.	c #83B4E3",
"|.	c #0064C4",
"1.	c #549AD9",
"2.	c #FCFDFF",
"3.	c #287DCE",
"4.	c #C1DBF1",
"5.	c #7EB3E2",
"6.	c #0060C3",
"7.	c #005EC2",
"8.	c #9CC3E9",
"9.	c #E1EDF8",
"0.	c #78AFE1",
"a.	c #227ACD",
"b.	c #3185D1",
"c.	c #579BDA",
"d.	c #E4EFF9",
"e.	c #1272CA",
"f.	c #0A6DC8",
"g.	c #D4E6F6",
"h.	c #1F7BCD",
"i.	c #1D77CC",
"j.	c #1371CA",
"k.	c #3485D1",
"l.	c #B3D2EE",
"m.	c #9EC5EA",
"n.	c #67A5DD",
"o.	c #62A2DC",
"p.	c #0056BF",
"q.	c #9FC7EA",
"r.	c #056BC7",
"s.	c #D0E2F4",
"t.	c #0061C4",
"u.	c #A0C7EA",
"v.	c #0057BF",
"w.	c #4D96D7",
"x.	c #BBD5F0",
"y.	c #3687D2",
"z.	c #2C82CF",
"A.	c #D7E7F6",
"B.	c #C4DCF2",
"C.	c #005CC1",
"D.	c #579CDA",
"E.	c #89B9E5",
"F.	c #0069C6",
"G.	c #1C73CA",
"H.	c #2B82D0",
"I.	c #9AC3E9",
"J.	c #2A81CF",
"K.	c #87B8E4",
"L.	c #A2C7EA",
"M.	c #1171CA",
"N.	c #2C81D0",
"O.	c #FAFCFE",
"P.	c #DCEBF7",
"Q.	c #6BA8DE",
"R.	c #3588D2",
"S.	c #1A76CC",
"T.	c #F1F6FC",
"U.	c #FBFDFE",
"V.	c #1A77CC",
"W.	c #4E96D7",
"X.	c #97C0E8",
"Y.	c #CADFF3",
"Z.	c #E2EEF9",
"`.	c #237BCD",
" +	c #64A4DC",
".+	c #ECF5FB",
"++	c #0055BF",
"@+	c #E0EDF8",
"#+	c #418FD5",
"$+	c #005AC1",
"%+	c #ACCEEC",
"&+	c #0D6FC9",
"*+	c #DEEBF8",
"=+	c #2E7CCD",
"-+	c #549BD9",
";+	c #89BAE5",
">+	c #207BCD",
",+	c #F5F9FD",
"'+	c #227CCD",
")+	c #0D70C9",
"!+	c #DEECF8",
"~+	c #2B7CCE",
"{+	c #5C9FDB",
"]+	c #66A5DD",
"^+	c #90BCE5",
"/+	c #0E71C9",
"(+	c #DFECF8",
"_+	c #2C7CCE",
":+	c #5A9EDA",
"<+	c #70AADF",
"[+	c #DDECF8",
"}+	c #B7D4EF",
"|+	c #0F71C9",
"1+	c #E5F0F9",
"2+	c #2F7DCE",
"3+	c #ADCEED",
"4+	c #1D72CA",
"5+	c #FAFDFE",
"6+	c #64A4DD",
"7+	c #0269C6",
"8+	c #398AD3",
"9+	c #C2DBF1",
"0+	c #3486D2",
"a+	c #8FBDE6",
"b+	c #3C8AD3",
"c+	c #267FCE",
"d+	c #98C2E8",
"e+	c #CDE2F4",
"f+	c #D9E8F6",
"g+	c #DDEBF8",
"h+	c #096CC7",
"i+	c #F7FBFD",
"j+	c #0063C5",
"k+	c #D6E7F6",
"l+	c #E9F2FA",
"m+	c #2C7ECE",
"n+	c #D9E8F7",
"o+	c #A7CBEB",
"p+	c #1B77CC",
"q+	c #E6F0FA",
"r+	c #1172CA",
"s+	c #E3EFF9",
"t+	c #A5CAEB",
"u+	c #297FCE",
"v+	c #EFF5FC",
"w+	c #0A6EC8",
"x+	c #B8D5EF",
"y+	c #B9D4EF",
"z+	c #ECF3FB",
"A+	c #9CC4E9",
"B+	c #84B6E3",
"C+	c #79B0E1",
"D+	c #7BAFE1",
"E+	c #6FA9DF",
"F+	c #1372CA",
"G+	c #5FA1DC",
"H+	c #3385D1",
"I+	c #0469C7",
"J+	c #E8F1FA",
"K+	c #D2E5F5",
"L+	c #7EB1E2",
"M+	c #1776CB",
"N+	c #62A0DB",
"O+	c #247DCE",
"P+	c #1C79CD",
"Q+	c #F8FBFD",
"R+	c #C0DAF1",
"S+	c #8DBBE6",
"T+	c #65A4DD",
"U+	c #428ED5",
"V+	c #6BA7DE",
"W+	c #418DD4",
"X+	c #4F95D7",
"Y+	c #0569C6",
"Z+	c #E5F0FA",
"`+	c #F9FCFD",
" @	c #87B7E4",
".@	c #3B87D2",
"+@	c #1773CA",
"@@	c #3084D1",
"#@	c #2D82D0",
"$@	c #3C8CD3",
"%@	c #0B6EC9",
"&@	c #3E8DD3",
"*@	c #1575CB",
"=@	c #0B6DC8",
"-@	c #93BEE6",
";@	c #7CB1E2",
">@	c #3085D1",
",@	c #1071C9",
"'@	c #C6DDF2",
")@	c #4892D6",
"!@	c #136CC8",
"~@	c #D7E8F7",
"{@	c #C7DDF2",
"]@	c #61A1DC",
"^@	c #287ACD",
"/@	c #4692D6",
"(@	c #DCEAF7",
"_@	c #0D6EC8",
":@	c #3D89D2",
"<@	c #6DA9DF",
"[@	c #7BB0E1",
"}@	c #96C1E8",
"|@	c #3B89D2",
"1@	c #1F78CC",
"2@	c #0E70C9",
"3@	c #3886D1",
"4@	c #D3E5F5",
"5@	c #98C1E8",
"6@	c #005DC1",
"7@	c #8ABAE5",
"8@	c #1E79CD",
"9@	c #5B9DDA",
"0@	c #2A78CC",
"a@	c #6EAADF",
"b@	c #CEE3F4",
"c@	c #D5E7F6",
"d@	c #D1E4F4",
"e@	c #CCE1F4",
"f@	c #7FB3E3",
"g@	c #2D7DCE",
"h@	c #066BC8",
"i@	c #85B5E4",
"j@	c #F6F9FD",
"k@	c #036AC7",
"l@	c #C3DAF1",
"m@	c #81B5E3",
"n@	c #146FC9",
"o@	c #0E6AC7",
"p@	c #156FC9",
"q@	c #92BFE7",
"r@	c #7DB3E2",
"s@	c #EFF6FC",
"t@	c #3B8BD3",
"u@	c #0A6DC7",
"v@	c #D1E3F4",
"w@	c #72ABE0",
"x@	c #1F7ACD",
"y@	c #AFD0ED",
"z@	c #A5C9EB",
"A@	c #579AD9",
"B@	c #287FCF",
"C@	c #6FAADE",
"D@	c #A3C8EB",
"E@	c #2F83D0",
"F@	c #96C0E8",
"G@	c #64A2DC",
"H@	c #5097D8",
"I@	c #3788D3",
"J@	c #4893D6",
"K@	c #569BD9",
"L@	c #589BDA",
"M@	c #3487D2",
"N@	c #1876CB",
"O@	c #70ABDF",
"P@	c #559AD9",
"Q@	c #F3F8FC",
"R@	c #CCE2F4",
"S@	c #C8DEF3",
"T@	c #BDD7F0",
"U@	c #C7DEF2",
"V@	c #2779CC",
"W@	c #98C3E8",
"X@	c #0269C7",
"Y@	c #2479CD",
"Z@	c #297BCE",
"`@	c #2B7DCE",
" #	c #3282D0",
".#	c #0E70C8",
"+#	c #3387D2",
"@#	c #4290D5",
"##	c #005AC0",
"$#	c #4490D5",
"%#	c #E2EFF9",
"&#	c #E1EEF9",
"*#	c #E9F1FA",
"=#	c #4590D5",
"-#	c #0B6EC8",
";#	c #2E82D0",
">#	c #2F81D0",
"          . . . . . . . . . . . . . . . . . . . . . . . . . . . . . . . . . . . . . . . . . . . . . . . . . . . . . .           ",
"      . . . . . . . . . . . . . . . . . . . . . . . . . . . . . . . . . . . . . . . . . . . . . . . . . . . . . . . . . .       ",
"    . . + @ # $ $ $ $ $ $ $ $ $ $ $ $ $ $ $ $ $ $ $ $ $ $ $ $ $ $ $ $ $ $ $ $ $ $ $ $ $ $ $ $ $ $ $ $ $ $ $ $ $ $ % & * . .     ",
"  . . = - ; > , , , , , , , , , , , , , , , , , , , , , , , , , , , , , , , , , , , , , , , , , , , , , , , , , , > ; ' = . .   ",
"  . + ) ! ~ { ] ] ] ] ] ] ] ] ] ] ] ] ] ] ] ] ] ] ] ] ] ] ] ] ] ] ] ] ] ] ] ] ] ] ] ] ] ] ] ] ] ] ] ] ] ] ] ] ] ] ^ / ! ( _ .   ",
". . : < [ = . . . . . . . . . . . . . . . . . . . . . . . . . . . . . . . . . . . . . . . . . . . . . . . . . . . . = } | 1 . . ",
". . 2 3 4 . . . . . . . . . . . . . . . . . . . . . . = = 5 5 + 6 7 8 9 . . . . . . . . . . . 0 = _ . . . . . . . . . a b c . . ",
". . d e f . . . . . . . . . . . . . . . . . . . . . g h i i j k l m n o . . . . . . . . . f p q r s t u _ . . . . . . f v w . . ",
". . d x f . . . . . . . . . . . . . . . . . . . . . y z ! ! ! ! ! ! ! A . . . . . . . . * B ! ! ! ! ! C D E F _ . . . G H w . . ",
". . d x f . . . . . . . . . . . . . . . . . . . . . y > ! ! ! ! ! ! ! A . . . . . . . I J ! ! ! ! ! ! ! ! ! C K L . . G H w . . ",
". . d x f . . . . . . . . . . . . . . . . . . . . . y > ! ! ! ! ! ! ! A . . . . . . * M ! ! ! ! ! ! ! ! ! ! N O I . . G H w . . ",
". . d x f . . . . . . . . . . . . . . . . . . . . . y > ! ! ! ! ! ! ! A . . . . . . P Q ! ! ! ! ! ! ! ! ! ! R * . . . G H w . . ",
". . d x f . . . . . . . . . . . . . . . . . . . . . y > ! ! ! ! ! ! ! A . . . . . f S ! ! ! ! ! ! ! ! ! ! T * . . . . G H w . . ",
". . d x f . . . . . . . . . . L t . . . . . . . . . y > ! ! ! ! ! ! ! A . . . . G U ! ! ! ! ! ! ! ! ! ! V _ . . . . . G H w . . ",
". . d x f . . . . . . . . . _ W C X = . . . . . . . y > ! ! ! ! ! ! ! A . . . . Y Z ! ! ! ! ! ! ! ! ! ` u . . . . . . G H w . . ",
". . d x f . . . . . . . .  ...! ! +.@.G . . . . . . y > ! ! ! ! ! ! ! A . . . { #.! ! ! ! ! ! ! ! $.%.. . . . . . . . G H w . . ",
". . d x f . . . . . . . &.*.! ! ! ! ! =.-.;.5 5 >.P y > ! ! ! ! ! ! ! A . . _ ,.! ! ! ! ! ! ! ! ! '.a . . . . . . . . G H w . . ",
". . d x f . . . . . . * ).! ! ! ! ! ! ! ! !.~.{.l ].y > ! ! ! ! ! ! ! A . . ^.! ! ! ! ! ! ! ! ! /.(.* . . . . . . . . G H w . . ",
". . d x f . . . . . . . _.:.! ! ! ! ! ! ! ! ! ! C <.y > ! ! ! ! ! ! ! A * [.! ! ! ! ! ! ! ! ! ! }.|.. . . . . . . . . G H w . . ",
". . d x f . . . . . . . _ 1.! ! ! ! ! ! ! ! ! ! 2.3.y > ! ! ! ! ! ! ! A _ 4.! ! ! ! ! ! ! ! ! 5.6.. . . . . . . . . . G H w . . ",
". . d x f . . . . . . . . 7.8.! ! ! ! ! ! ! ! 9.0.5 a.> ! ! ! ! ! ! ! b.c.! ! ! ! ! ! ! ! ! d.e.. . . . . . . . . . . G H w . . ",
". . d x f . . . . . . . . . f.m $.! ! ! ! ! g.* h.i.y > ! ! ! ! ! ! ! b.! ! ! ! ! ! ! ! ! ! j.* . . . . . . . . . . . G H w . . ",
". . d x f . . . . . . . . . _ k.! ! ! ! ! l.t m.! a.y > ! ! ! ! ! ! ! ! +.! ! ! ! ! ! ! ! n._ . . . . . . . . . . . . G H w . . ",
". . d x f . . . . . . . . . . |.o.! ! ! =.p.k ! q.r.y > ! ! ! ! ! ! ! ! ! ! ! ! ! ! ! ! s.;.. . . . . . . . . . . . . G H w . . ",
". . d x f . . . . . . . . . . t.u.! ! , v.e ! w.6.. y > ! ! ! ! ! ! ! ! ! ! ! ! ! ! ! ! x._ . . . . . . . . . . . . . G H w . . ",
". . d x f . . . . . . . . . * y.! ! ! o z.! } _ . . y > ! ! ! ! ! ! ! ! ! ! ! ! ! ! ! ! ! F I . . . . . . . . . . . . G H w . . ",
". . d x f . . . . . . . . . _ A.$.! B.C.! D.= . . . y > ! ! ! ! ! ! ! E.! ! ! ! ! ! ! ! ! Z f . . . . . . . . . . . . G H w . . ",
". . d x f . . . . . . . . F.G./.! ! H.I.l I . . . . y > ! ! ! ! ! ! ! J.K.! ! ! ! ! ! ! ! ! L.f . . . . . . . . . . . G H w . . ",
". . d x f . . . * _ |.= M.N.m ! ! O. .P.Q._ . . . . y > ! ! ! ! ! ! ! R.S.T.! ! ! ! ! ! ! ! U.T . . . . . . . . . . . G H w . . ",
". . d x f . .  .V.W.X.Y.Z.! ! ! ! I.`.! a . . . . . y > ! ! ! ! ! ! ! A =  +! ! ! ! ! ! ! ! ! .+++. . . . . . . . . . G H w . . ",
". . d x f . . @+! ! ! ! ! ! ! ! ! k.#+m 6.. . . . . y > ! ! ! ! ! ! ! A . $+Q ! ! ! ! ! ! ! ! ! %+_ . . . . . . . . . G H w . . ",
". . d x f . &+*+! ! ! ! ! ! ! ! ! =+-+;+5 . . . . . y > ! ! ! ! ! ! ! A . . >+,+! ! ! ! ! ! ! ! +.'+I . . . . . . . . G H w . . ",
". . d x f . )+!+! ! ! ! ! ! ! ! ! ~+{+]+_ . . . . . y > ! ! ! ! ! ! ! A . . f ^+! ! ! ! ! ! ! ! ! ! * . . . . . . . . G H w . . ",
". . d x f . /+(+! ! ! ! ! ! ! ! ! _+:+<+= . . . . . y > ! ! ! ! ! ! ! A . . . t.[+! ! ! ! ! ! ! ! ! }+= . . . . . . . G H w . . ",
". . d x f . |+1+! ! ! ! ! ! ! ! ! 2+w.3+f . . . . . y > ! ! ! ! ! ! ! A . . . I 4+5+! ! ! ! ! ! ! ! ! 6+5 . . . . . . G H w . . ",
". . d x f . 7+8+9+! ! ! ! ! ! ! ! o.0+! 7.. . . . . y > ! ! ! ! ! ! ! A . . . . _ a+! ! ! ! ! ! ! ! ! ! b+_ . . . . . G H w . . ",
". . d x f . . * L 7.6.c+d+e+f+! ! g+h+i+j+. . . . . y > ! ! ! ! ! ! ! A . . . . . p.k+! ! ! ! ! ! ! ! $.l+|+. . . . . G H w . . ",
". . d x f . . . . . . * = = m+! ! ! $+n+o+= . . . . y > ! ! ! ! ! ! ! A . . . . . . p+3 ! ! ! ! ! ! ! ! ! q+t . . . . G H w . . ",
". . d x f . . . . . . . . . r+s+! ! t+u+v+w+. . . . y > ! ! ! ! ! ! ! A . . . . . . = o.! ! ! ! ! ! ! ! ! ! x+= . . . G H w . . ",
". . d x f . . . . . . . . . 5 y+! ! z+|+A+B+G . . . y > ! ! ! ! ! ! ! A . . . . . = f G C+! ! ! ! ! ! ! ! ! ! D+5 . . G H w . . ",
". . d x f . . . . . . . . . * F ! ! ! E+F+! H._ . . y > ! ! ! ! ! ! ! ' . . . . * G+H+* I+9+! ! ! ! ! ! J+K+L+M+* . . G H w . . ",
". . d x f . . . . . . . . . . 7.! ! ! ! N+O+! P+* . `.$.! ! Q+R+S+T+U+f.. . . ] V+W+X+~ _ Y+Z+! ! `+ @.@+@_ = * . . . G H w . . ",
". . d x f . . . . . . . . . _ ' ! ! ! ! ,+@@#@! $@_ %@&@*@a t u |._ * . . = =@-@;@>@! ! ,@* M+X.-.$+5 . . . . . . . . G H w . . ",
". . d x f . . . . . . . . . . '@! ! ! ! ! ,+)@!@~@{@=@6.* . . . . . . _ ] ]@l ^@/@$.! ! (@_@* 5 * . . . . . . . . . . G H w . . ",
". . d x f . . . . . . . . * :@+.! ! ! ! ! $.! <@_ [@l+}@|@1@)+w+2@i.3@]+4@5@6@E.! ! ! ! ! 7@. # 8@* . . . . . . . . . G H w . . ",
". . d x f . . . . . . . . L n ! ! ! ! ! ! ! ! ! (+9@= 0@a@'@b@c@d@e@f@g@h@i@s+! ! ! ! ! ! ! g.j@k k@. . . . . . . . . G H w . . ",
". . d x f . . . . . . . * l@! ! ! ! ! ! ! ! ! ! ! ! ! m@&@# n@o@p@# ) q@! ! ! ! ! ! ! ! ! ! ! ! ! T+5 . . . . . . . . G H w . . ",
". . d x f . . . . . . . b.! ! ! ! ! ! ! ! ! r@! ! ! ! ! ! ! Z s@,+! ! ! ! ! ! ! ! ! ! ! ! ! ! ! ! ! b.* . . . . . . . G H w . . ",
". . d x f . . . . . . * t@! ! ! ! ! ! ! R+u@G b.v@O.! ! ! ! ! ! ! ! ! ! ! U.e@w@x@y@1+! ! ! ! ! ! ! z@= . . . . . . . G H w . . ",
". . d x f . . . . . . . * B ! ! ! +.! A@= . . * = B@C@! ! ! ! ! ! ! ! D@E@J.5 _ * |.M.F@! ! ! ! ! G@G . . . . . . . . G H w . . ",
". . d x f . . . . . . . . 5 H@! ! 9.2@_ . . . . . . _ '@! ! ! ! ! ! ! E@. . . . . . . f I@:.! ! ` G . . . . . . . . . G H w . . ",
". . d x f . . . . . . . . . * J@K@k@* . . . . . . . _ L@! ! ! ! ! ! ! M@. . . . . . . . _ N@O@P@G . . . . . . . . . . G H w . . ",
". . d x f . . . . . . . . . . * _ . . . . . . . . . . t ! ! ! ! ! ! Q@'+. . . . . . . . . . = _ . . . . . . . . . . . G H w . . ",
". . d x f . . . . . . . . . . . . . . . . . . . . . . 7.R@! ! ! ! ! !.@ . . . . . . . . . . . . . . . . . . . . . . . G H w . . ",
". . d x f . . . . . . . . . . . . . . . . . . . . . . 5 E.! ! ! ! ! S@|.. . . . . . . . . . . . . . . . . . . . . . . G H w . . ",
". . d T@f . . . . . . . . . . . . . . . . . . . . . . * #+! ! ! ! ! U@= . . . . . . . . . . . . . . . . . . . . . . . G H w . . ",
". . d h f . . . . . . . . . . . . . . . . . . . . . . . V@Z O.O.O.! O@_ . . . . . . . . . . . . . . . . . . . . . . . f W@w . . ",
". . 2 3 4 . . . . . . . . . . . . . . . . . . . . . . . X@Y@Z@Z@Z@`@. . . . . . . . . . . . . . . . . . . . . . . . . a m  #. . ",
". . .#Q@^._ . . . . . . . . . . . . . . . . . . . . . . . . . . . . . . . . . . . . . . . . . . . . . . . . . . . . _ +#Q+7 . . ",
"  . * #+! @###] ] ] ] ] ] ] ] ] ] ] ] ] ] ] ] ] ] ] ] ] ] ] ] ] ] ] ] ] ] ] ] ] ] ] ] ] ] ] ] ] ] ] ] ] ] ] ] ] ] $+$#! H@_ .   ",
"  . . 5 - l+! %#&#&#&#&#&#&#&#&#&#&#&#&#&#&#&#&#&#&#&#&#&#&#&#&#&#&#&#&#&#&#&#&#&#&#&#&#&#&#&#&#&#&#&#&#&#&#&#&#%#! *#=#|.. .   ",
"    . . _ -#;#>#>#>#>#>#>#>#>#>#>#>#>#>#>#>#>#>#>#>#>#>#>#>#>#>#>#>#>#>#>#>#>#>#>#>#>#>#>#>#>#>#>#>#>#>#>#>#>#>#>##@-#_ . .     ",
"      . . . . . . . . . . . . . . . . . . . . . . . . . . . . . . . . . . . . . . . . . . . . . . . . . . . . . . . . . .       ",
"          . . . . . . . . . . . . . . . . . . . . . . . . . . . . . . . . . . . . . . . . . . . . . . . . . . . . . .           "};
