/* XPM */
static const char * kde_xpm[] = {
"48 48 362 2",
"  	c None",
". 	c #0068C6",
"+ 	c #0065C4",
"@ 	c #0065C5",
"# 	c #0A6CC7",
"$ 	c #0B6CC7",
"% 	c #0062C4",
"& 	c #3D8CD3",
"* 	c #EAF3FB",
"= 	c #E4EFF9",
"- 	c #E3EFF9",
"; 	c #3B8BD3",
"> 	c #4591D5",
", 	c #0664C4",
"' 	c #0054BF",
") 	c #0056BF",
"! 	c #0055BF",
"~ 	c #0663C4",
"{ 	c #E5F0F9",
"] 	c #438FD5",
"^ 	c #0369C6",
"/ 	c #F3F9FD",
"( 	c #005CC2",
"_ 	c #0066C5",
": 	c #0069C6",
"< 	c #0061C3",
"[ 	c #005FC3",
"} 	c #0060C3",
"| 	c #026AC7",
"1 	c #0067C6",
"2 	c #0069C7",
"3 	c #F4F9FD",
"4 	c #046AC7",
"5 	c #1675CB",
"6 	c #C1DBF2",
"7 	c #005BC1",
"8 	c #0269C6",
"9 	c #93BFE7",
"0 	c #AECFED",
"a 	c #B2D1ED",
"b 	c #C2DBF1",
"c 	c #E2EEF9",
"d 	c #4792D5",
"e 	c #247BCD",
"f 	c #ACCEED",
"g 	c #9CC4E8",
"h 	c #116BC7",
"i 	c #0055BE",
"j 	c #0064C4",
"k 	c #005BC2",
"l 	c #9FC6E9",
"m 	c #1471C9",
"n 	c #1776CB",
"o 	c #B8D5EF",
"p 	c #DDEAF8",
"q 	c #FFFFFF",
"r 	c #4F98D8",
"s 	c #0C6EC9",
"t 	c #BDD8F0",
"u 	c #71AADF",
"v 	c #448FD5",
"w 	c #1B76CB",
"x 	c #0067C5",
"y 	c #005EC2",
"z 	c #94C0E7",
"A 	c #1471CA",
"B 	c #046AC6",
"C 	c #D9E9F7",
"D 	c #005DC1",
"E 	c #ABCDEC",
"F 	c #80B3E2",
"G 	c #95C0E7",
"H 	c #DAE9F7",
"I 	c #98C1E8",
"J 	c #A4CAEB",
"K 	c #4D93D6",
"L 	c #F7FBFD",
"M 	c #D4E5F5",
"N 	c #0167C6",
"O 	c #3D89D2",
"P 	c #71A3DC",
"Q 	c #1B75CB",
"R 	c #ECF4FB",
"S 	c #1972CA",
"T 	c #0064C5",
"U 	c #3D84D1",
"V 	c #EBF3FA",
"W 	c #C4DCF2",
"X 	c #0567C5",
"Y 	c #0169C7",
"Z 	c #004DBC",
"` 	c #E1EEF8",
" .	c #2C82D0",
"..	c #227BCD",
"+.	c #F0F7FC",
"@.	c #F1F6FC",
"#.	c #3A8AD3",
"$.	c #1371CA",
"%.	c #1570CA",
"&.	c #267ECF",
"*.	c #086BC7",
"=.	c #FEFFFF",
"-.	c #639CDA",
";.	c #5296D8",
">.	c #E8F1FA",
",.	c #DDEBF7",
"'.	c #0B6CC8",
").	c #418ED4",
"!.	c #F8FBFE",
"~.	c #0063C4",
"{.	c #0E6EC8",
"].	c #BFDAF1",
"^.	c #E9F2FB",
"/.	c #0B6DC8",
"(.	c #5099D8",
"_.	c #DFEDF8",
":.	c #A9CDEC",
"<.	c #0564C4",
"[.	c #3883D0",
"}.	c #F1F7FC",
"|.	c #CFE2F4",
"1.	c #5198D8",
"2.	c #4490D5",
"3.	c #86B7E4",
"4.	c #217BCD",
"5.	c #76ADE0",
"6.	c #9FC2E8",
"7.	c #3887D3",
"8.	c #87B8E4",
"9.	c #0F6FC9",
"0.	c #9EC5E9",
"a.	c #FCFDFE",
"b.	c #569AD9",
"c.	c #89B9E5",
"d.	c #C6DCF2",
"e.	c #4B89D2",
"f.	c #9DC6EA",
"g.	c #BCD6F0",
"h.	c #005EC3",
"i.	c #C3DCF2",
"j.	c #E7F2FA",
"k.	c #045CC1",
"l.	c #F8FCFE",
"m.	c #539AD8",
"n.	c #005AC1",
"o.	c #A7C9EB",
"p.	c #70AADF",
"q.	c #1870C8",
"r.	c #A8CDEC",
"s.	c #64A2DC",
"t.	c #CDE1F4",
"u.	c #F7FAFD",
"v.	c #3988D2",
"w.	c #D9E8F7",
"x.	c #9BC5E9",
"y.	c #73AAE0",
"z.	c #D3E6F5",
"A.	c #4691D5",
"B.	c #CEE1F4",
"C.	c #0D6AC7",
"D.	c #0168C6",
"E.	c #0C6CC7",
"F.	c #1672CA",
"G.	c #2D82D0",
"H.	c #A0C7EA",
"I.	c #699EDB",
"J.	c #CEE1F3",
"K.	c #4590D5",
"L.	c #5098D8",
"M.	c #277DCF",
"N.	c #FDFEFF",
"O.	c #63A2DD",
"P.	c #619AD9",
"Q.	c #C0D9F1",
"R.	c #EDF4FB",
"S.	c #3486D2",
"T.	c #F1F8FC",
"U.	c #0051BD",
"V.	c #8FB8E4",
"W.	c #3D82D0",
"X.	c #C5DDF2",
"Y.	c #E5EFF9",
"Z.	c #2E80CF",
"`.	c #97C3E8",
" +	c #0E6FC9",
".+	c #3685D1",
"++	c #6AA7DE",
"@+	c #62A0DA",
"#+	c #93BEE7",
"$+	c #D1E4F5",
"%+	c #2F80CF",
"&+	c #8CBBE6",
"*+	c #0169C6",
"=+	c #95BDE6",
"-+	c #408ED4",
";+	c #3184D1",
">+	c #EDF5FB",
",+	c #DDECF8",
"'+	c #FBFDFE",
")+	c #1A75CB",
"!+	c #0066C6",
"~+	c #005AC0",
"{+	c #0A6EC8",
"]+	c #8CBAE5",
"^+	c #B9D5EF",
"/+	c #F8FBFD",
"(+	c #65A2DC",
"_+	c #E2EEF8",
":+	c #0466C6",
"<+	c #5691D6",
"[+	c #F9FCFE",
"}+	c #076BC7",
"|+	c #D9E8F6",
"1+	c #A4C5E9",
"2+	c #73AADF",
"3+	c #B2CDEC",
"4+	c #0166C5",
"5+	c #ACCCEC",
"6+	c #1B78CC",
"7+	c #B2D1EE",
"8+	c #3283D0",
"9+	c #0163C4",
"0+	c #A5CBEB",
"a+	c #8AB8E4",
"b+	c #0061C4",
"c+	c #0569C7",
"d+	c #9BC3E9",
"e+	c #287ECF",
"f+	c #ADCFED",
"g+	c #DDEBF8",
"h+	c #F2F7FC",
"i+	c #F6FAFD",
"j+	c #4A94D6",
"k+	c #1876CC",
"l+	c #559AD9",
"m+	c #0C6FC9",
"n+	c #1070C9",
"o+	c #DEEBF7",
"p+	c #FAFCFE",
"q+	c #EBF2FA",
"r+	c #CADFF3",
"s+	c #1977CB",
"t+	c #96C0E7",
"u+	c #4F96D8",
"v+	c #A8CCEC",
"w+	c #086CC7",
"x+	c #89B8E4",
"y+	c #7FABDF",
"z+	c #619CD9",
"A+	c #3B89D3",
"B+	c #1F79CD",
"C+	c #438AD2",
"D+	c #75ADE0",
"E+	c #B1D1EE",
"F+	c #005CC1",
"G+	c #CFE2F5",
"H+	c #92BEE6",
"I+	c #5D99D9",
"J+	c #1773CA",
"K+	c #98C2E8",
"L+	c #2376CC",
"M+	c #D9EAF8",
"N+	c #579AD9",
"O+	c #005DC2",
"P+	c #A0C8EA",
"Q+	c #448CD4",
"R+	c #569CDA",
"S+	c #A7CAEB",
"T+	c #0E6DC8",
"U+	c #2078CC",
"V+	c #EEF4FB",
"W+	c #1271C9",
"X+	c #9FC6EA",
"Y+	c #3F8CD3",
"Z+	c #2E82D0",
"`+	c #257ECE",
" @	c #2A80CF",
".@	c #3C89D2",
"+@	c #5B9DDA",
"@@	c #478CD3",
"#@	c #84B5E3",
"$@	c #549AD9",
"%@	c #3A88D2",
"&@	c #066BC7",
"*@	c #B9D3EE",
"=@	c #F3F8FC",
"-@	c #8BBAE5",
";@	c #4B90D5",
">@	c #5299D8",
",@	c #70A7DE",
"'@	c #72A9DE",
")@	c #67A5DD",
"!@	c #5397D8",
"~@	c #80B3E3",
"{@	c #D9E9F6",
"]@	c #076BC8",
"^@	c #4691D6",
"/@	c #CAE0F3",
"(@	c #E6F0F9",
"_@	c #DDEAF7",
":@	c #D1E3F5",
"<@	c #8ABAE5",
"[@	c #0268C6",
"}@	c #4D96D7",
"|@	c #F3F7FC",
"1@	c #8DBBE5",
"2@	c #0059C0",
"3@	c #1272CA",
"4@	c #C3DAF1",
"5@	c #EAF2FA",
"6@	c #FEFEFF",
"7@	c #CEE2F4",
"8@	c #6AA6DE",
"9@	c #1977CC",
"0@	c #B6D4EE",
"a@	c #EFF5FB",
"b@	c #CBE0F3",
"c@	c #116FC9",
"d@	c #5F9FDB",
"e@	c #C8DEF3",
"f@	c #2F82D0",
"g@	c #1071C9",
"h@	c #D2E4F5",
"i@	c #7BB0E1",
"j@	c #056BC7",
"k@	c #B0D0EE",
"l@	c #BCD8F0",
"m@	c #0467C5",
"n@	c #579CD9",
"o@	c #096DC8",
"p@	c #5499D9",
"q@	c #4F97D8",
"r@	c #096CC7",
"s@	c #62A2DC",
"t@	c #78AFE1",
"u@	c #0969C6",
"v@	c #004EBC",
"w@	c #3889D2",
"x@	c #C0DAF1",
"y@	c #F3F8FD",
"z@	c #1874CB",
"A@	c #65A4DD",
"B@	c #F2F8FC",
"C@	c #1873CA",
"D@	c #C0DBF2",
"E@	c #3984D0",
"F@	c #E9F2FA",
"G@	c #E1EDF8",
"H@	c #E3EEF9",
"I@	c #A8CCEB",
"J@	c #9EC6E9",
"K@	c #0469C6",
"L@	c #F4F9FC",
"M@	c #076AC7",
"N@	c #086AC7",
"O@	c #056AC7",
"P@	c #4792D6",
"Q@	c #0664C5",
"R@	c #DEEDF8",
"S@	c #D9EAF7",
"T@	c #4992D6",
"U@	c #0C6EC8",
"        . . . . . . . . . . . . . . . . . . . . . . . . . . . . . . . . . . . . . . . .         ",
"    . + @ # $ $ $ $ $ $ $ $ $ $ $ $ $ $ $ $ $ $ $ $ $ $ $ $ $ $ $ $ $ $ $ $ $ $ $ $ # @ @ .     ",
"  . % & * = - - - - - - - - - - - - - - - - - - - - - - - - - - - - - - - - - - - - = * ; % .   ",
"  + > = , ' ) ) ) ) ) ) ) ) ) ) ) ) ) ) ) ) ) ) ) ! ) ) ) ) ) ) ) ) ) ) ) ) ) ) ) ) ' ~ { ] @   ",
". ^ / ( _ : : : : : : : : : : : : : : : < [ [ } @ | | : : : : : : : 1 } } 1 2 : : : : _ } 3 4 . ",
". 5 6 7 . . . . . . . . . . . . . . . 8 9 0 0 a b c d _ . . . . . _ e f g h i j 1 . . . k l m . ",
". n o ( . . . . . . . . . . . . . . . 4 p q q q q q r _ . . . . . s t q q q q u v w x . y z A . ",
". n o ( . . . . . . . . . . . . . . . B C q q q q q r _ . . . . D E q q q q q q q F < : y G A . ",
". n o ( . . . . . . . . . . . . . . . B H q q q q q r _ . . . < I q q q q q q q J 4 . . y G A . ",
". n o ( . . . . . . . _ @ . . . . . . B H q q q q q r _ . . _ K L q q q q q q M N . . . y G A . ",
". n o ( . . . . . . % O P j 1 . . . . B H q q q q q r _ . : Q R q q q q q q - S @ . . . y G A . ",
". n o ( . . . . . T U V q W X 1 . . 1 B H q q q q q r _ Y Z ` q q q q q q q  ._ . . . . y G A . ",
". n o ( . . . . . ..+.q q q @.#.$.%.&.*.C q q q q q r _ } a q q q q q q =.-.j . . . . . y G A . ",
". n o ( . . . . _ ;.q q q q q q = >.,.'.C q q q q q r T ).!.q q q q =.q E ~.. . . . . . y G A . ",
". n o ( . . . . . {.].q q q q q q q ^./.C q q q q q (./._.q q q q q q :.<.1 . . . . . . y G A . ",
". n o ( . . . . . _ [.}.q q q q q |.1.T H q q q q q 2.3.q q q q q q }.4.. . . . . . . . y G A . ",
". n o ( . . . . . . < 5.q =.q q 6.7.8.9.C q q q q q 0.q =.q q q q a.b.@ . . . . . . . . y G A . ",
". n o ( . . . . . . . ~.c.q q d.e.a.f._ C q q q q q q q q q q q q g.j . . . . . . . . . y G A . ",
". n o ( . . . . . . . h.i.q j.k.l.m.n.4 H q q q q q q q q q q q q o.< . . . . . . . . . y G A . ",
". n o ( . . . . . . % p.q q q.r.s.j . B H q q q q q t.q q q q q q u.v._ . . . . . . . . y G A . ",
". n o ( . . . . . 1 } w.q x.y.z.% . . B H q q q q q A.0 q q q q q q B.C.. . . . . . . . y G A . ",
". n o ( : @ D.E.F.G.H.q q I.J.K.j . . B H q q q q q L.M.N.q q q q q q O.% . . . . . . . y G A . ",
". n o ( T P.9 Q.R.q q q R.S.T.U.: . . B H q q q q q r T V.q q q q q q q W.T . . . . . . y G A . ",
". n o ( j X.q q q q q q Y.Z.`.[ . . . B H q q q q q r @  +Y.q q q q q q H + . . . . . . y G A . ",
". n o ( @ i.q q q q q q Y..+++~.. . . B H q q q q q r _ } @+q q q q q q q #+1 . . . . . y G A . ",
". n o ( @ $+q q q q q q Y.%+&+[ . . . B H q q q q q r _ *+( =+q q q q q q q ).~.. . . . y G A . ",
". n o ( _ -+- q q q q q V ;+>+) : . . B H q q q q q r _ . . m ,+q q q q q q '+)+@ . . . y G A . ",
". n o ( : !+~+! {+]+^+/+q (+_+:+1 . . B H q q q q q r _ . . j <+[+q q q q q q ,.}+1 . . y G A . ",
". n o ( . . . : 1 } } |+q 1+2+X.y . . B H q q q q q r _ . . . % z q =.q q q q q 3+4+: . y G A . ",
". n o ( . . . . . . [ 5+q q 6+7+8+x . B H q q q q q r _ . . 1 } 9+0+q q q q q q q a+b+: y G A . ",
". n o ( . . . . . . 1 c+q q d+e+f+*.1 B g+q q '+h+i+j+_ . @ k+l+m+n+o+q q p+q+r+#+s+1 . y G A . ",
". n o ( . . . . . . 1 ~.q =.q t+u+v+w+j z x+y+z+A+B+4 . [ C+D+s.E+F+S.G+H+I+J+j } _ . . y G A . ",
". n o ( . . . . . . } K+q q q N.c.L+M+N+y @ j @ _ _ j O+P+Q+R+N.q S+< T+1 @ . . . . . . y G A . ",
". n o ( . . . . . 1 U+V+q q q q q x.W+0 X+Y+Z+`+ @.@+@X.@@#@q =.q u.$@%@G.@ . . . . . . y G A . ",
". n o ( . . . . . &@*@q q q q q q q =@-@;@>@2+,@'@)@!@~@= q q q q q =.q {@]@1 . . . . . y G A . ",
". n o ( . . . . x ^@q q q q q q /@a.q q =@(@_@:@|+Y.}.q q q q q q q q q q <@[@. . . . . y G A . ",
". n o ( . . . . @ }@q q q q |@1@2@3@4@5@6@q q q q q u.(@7@8@9@0@a@q q q q b@c@. . . . . y G A . ",
". n o ( . . . . . !+d@q q e@f@[ *+!+} g@h@q q q q q i@j@@ % _ [ .+k@q q l@m@1 . . . . . y G A . ",
". n o ( . . . . . . _ n@)@o@1 . . . . % p@q q q q q q@_ . . . . _ r@s@t@u@1 . . . . . . y G A . ",
". n o ( . . . . . . . @ j . . . . . . : v@q q q q q w@1 . . . . . . T ~.: . . . . . . . y G A . ",
". n o ( . . . . . . . . . . . . . . . . F+x@q q q y@z@. . . . . . . . . . . . . . . . . y G A . ",
". n ^+( . . . . . . . . . . . . . . . . T A@q q q B@C@. . . . . . . . . . . . . . . . . y G A . ",
". 5 D@7 . . . . . . . . . . . . . . . . 1 E@F@G@H@I@# . . . . . . . . . . . . . . . . . k J@m . ",
". K@L@O+x : : : : : : : : : : : : : : : : . M@M@N@. . : : : : : : : : : : : : : : : : _ } =@O@. ",
"  @ P@= <.! ) ) ) ) ) ) ) ) ) ) ) ) ) ) ) ) ) ) ) ) ) ) ) ) ) ) ) ) ) ) ) ) ) ) ) ) ! Q@- l+j   ",
"  . b+& y@R@S@S@S@S@S@S@S@S@S@S@S@S@S@S@S@S@S@S@S@S@S@S@S@S@S@S@S@S@S@S@S@S@S@S@S@S@R@|@T@} .   ",
"    . T . U@U@U@U@U@U@U@U@U@U@U@U@U@U@U@U@U@U@U@U@U@U@U@U@U@U@U@U@U@U@U@U@U@U@U@U@U@U@. j .     ",
"        . . . . . . . . . . . . . . . . . . . . . . . . . . . . . . . . . . . . . . . .         "};
