/* XPM */
static const char * lxde_xpm[] = {
"64 64 153 2",
"  	c None",
". 	c #0068C8",
"+ 	c #086DCA",
"@ 	c #6BA8E0",
"# 	c #5A9DDC",
"$ 	c #0064C7",
"% 	c #FFFFFF",
"& 	c #D6E7F7",
"* 	c #1C79CE",
"= 	c #0066C7",
"- 	c #E1EDF9",
"; 	c #3085D3",
"> 	c #0063C6",
", 	c #84B6E5",
"' 	c #0060C5",
") 	c #63A3DD",
"! 	c #0065C7",
"~ 	c #FEFEFF",
"{ 	c #E1EEF8",
"] 	c #9AC4E9",
"^ 	c #B3D2EF",
"/ 	c #EAF3FB",
"( 	c #FDFEFF",
"_ 	c #0067C8",
": 	c #FCFDFE",
"< 	c #0C6FCA",
"[ 	c #0A6ECA",
"} 	c #88B8E5",
"| 	c #FBFDFE",
"1 	c #ACCEEE",
"2 	c #005DC4",
"3 	c #4D96D9",
"4 	c #DCEAF8",
"5 	c #EAF2FB",
"6 	c #C9DFF3",
"7 	c #A7CBEC",
"8 	c #94BFE8",
"9 	c #CBE0F4",
"0 	c #066BC9",
"a 	c #0168C8",
"b 	c #3A8BD5",
"c 	c #DFECF8",
"d 	c #F6FAFD",
"e 	c #E9F2FA",
"f 	c #B5D3EF",
"g 	c #85B7E5",
"h 	c #5399DA",
"i 	c #237DD0",
"j 	c #0059C3",
"k 	c #C6DEF3",
"l 	c #1876CD",
"m 	c #0062C6",
"n 	c #4691D7",
"o 	c #F2F7FC",
"p 	c #3688D4",
"q 	c #C1DAF2",
"r 	c #77AFE2",
"s 	c #4490D7",
"t 	c #1A78CE",
"u 	c #E2EEF9",
"v 	c #3286D3",
"w 	c #66A5DE",
"x 	c #1D79CE",
"y 	c #81B4E4",
"z 	c #4893D8",
"A 	c #1E79CE",
"B 	c #0269C8",
"C 	c #FDFDFE",
"D 	c #559ADA",
"E 	c #0B6ECA",
"F 	c #9FC6EA",
"G 	c #0369C9",
"H 	c #096DCA",
"I 	c #DDEBF8",
"J 	c #076CCA",
"K 	c #2C82D1",
"L 	c #BDD8F1",
"M 	c #B3D3EF",
"N 	c #1B78CE",
"O 	c #69A7DF",
"P 	c #CEE2F5",
"Q 	c #2E83D2",
"R 	c #408ED6",
"S 	c #0064C6",
"T 	c #217BCF",
"U 	c #DFEDF9",
"V 	c #3688D3",
"W 	c #73ACE1",
"X 	c #60A1DD",
"Y 	c #FAFCFE",
"Z 	c #ECF4FB",
"` 	c #4F97D9",
" .	c #A8CCED",
"..	c #1775CD",
"+.	c #6DA8E0",
"@.	c #D3E5F6",
"#.	c #227CCF",
"$.	c #0061C5",
"%.	c #65A4DE",
"&.	c #F2F8FC",
"*.	c #8EBCE7",
"=.	c #056BC9",
"-.	c #F5F9FD",
";.	c #5097D9",
">.	c #1072CC",
",.	c #C2DBF2",
"'.	c #AFD0EE",
").	c #0E71CB",
"!.	c #82B5E4",
"~.	c #74ADE1",
"{.	c #D2E5F6",
"].	c #1977CE",
"^.	c #BCD8F0",
"/.	c #1172CC",
"(.	c #DCEAF7",
"_.	c #F1F7FC",
":.	c #2880D1",
"<.	c #F0F6FC",
"[.	c #207BCF",
"}.	c #0067C7",
"|.	c #8DBCE6",
"1.	c #418ED7",
"2.	c #1F7ACF",
"3.	c #F3F8FD",
"4.	c #6CA8E0",
"5.	c #91BEE7",
"6.	c #AFCFED",
"7.	c #9EC5EB",
"8.	c #036AC9",
"9.	c #D1E4F5",
"0.	c #1A78CD",
"a.	c #3E8CD6",
"b.	c #3588D4",
"c.	c #046BC9",
"d.	c #F4F8FD",
"e.	c #4591D7",
"f.	c #DAE9F7",
"g.	c #FEFFFF",
"h.	c #7FB3E3",
"i.	c #6BA8DF",
"j.	c #B7D5F0",
"k.	c #1A77CE",
"l.	c #1373CC",
"m.	c #F9FBFE",
"n.	c #3E8DD6",
"o.	c #A8CBED",
"p.	c #3F8ED6",
"q.	c #5FA1DD",
"r.	c #A0C7EB",
"s.	c #0F71CB",
"t.	c #005CC4",
"u.	c #066CC9",
"v.	c #B6D4F0",
"                                                                                                                                ",
"                                                        . . . . . . . .                                                         ",
"                                              . . . . . . . . . . . . . . . . . .                                               ",
"                                        . . . . . . . . . . . . . . . . . . . . . . . .                                         ",
"                                    . . . . . . . . . . . . . . . . . . . . . . . . . . . .                                     ",
"                                . . . . . . . . . . . . . . . . . . . . . . . . . . . . . . . .                                 ",
"                              . . . . . . . . . . . . . . . . . . . . . . . . . . . . . . . . . .                               ",
"                          . . . . . . . . . . . . . . . . . . . . . . . . . . . . . . . . . . . . . .                           ",
"                        . . . . . . . . . . . . . . . . . . . . . . . . . . .   . . . . . . . . . . . .                         ",
"                      . . . . . . . . . . . . . . . . . . . . . . . . .       . . . . . . . . . . . . . .                       ",
"                    . . . . . . . . . . . . . . . . . . . . . . . .           + . . . . . . . . . . . . . .                     ",
"                  . . . . . . . . . . . . . . . . . . . . . . . .           @ # $ . . . . . . . . . . . . . .                   ",
"                . . . . . . . . . . . . . . . . . . . . . .             % % & * = . . . . . . . . . . . . . . .                 ",
"              . . . . . . . . . . . . . . . . . . . . .             % % % - ; > . . . . . . . . . . . . . . . . .               ",
"              . . . . . . . . . . . . . . . . . . .             % % % % % , ' . . . . . . . . . . . . . . . . . .               ",
"            . . . . . . . . . . . . . . . . . .           % % % % % % % % ) ! . . . . . . . . . . . . . . . . . . .             ",
"          . . . . . . . . . . . . . . . . . .         % % % % % % % % % %   = . . . . . . . . . . . . . . . . . . . .           ",
"          . . . . . . . . . . . . . . . .           % % % % % % % % % % %     . . . . . . . . . . . . . . . . . . . .           ",
"        . . . . . . . . . . . . . . .           % % % % % % % % % % % % %       . . . . . . . . . . . . . . . . . . . .         ",
"        . . . . . . . . . . . . . .         % % % % % % % % % % % % % % % %       . . . . . . . . . . . . . . . . . . .         ",
"      . . . . . . . . . . . . .           % % % % % % % % % % % % % % % % % %       . . . . . . . . . . . . . . . . . . .       ",
"      . . . . . . . . . . . .         % % % % % % % % % % % % % % % % % % % % %     . . . . . . . . . . . . . . . . . . .       ",
"      . . . . . . . . . .           % % % % % % % % % % % % % % % % % % % % % % %     . . . . . . . . . . . . . . . . . .       ",
"    . . . . . . . . . .         % % % % % % % % % % % % % % % % % % % % % % % % %     . . . . . . . . . . . . . . . . . . .     ",
"    . . . . . . . .           % % % % % % % % % % % % % % % % % % % % % % % % % % %     . . . . . . . . . . . . . . . . . .     ",
"    . . . . . . .         % % % % % % % % % % % % % % % % % % % % % % % % % % % % %     . . . . . . . . . . . . . . . . . .     ",
"    . . . . .           % % % % % % % % % % % % % % % % % % % % % % % % % % % % % % %     . . . . . . . . . . . . . . . . .     ",
"    . . . .         % % % % % % % % % % % % % % % % % % % % % % % % % % % % % % % % %     . . . . . . . . . . . . . . . . .     ",
"  . . .           % % % % % % % % % % % % % % % % % % % % ~ { ] ^ / ( % % % % % % % % %   _ . . . . . . . . . . . . . . . . .   ",
"  . .         % % % % % % % % % % % % % % % % % % % % % : ^ < ' ' [ } / % % % % % % % %     . . . . . . . . . . . . . . . . .   ",
"            % % % % % % % | | % % % % % % % % % % % % % 1 _ = . . _ 2 3 4 % % % % % % % %   . . . . . . . . . . . . . . . . .   ",
"        % % % % % % 5 6 7 8 9 % % % % % % % % % % % % ^ 0 = . . . . a ' b c % % % % % % %   . . . . . . . . . . . . . . . . .   ",
"      d % % % e f g h i = j   % % % % % % % % % % % k l = . . . . . . . m n o % % % % % %     . . . . . . . . . . . . . . . .   ",
"  = p % % q r s t $ > ! _     % % % % % % % % % % u v _ . . . . . . . . . = w % % % % % % %   . . . . . . . . . . . . . . . .   ",
"  _ x y z A B ! = . . .     % % % % %   % % % % C D . . . . . . . . . . . . E F % % % % % %   _ . . . . . . . . . . . . . . .   ",
"  . G H . _ . . . . . .     % % % I     % % % % y J . . . . . . . . . . . . _ K - % % % % %     . . . . . . . . . . . . . . .   ",
"    . . . . . . . . .     % % % L     % % % % M N _ . . . . . . . . . . . . . B O % % % % % %   . . . . . . . . . . . . . .     ",
"    . . . . . . . .       % % P Q   % % % % I R S . . . . . . . . . . . . . . = T L % % % % %   _ . . . . . . . . . . . . .     ",
"    . . . . . . . .     % % U V     % % % d W m . . . . . . . . . . . . . . . . S X Y % % % %     . . . . . . . . . . . . .     ",
"    . . . . . . .     % % Z ` '   % % % %  .B _ . . . . . . . . . . . . . . . . = ..f % % % % %   . . . . . . . . . . . . .     ",
"    . . . . . .       % d +.=     % % % @.#.S . . . . . . . . . . . . . . . . . . $.%.&.% % % %   . . . . . . . . . . . . .     ",
"      . . . . .     % ( *.=.    % % % -.;.' . . . . . . . . . . . . . . . . . . . = >.,.% % % %   = . . . . . . . . . . .       ",
"      . . . .     % % '.).>   % % % % !.> . . . . . . . . . . . . . . . . . . . . . ' ~.-.% % %     . . . . . . . . . . .       ",
"      . . .     % % {.].S     % % % ^.+ _ . . . . . . . . . . . . . . . . . . . . . = /.(.% % %     . . . . . . . . . . .       ",
"        . a     % _.:.! !   % % % <.[.}.. . . . . . . . . . . . . . . . . . . . . . . $.|.Y % % %   . . . . . . . . . .         ",
"              % % 1.}..     % % % 3 . . . . . . . . . . . . . . . . . . . . . . . . . = 2.3.% % %   = . . . . . . . . .         ",
"            d % 4.. .     % % % 5.+ . . . . . . . . . . . . . . . . . . . . . . . . . . ' 6.% % %   m . . . . . . . .           ",
"            ,.7.8.. .   % % % 9.0._ . . . . . . . . . . . . . . . . . . . . . . . . . . ! a.~ % %     . . . . . . . .           ",
"            b.c.. .     % % d.e._ . . . . . . . . . . . . . . . . . . . . . . . . . . . . m f.% %     . . . . . . .             ",
"              _ . .   g.% % h.=._ . . . . . . . . . . . . . . . . . . . . . . . . . . . . ! i.% % %   . . . . . .               ",
"              . .     % % j.k.! . . . . . . . . . . . . . . . . . . . . . . . . . . . . . _ l.m.% %   }.. . . . .               ",
"                    % % u n.> . . . . . . . . . . . . . . . . . . . . . . . . . . . . . . . = o.% %   $ . . . .                 ",
"                    % m.~.! . . . . . . . . . . . . . . . . . . . . . . . . . . . . . . . . . p.% %   $.. . .                   ",
"                    q.r.=.}.. . . . . . . . . . . . . . . . . . . . . . . . . . . . . . . . . s.c %   t.. .                     ",
"                      s._ . . . . . . . . . . . . . . . . . . . . . . . . . . . . . . . . . . u.} %     .                       ",
"                        . . . . . . . . . . . . . . . . . . . . . . . . . . . . . . . . . . . . p % %                           ",
"                          . . . . . . . . . . . . . . . . . . . . . . . . . . . . . . . . . . . N v.                            ",
"                              . . . . . . . . . . . . . . . . . . . . . . . . . . . . . . . . . .                               ",
"                                . . . . . . . . . . . . . . . . . . . . . . . . . . . . . . . .                                 ",
"                                    . . . . . . . . . . . . . . . . . . . . . . . . . . . .                                     ",
"                                        . . . . . . . . . . . . . . . . . . . . . . . .                                         ",
"                                              . . . . . . . . . . . . . . . . . .                                               ",
"                                                        . . . . . . . .                                                         ",
"                                                                                                                                "};
