/* XPM */
static const char * lxde_xpm[] = {
"48 48 130 2",
"  	c None",
". 	c #0068C8",
"+ 	c #0067C8",
"@ 	c #5B9EDC",
"# 	c #0062C6",
"$ 	c #FFFFFF",
"% 	c #EEF5FC",
"& 	c #2B81D1",
"* 	c #0066C7",
"= 	c #F8FBFE",
"- 	c #5C9CDC",
"; 	c #0064C6",
"> 	c #EDF4FB",
", 	c #2B80D0",
"' 	c #FDFEFF",
") 	c #E2EEF9",
"! 	c #88B8E5",
"~ 	c #A0C6EB",
"{ 	c #CDE1F4",
"] 	c #1E79CE",
"^ 	c #005EC4",
"/ 	c #005DC4",
"( 	c #1470CB",
"_ 	c #8FBDE7",
": 	c #FEFEFF",
"< 	c #DEEBF8",
"[ 	c #B7D5F0",
"} 	c #B9D6F0",
"| 	c #FAFCFE",
"1 	c #D6E7F7",
"2 	c #0C6FCA",
"3 	c #0065C7",
"4 	c #0262C6",
"5 	c #67A6DF",
"6 	c #F5F9FD",
"7 	c #F6FAFD",
"8 	c #DBEAF7",
"9 	c #96C1E8",
"0 	c #579BDB",
"a 	c #1C78CE",
"b 	c #207BCF",
"c 	c #0069C8",
"d 	c #0163C6",
"e 	c #8DBBE6",
"f 	c #FEFFFF",
"g 	c #0C6ECA",
"h 	c #B7D4EF",
"i 	c #A0C7EB",
"j 	c #4F97D9",
"k 	c #1C77CE",
"l 	c #0168C8",
"m 	c #0061C5",
"n 	c #FBFCFE",
"o 	c #5299DA",
"p 	c #0B6ECA",
"q 	c #C0DAF1",
"r 	c #0269C9",
"s 	c #1674CD",
"t 	c #056BC9",
"u 	c #E1EDF9",
"v 	c #7FB3E4",
"w 	c #2A81D1",
"x 	c #B5D4EF",
"y 	c #076CC9",
"z 	c #72ACE1",
"A 	c #0269C8",
"B 	c #93C0E8",
"C 	c #DFEDF8",
"D 	c #2B7FD0",
"E 	c #0067C7",
"F 	c #1B76CD",
"G 	c #D0E4F5",
"H 	c #0268C8",
"I 	c #B3D3EF",
"J 	c #0D6AC8",
"K 	c #FBFDFE",
"L 	c #60A1DD",
"M 	c #0066C8",
"N 	c #0267C7",
"O 	c #6FAAE0",
"P 	c #D9E8F7",
"Q 	c #217ACF",
"R 	c #AACCED",
"S 	c #2178CE",
"T 	c #DAEAF7",
"U 	c #ECF4FB",
"V 	c #3588D4",
"W 	c #D4E6F6",
"X 	c #126FCB",
"Y 	c #0064C7",
"Z 	c #0060C5",
"` 	c #86B7E5",
" .	c #FCFEFF",
"..	c #4491D7",
"+.	c #0063C5",
"@.	c #F2F8FC",
"#.	c #2D83D2",
"$.	c #0E70CB",
"%.	c #F2F7FC",
"&.	c #7AB1E3",
"*.	c #77AEE2",
"=.	c #92BFE7",
"-.	c #A4C9EC",
";.	c #B8D5F0",
">.	c #046BC9",
",.	c #2278CE",
"'.	c #D5E6F6",
").	c #C0D9F2",
"!.	c #036AC9",
"~.	c #EDF5FB",
"{.	c #1977CD",
"].	c #0768C8",
"^.	c #ACCEEE",
"/.	c #4D96D9",
"(.	c #619EDC",
"_.	c #97C2E9",
":.	c #056AC9",
"<.	c #1071CB",
"[.	c #EAF2FB",
"}.	c #D9E9F7",
"|.	c #1F78CE",
"1.	c #9EC5EB",
"2.	c #E9F2FA",
"3.	c #F7FAFE",
"4.	c #4C95D8",
"5.	c #217CD0",
"6.	c #5399DA",
"7.	c #CADFF3",
"8.	c #5C9EDC",
"9.	c #2980D1",
"                                                                                                ",
"                                    . .   . . . . . .   . .                                     ",
"                              . . . . . . . . . . . . . . . . . .                               ",
"                          . . . . . . . . . . . . . . . . . . . . . .                           ",
"                        . . . . . . . . . . . . . . . . . . . . . . . .                         ",
"                    . . . . . . . . . . . . . . . . . . . . . . . . . . . .                     ",
"                  . . . . . . . . . . . . . . . . . . . .   . . . . . . . . .                   ",
"                . . . . . . . . . . . . . . . . . . .     + . . . . . . . . . .                 ",
"              . . . . . . . . . . . . . . . . . .         @ # . . . . . . . . . .               ",
"            . . . . . . . . . . . . . . . .           $ % & * . . . . . . . . . . .             ",
"          . . . . . . . . . . . . . . . .       $ $ $ = - ; . . . . . . . . . . . . .           ",
"          . . . . . . . . . . . . .         $ $ $ $ $ > , + . . . . . . . . . . . . .           ",
"        . . . . . . . . . . . . .       $ $ $ $ $ $ $ $   . . . . . . . . . . . . . . .         ",
"      . . . . . . . . . . . .       $ $ $ $ $ $ $ $ $ $     . . . . . . . . . . . . . . .       ",
"      . . . . . . . . . . .       $ $ $ $ $ $ $ $ $ $ $       . . . . . . . . . . . . . .       ",
"    . . . . . . . . . .         $ $ $ $ $ $ $ $ $ $ $ $ $       . . . . . . . . . . . . . .     ",
"    . . . . . . . . .       $ $ $ $ $ $ $ $ $ $ $ $ $ $ $ $     . . . . . . . . . . . . . .     ",
"    . . . . . . .       $ $ $ $ $ $ $ $ $ $ $ $ $ $ $ $ $ $ $   . . . . . . . . . . . . . .     ",
"  . . . . . .         $ $ $ $ $ $ $ $ $ $ $ $ $ $ $ $ $ $ $ $ '   . . . . . . . . . . . . . .   ",
"  . . . . .       $ $ $ $ $ $ $ $ $ $ $ $ $ $ $ $ $ $ $ $ $ $ $   . . . . . . . . . . . . . .   ",
"    . . .       $ $ $ $ $ $ $ $ $ $ $ $ $ $ $ $ $ $ $ $ $ $ $ $     . . . . . . . . . . . .     ",
"  . .         $ $ $ $ $ $ $ $ $ $ $ $ $ $ $ ) ! ~ ) ' $ $ $ $ $ $   . . . . . . . . . . . . .   ",
"  .       $ $ $ $ $ $ $ $ $ $ $ $ $ $ $ $ { ] ^ / ( _ : $ $ $ $ $     . . . . . . . . . . . .   ",
"      $ $ $ $ $ < [ } | $ $ $ $ $ $ $ $ 1 2 3 . . + 4 5 $ $ $ $ $ $   . . . . . . . . . . . .   ",
"    6 $ 7 8 9 0 a ^   $ $ $ $ $ $ $ $ ) b * . . . . c d e f $ $ $ $   . . . . . . . . . . . .   ",
"  g h i j k l m 3     $ $ $ $ $ $ $ n o + . . . . . . . p q $ $ $ $   3 . . . . . . . . . . .   ",
"  r s t + + . . .     $ f u   $ $ $ v + . . . . . . . . 3 w = $ $ $     . . . . . . . . . . .   ",
"    . . . . . .     $ $ i   $ $ $ x y + . . . . . . . . . ; z $ $ $ $   . . . . . . . . . .     ",
"  . . . . . . A   $ $ B     $ $ C D ; . . . . . . . . . . E F G $ $ $   H . . . . . . . . . .   ",
"  . . . . . .   $ $ I J   $ $ K L M . . . . . . . . . . . . N O | $ $ $   . . . . . . . . . .   ",
"    . . . .     $ P Q     $ $ R 3 + . . . . . . . . . . . . E S T $ $ $   . . . . . . . . .     ",
"    . . . A   $ U V     $ $ W X Y . . . . . . . . . . . . . . Z ` $ $ $   + . . . . . . . .     ",
"    . . .   $  ...+.  $ $ @.#.3 . . . . . . . . . . . . . . . 3 $.%.$ $   A . . . . . . . .     ",
"      .     $ &.3 #   $ f *.E . . . . . . . . . . . . . . . . c / =.$ $ $   . . . . . . .       ",
"          $ -.+ l   : $ ;.>.. . . . . . . . . . . . . . . . . . + ,.= $ $   + . . . . . .       ",
"        '.).!.+   $ $ ~.{.M . . . . . . . . . . . . . . . . . . . ].^.$ $   . . . . . .         ",
"          c .     $ : /.Y . . . . . . . . . . . . . . . . . . . . * (.K $   . . . . .           ",
"          + .   $ $ _.:.. . . . . . . . . . . . . . . . . . . . . + <.[.$   * . . . .           ",
"                $ }.|.E . . . . . . . . . . . . . . . . . . . . . . m 1.$   # . . .             ",
"              2.3.4.# . . . . . . . . . . . . . . . . . . . . . . . * 5.$   ^ . .               ",
"                6.# . . . . . . . . . . . . . . . . . . . . . . . . . * 7.    .                 ",
"                  . . . . . . . . . . . . . . . . . . . . . . . . . . * 8.$                     ",
"                    . . . . . . . . . . . . . . . . . . . . . . . . . + 9.                      ",
"                        . . . . . . . . . . . . . . . . . . . . . . . .                         ",
"                          . . . . . . . . . . . . . . . . . . . . . .                           ",
"                              . . . . . . . . . . . . . . . . . .                               ",
"                                    . .   . . . . . .   . .                                     ",
"                                                                                                "};
