/* XPM */
static const char * lxqt_xpm[] = {
"64 64 275 2",
"  	c None",
". 	c #1A80B6",
"+ 	c #157DB5",
"@ 	c #0E7AB3",
"# 	c #2686B9",
"$ 	c #358EBD",
"% 	c #2E8ABB",
"& 	c #137CB4",
"* 	c #127CB4",
"= 	c #1980B6",
"- 	c #107BB3",
"; 	c #5DA4C9",
"> 	c #B5D2E1",
", 	c #F3F2F2",
"' 	c #FDF8F5",
") 	c #FBF7F5",
"! 	c #FCF7F5",
"~ 	c #CDDFE8",
"{ 	c #7FB6D2",
"] 	c #1E82B7",
"^ 	c #197FB6",
"/ 	c #177EB5",
"( 	c #4697C2",
"_ 	c #DEE7ED",
": 	c #F7F5F3",
"< 	c #F2F2F2",
"[ 	c #F3F3F2",
"} 	c #F7F4F3",
"| 	c #81B6D3",
"1 	c #147DB4",
"2 	c #7BB3D1",
"3 	c #F5F4F3",
"4 	c #C8DCE6",
"5 	c #2284B8",
"6 	c #7BB4D1",
"7 	c #F9F6F4",
"8 	c #D0E0E9",
"9 	c #E4EBEE",
"0 	c #A5C9DD",
"a 	c #4999C3",
"b 	c #A2C7DC",
"c 	c #F4F3F3",
"d 	c #C7DCE6",
"e 	c #1B80B6",
"f 	c #E2EAED",
"g 	c #F6F4F3",
"h 	c #F4F3F2",
"i 	c #4094C1",
"j 	c #56A0C7",
"k 	c #E0E9ED",
"l 	c #2C89BB",
"m 	c #65A8CB",
"n 	c #FCF8F5",
"o 	c #C5DAE5",
"p 	c #83B7D4",
"q 	c #60A5CA",
"r 	c #5CA3C8",
"s 	c #76B1D0",
"t 	c #B0D0E0",
"u 	c #D7E4EB",
"v 	c #82B7D3",
"w 	c #4C9AC4",
"x 	c #177FB5",
"y 	c #117BB4",
"z 	c #187FB5",
"A 	c #0F7AB3",
"B 	c #DAE6EB",
"C 	c #F1F2F2",
"D 	c #4496C2",
"E 	c #BED6E4",
"F 	c #F5F3F3",
"G 	c #CADDE7",
"H 	c #368EBE",
"I 	c #2184B8",
"J 	c #ACCDDE",
"K 	c #F9F5F4",
"L 	c #F8F5F4",
"M 	c #D3E2E9",
"N 	c #9CC5DB",
"O 	c #67A8CB",
"P 	c #2F8BBC",
"Q 	c #157DB4",
"R 	c #4D9BC4",
"S 	c #67A8CC",
"T 	c #A1C7DC",
"U 	c #117BB3",
"V 	c #74B0CF",
"W 	c #FAF6F4",
"X 	c #EEF0F1",
"Y 	c #B7D3E2",
"Z 	c #80B6D3",
"` 	c #4A9AC3",
" .	c #167EB5",
"..	c #A1C7DB",
"+.	c #90BED7",
"@.	c #308CBC",
"#.	c #B8D4E2",
"$.	c #8DBDD6",
"%.	c #FBF7F4",
"&.	c #FFF9F6",
"*.	c #FFFBF7",
"=.	c #D8E4EB",
"-.	c #A2C8DC",
";.	c #6CABCD",
">.	c #358EBE",
",.	c #4094C0",
"'.	c #1F83B7",
").	c #539EC6",
"!.	c #4396C2",
"~.	c #FFF9F5",
"{.	c #D5E3EA",
"].	c #3A91BF",
"^.	c #97C2D9",
"/.	c #328DBD",
"(.	c #EAEEF0",
"_.	c #378FBE",
":.	c #4B9AC4",
"<.	c #3991BE",
"[.	c #FBF6F4",
"}.	c #BCD6E3",
"|.	c #ECEFF0",
"1.	c #549FC6",
"2.	c #DCE7EC",
"3.	c #FEF8F5",
"4.	c #2D8ABB",
"5.	c #F7F5F4",
"6.	c #1D82B7",
"7.	c #86B9D4",
"8.	c #8EBDD6",
"9.	c #A7CADD",
"0.	c #2083B8",
"a.	c #9DC5DB",
"b.	c #A4C9DC",
"c.	c #2887BA",
"d.	c #FFFDF8",
"e.	c #2385B9",
"f.	c #D2E1E9",
"g.	c #64A7CA",
"h.	c #2E8BBC",
"i.	c #B4D2E0",
"j.	c #1B81B6",
"k.	c #98C3D9",
"l.	c #559FC7",
"m.	c #1C81B7",
"n.	c #3E93C0",
"o.	c #4195C1",
"p.	c #CBDDE7",
"q.	c #E0E8ED",
"r.	c #2B89BB",
"s.	c #147DB5",
"t.	c #88BAD5",
"u.	c #A3C8DD",
"v.	c #348EBD",
"w.	c #58A0C7",
"x.	c #F1F1F2",
"y.	c #187FB6",
"z.	c #529EC6",
"A.	c #EBEEF0",
"B.	c #BED7E4",
"C.	c #4597C2",
"D.	c #6FADCD",
"E.	c #ECEFF1",
"F.	c #BBD5E3",
"G.	c #FAF7F4",
"H.	c #3C92BF",
"I.	c #8ABBD5",
"J.	c #C2D8E5",
"K.	c #9CC5DA",
"L.	c #B7D3E1",
"M.	c #3890BF",
"N.	c #7CB4D1",
"O.	c #3990BF",
"P.	c #2E8BBB",
"Q.	c #4596C2",
"R.	c #CCDEE8",
"S.	c #4E9BC5",
"T.	c #99C4DA",
"U.	c #B3D1E1",
"V.	c #CFE0E8",
"W.	c #117CB4",
"X.	c #C2D9E5",
"Y.	c #3D92C0",
"Z.	c #3B91BF",
"`.	c #85B9D4",
" +	c #A7CBDD",
".+	c #9EC6DB",
"++	c #B8D3E2",
"@+	c #DDE7EC",
"#+	c #2485B9",
"$+	c #9BC4DA",
"%+	c #A0C7DB",
"&+	c #94C0D8",
"*+	c #E1E9EE",
"=+	c #95C1D9",
"-+	c #4A99C3",
";+	c #71AECE",
">+	c #B2D0E1",
",+	c #0B78B2",
"'+	c #348EBE",
")+	c #5EA4C9",
"!+	c #87BAD5",
"~+	c #B1D0E0",
"{+	c #DBE6EC",
"]+	c #FFFAF6",
"^+	c #A8CBDE",
"/+	c #5DA3C9",
"(+	c #E3EAEE",
"_+	c #B6D3E1",
":+	c #3790BE",
"<+	c #E8EDF0",
"[+	c #137DB4",
"}+	c #3B92BF",
"|+	c #65A7CB",
"1+	c #8EBED6",
"2+	c #BCD5E3",
"3+	c #E9EEF0",
"4+	c #C7DBE6",
"5+	c #77B1D0",
"6+	c #2787BA",
"7+	c #80B6D2",
"8+	c #E1E9ED",
"9+	c #4496C1",
"0+	c #4F9CC5",
"a+	c #CEDFE8",
"b+	c #79B2D0",
"c+	c #ADCEDF",
"d+	c #E4EAEE",
"e+	c #4E9BC4",
"f+	c #4395C1",
"g+	c #E8EDEF",
"h+	c #4798C3",
"i+	c #68A9CC",
"j+	c #E1EAEE",
"k+	c #9FC7DC",
"l+	c #A8CBDD",
"m+	c #61A6CA",
"n+	c #76B1CF",
"o+	c #127BB4",
"p+	c #62A6CA",
"q+	c #529DC5",
"r+	c #B4D1E1",
"s+	c #F8F5F3",
"t+	c #D1E0E9",
"u+	c #6DACCD",
"v+	c #59A1C8",
"w+	c #5BA2C8",
"x+	c #4295C1",
"y+	c #A3C8DC",
"z+	c #AACCDE",
"A+	c #92BFD7",
"B+	c #3C92C0",
"C+	c #D6E3EA",
"D+	c #ACCDDF",
"E+	c #C3D9E5",
"F+	c #1D81B7",
"G+	c #4898C3",
"H+	c #DEE8ED",
"I+	c #87BAD4",
"J+	c #60A5C9",
"K+	c #C3DAE5",
"L+	c #338DBD",
"M+	c #8FBED6",
"N+	c #81B6D2",
"O+	c #8CBCD6",
"P+	c #6BABCD",
"Q+	c #7DB4D2",
"R+	c #D3E1E9",
"S+	c #A5CADD",
"T+	c #5FA4C9",
"U+	c #C9DCE7",
"V+	c #509CC5",
"W+	c #D1E1E9",
"X+	c #58A1C7",
"Y+	c #8BBBD5",
"Z+	c #72AFCF",
". . . . . . . . . . . . . . . . . . . . . . . . . . . . . . . . + @ # $ % & * = . . . . . . . . . . . . . . . . . . . . . . . . ",
". . . . . . . . . . . . . . . . . . . . . . . . . . . . . . - ; > , ' ) ! ! ~ { ] ^ . . . . . . . . . . . . . . . . . . . . . . ",
". . . . . . . . . . . . . . . . . . . . . . . . . . . . / ( _ : < < < < < < < [ } | * . . . . . . . . . . . . . . . . . . . . . ",
". . . . . . . . . . . . . . . . . . . . . . . . . . . 1 2 ! < < < < < < < < < < < 3 4 = . . . . . . . . . . . . . . . . . . . . ",
". . . . 5 1 . . . . . . . . . . . . . . . . . . . . / 6 7 < < < < < < < < < < < < < < 8 + . . . . . . . . . . . . . . . . . . . ",
". . . . 9 0 & . . . . . . . . . . . . . . . . . . . a ) < < < < < < < < < < < < < < < [ b + . . . . . . . . . . . . . . . . . . ",
". . * > < c d e . . . . . . . . . . . . . . . . . * f < < < < < < , g } h < < < < < < < ! i . . . . . . . . . . . . . . . . . . ",
". . j 7 < < < k l . . . . . . . . . . . . . . . . m g < < < < n o p q r s t 7 < < < < < < u v w x y z . . . . . . . . . . . . . ",
". A B < < < < < C D z . . . . . . . . . . . . . 1 E < < < F G H * . . . . + I J K < < < < < , L ' M N O P @ Q . . . . . . . . . ",
". R 7 < < < < < < 7 S 1 . . . . . . . . . . . . - K < < g T U . . . . . . . . & V W < < < < < < < < < 3 ! X Y Z `  .* z . . . . ",
"/ ..< < < < < < < < W +.y . . . . . . . . . . . @.! < < #.y . . . . . . . . . . + $.%.7 7 7 7 7 7 7 7 7 7 7 7 W &.*.=.-.;.>.+ . ",
"- k < < < < < < < < < g Y  .. . . . . . . . . . ,.W < F '.. . . . . . . . . . . . x w a a a a a a a a a a a a a a a a a R ).!.. ",
"z ~.< < < < < < < < < < , {.5 . . . . . . . . . ].W < ^.z . . . . . . . . . . . . . . . . . . . . . . . . . . . . . . . . . . . ",
"/.) < < < < < < < < < < < < (._.= . . . . . . . . &.K :.. . . . . . . . . . . . . . . . . . . . . . . . . . . . . . . . . . . . ",
"<.[.< < < < < , }.|.[ < < < < g 1. .. . . . . . - 2.3.] . . . . . . . . . . . . . . . . . . . . . . . . . . . . . . . . . . . . ",
"4.! < < < < < 5.6. .7.g < < < < [.2 * . . . . . ^ 8.&.U . . . . . . . . . . . . . . . . . . . . . . . . . . . . . . . . . . . . ",
"- ) < < < < < 9. .. ^ 0.a.) < < < L b.& . . . . . c.d.e.. . . . . . . . . . . . . . . . . . . . . . . . . . . . . . . . . . . . ",
"* f.< < < < g g.. . . . / h.i.) < < c d j.. . . . x k.l.. . . . . . . . . . . m.. . . . . . . . . . . . . . . . . . . . . . . . ",
"^ 8.< < < < W n.. . . . . . 1 o.p.L < < q.r.. . . . s.t. .. . . . . . . . . * u.U . . . . . . . . . . . . . . . . . . . . . . . ",
". >.' < < < ) v.. . . . . . . . U w._ 3 < x.D y.. . . c.m.. . . . . . . . . z.A.- . . . . . . . . . . . . . . . . . . . . . . . ",
". & B.< < < 7 C.. . . . . . . . . . U D.E.[ 7 O 1 . . . . . . . . . . . . 1 F.! - . . . . . . . . . . . . . . . . . . . . . . . ",
". . _.) < < c V . . . . . . . . . . . .  .7.g G.+.y . . . . . . . . . . . & ) W H.. . . . . . . . . . . . . . . . . . . . . . . ",
". . / I.3 < < J.* . . . . . . . . . . . . ^ '.K.&.L. .. . . . . . . . . . M.%.[ N.. . . . . . . . . . . . . . . . . . . . . . . ",
". . z - B.[ < ! O.. . . . . . . . . . . . . . / P.> _ 5 . . . . . . . . . Q.7 < R.y . . . . . . . . . . . . . . . . . . . . . . ",
". . S.T.C.U.[ < V.W.. . . . . . . . . . . . . . . 1 i X.Y.= . . . . . . . Z.W < n >.. . . . . . . . . . . . . . . . . . . . . . ",
". . `., 7 (.< < c  +U . . . . . . . . . . . . . . . . - r ,.^ . . . . . . e ~.< < T / . . . . . . . . . . . . . . . . . . . . . ",
". x .+< < < < < < 3 ++e.* = . . . . . . . . . . . . . . . y.. . . . . . . - @+< < W #+. . . . . . . . . . . . . . . . . . . . . ",
". / b.< < < < < < < < 3.~ v _.A z . . . . . . . . . . . . . . . . . . . . z $+< < < %+ .. . . . . . . . . . . . . . . . . . . . ",
". ^ &+< < < < < < (.W %.g [ ! *+=+-+-  .. . . . . . . . . . . . . . . . . . a 7 < < ) P . . . . . . . . . . . . . . . . . . . . ",
". . ;+c < < < < < >+,+'+)+!+~+{+' ]+c ^+/+/ 1 . . . . . . . . . . . . . . . A (+< < < _+& . . . . . . . . . . . . . . . . . . . ",
". . :+) < < < < < <+@ . . = + U [+}+|+1+2+3+4+5+6+y = . . . . . . . . . . . = 7+[ < < ) D . . . . . . . . . . . . . . . . . . . ",
". . A 8+< < < < < W ,.. . . . . . . . ^ 1 - y.9+5+;+0+h.. . . . . . . . . . . 0.) < < < a+- . . . . . . . . . . . . . . . . . . ",
". . = b+c < < < < < J + . . . . . . . . . . . . . y.+ z . . . . . . . . . . .  .c+< < < L j . . . . . . . . . . . . . . . . . . ",
". . . 1 d+< < < < < ) !.. . . . . . . . . . . . . . . . . . . . . . . . . . . . e+L < < < f.- . . . . . . . . . . . . . . . . . ",
". . . . f+[.< < < < < g+5 . . . . . . . . . . . . . . . . . . . . . . . . . . . A (.< < < W h+. . . . . . . . . . . . . . . . . ",
". . . . z i+%.< < < < < j+l = . . . . . . . . . . . . . . . . . . . . . . . . . x k+< < < < l+ .. . . . . . . . . . . . . . . . ",
". . . . .  .m+7 < < < < < c n+o+^ . . . . . . . . . . . . . . . . . . . . . . . . p+g < < < : [+. . . . . . . . . . . . . . . . ",
". . . . . . ^ v.a+7 < < < < F A.+.h+z - . . . . . . . . . . . . . . . . . . . . . :+%.< < < L S.. . . . . . . . . . . . . . . . ",
". . . . . . . . - q+r+s+W : g : W *.t+u+e . . . . . . . . . . . . . . . . . . . . '.' < < < , v . . . . . . . . . . . . . . . . ",
". . . . . . . . . . + W.H.v+p+w+x+/ & . . . . . . . . . . . . . . . . . . . . . . 6.3.< < < < y+/ . . . . . . . . . . . . . . . ",
". . . . . . . . . . . . . . . . . . . . . . . . . . . . . . . . . . . . . . . . . '+%.< < < < ~++ . . . . . . . . . . . . . . . ",
". . . . . . . . . . . . . . . . . . . . . . . . . . . . . . . . . . . . . . . . . i+3 < < < < z+ .. . . . . . . . . . . . . . . ",
". . . . . . . . . . . . . . . . . . . . . . . . . . . . . . . . . . . . . . . . & 2+< < < < < A+^ . . . . . . . . . . . . . . . ",
". . . . . . . . . . . . . . . . . . . . . . . . . . . . . . . . . . . . . . . . B+! < < < < g |+. . . . . . . . . . . . . . . . ",
". . . . . . . . . . . . . . . . . . . . . . . . . . . . . . . . . . . . . . . & C+< < < < < ' #+. . . . . . . . . . . . . . . . ",
". . . . . . . . . . . . . . . . . . . . . . . . . . . . . . . . . . . . . . y D+[ < < < < < E+& . . . . . . . . . . . . . . . . ",
". . . . . . . . . . . . . . . . . . . . . . . . . . . . . . . . . . . . . + ~+3 < < < < < L v+. . . . . . . . . . . . . . . . . ",
". . . . . . . . . . . . . . . . . . . . C.F+ .. . . . . . . . . . . . * G+H+, < < < < < < a+U . . . . . . . . . . . . . . . . . ",
". . . . . . . . . . . . . . . . . . . . I+7 z+v+z y  .^ . . = / * x J+K+%.< < < < < < < 7 L+. . . . . . . . . . . . . . . . . . ",
". . . . . . . . . . . . . . . . . . . . 7.< < : ! M z+M+N+7+O+0 ~ %.g < < < < < < < < W P+y.. . . . . . . . . . . . . . . . . . ",
". . . . . . . . . . . . . . . . . . . . 7.< < < < < < < , , < < < < < < < < < < < < K t.1 . . . . . . . . . . . . . . . . . . . ",
". . . . . . . . . . . . . . . . . . . . 7.< < < < < < < < < < < < < < < < < < < < ) Q+& . . . . . . . . . . . . . . . . . . . . ",
". . . . . . . . . . . . . . . . . . . . 7.< < < < < < < < < < < < < < < < < < < X 0+ .. . . . . . . . . . . . . . . . . . . . . ",
". . . . . . . . . . . . . . . . . . . . 7.< < < < < < < < < < < < < < < < < ! -.m.. . . . . . . . . . . . . . . . . . . . . . . ",
". . . . . . . . . . . . . . . . . . . . 7.< < < < < < < < < < < < < < g g %+P  .. . . . . . . . . . . . . . . . . . . . . . . . ",
". . . . . . . . . . . . . . . . . . . . 7.< < L -.R+! ! W 7 7 ! 3.2.S+T+/ / . . . . . . . . . . . . . . . . . . . . . . . . . . ",
". . . . . . . . . . . . . . . . . . . . 7.< < U+A W.U l o.a f+@.s.- / . . . . . . . . . . . . . . . . . . . . . . . . . . . . . ",
". . . . . . . . . . . . . . . . . . . . 7.< 7 V+. . . . . . . . . . . . . . . . . . . . . . . . . . . . . . . . . . . . . . . . ",
". . . . . . . . . . . . . . . . . . . . 7.< W+- . . . . . . . . . . . . . . . . . . . . . . . . . . . . . . . . . . . . . . . . ",
". . . . . . . . . . . . . . . . . . . . 7.L X+. . . . . . . . . . . . . . . . . . . . . . . . . . . . . . . . . . . . . . . . . ",
". . . . . . . . . . . . . . . . . . . . 7.=.- . . . . . . . . . . . . . . . . . . . . . . . . . . . . . . . . . . . . . . . . . ",
". . . . . . . . . . . . . . . . . . . . Y+J+. . . . . . . . . . . . . . . . . . . . . . . . . . . . . . . . . . . . . . . . . . ",
". . . . . . . . . . . . . . . . . . . . Z+- . . . . . . . . . . . . . . . . . . . . . . . . . . . . . . . . . . . . . . . . . . ",
". . . . . . . . . . . . . . . . . . . . . . . . . . . . . . . . . . . . . . . . . . . . . . . . . . . . . . . . . . . . . . . . "};
