/* XPM */
static const char * lxqt_xpm[] = {
"48 48 313 2",
"  	c None",
". 	c #1A80B6",
"+ 	c #177FB5",
"@ 	c #1F83B7",
"# 	c #2887BA",
"$ 	c #348EBD",
"% 	c #4C9AC4",
"& 	c #4496C1",
"* 	c #2A89BB",
"= 	c #2586B9",
"- 	c #1980B6",
"; 	c #1B80B6",
"> 	c #137CB4",
", 	c #4A99C3",
"' 	c #A6CADD",
") 	c #E4EBEE",
"! 	c #FFFCF7",
"~ 	c #FFFBF7",
"{ 	c #FBF7F5",
"] 	c #C7DCE6",
"^ 	c #80B6D2",
"/ 	c #2384B9",
"( 	c #187FB5",
"_ 	c #0B78B2",
": 	c #7CB3D1",
"< 	c #F4F3F3",
"[ 	c #F3F2F2",
"} 	c #F2F2F2",
"| 	c #F3F3F2",
"1 	c #D5E3EA",
"2 	c #2184B8",
"3 	c #167EB5",
"4 	c #3990BE",
"5 	c #1C81B6",
"6 	c #7CB4D1",
"7 	c #F1F1F2",
"8 	c #ECEFF1",
"9 	c #187FB6",
"0 	c #197FB6",
"a 	c #117BB4",
"b 	c #519DC5",
"c 	c #FDF8F5",
"d 	c #A3C9DC",
"e 	c #177EB5",
"f 	c #4D9BC4",
"g 	c #F1F2F2",
"h 	c #F6F4F3",
"i 	c #FCF7F5",
"j 	c #FEF8F5",
"k 	c #FAF6F4",
"l 	c #F4F3F2",
"m 	c #C1D7E5",
"n 	c #0E7AB3",
"o 	c #2686B9",
"p 	c #DFE8ED",
"q 	c #D6E4EA",
"r 	c #147CB4",
"s 	c #2083B8",
"t 	c #AACCDE",
"u 	c #FFFEF8",
"v 	c #CBDDE7",
"w 	c #83B7D4",
"x 	c #71AECE",
"y 	c #92C0D8",
"z 	c #E7EDEF",
"A 	c #F9F6F4",
"B 	c #F0F1F1",
"C 	c #9AC4DA",
"D 	c #4496C2",
"E 	c #0776B1",
"F 	c #157DB5",
"G 	c #EAEFF0",
"H 	c #E9EDF0",
"I 	c #D7E4EB",
"J 	c #3990BF",
"K 	c #0877B1",
"L 	c #147DB4",
"M 	c #0876B1",
"N 	c #81B6D2",
"O 	c #FFF9F6",
"P 	c #C9DDE7",
"Q 	c #85B8D3",
"R 	c #4295C1",
"S 	c #1C81B7",
"T 	c #2384B8",
"U 	c #BDD6E3",
"V 	c #F5F3F3",
"W 	c #E3EAEE",
"X 	c #5BA2C8",
"Y 	c #0977B2",
"Z 	c #1B81B6",
"` 	c #3A91BF",
" .	c #FFFCF8",
"..	c #D0E0E9",
"+.	c #2585B9",
"@.	c #0C78B2",
"#.	c #4F9CC5",
"$.	c #EFF1F1",
"%.	c #FFFAF6",
"&.	c #FFFFF9",
"*.	c #FFFFFB",
"=.	c #FEF9F6",
"-.	c #D3E2EA",
";.	c #AECFDF",
">.	c #89BBD6",
",.	c #67A9CB",
"'.	c #4094C1",
").	c #2888BA",
"!.	c #89BBD5",
"~.	c #0977B1",
"{.	c #58A0C7",
"].	c #2285B8",
"^.	c #4597C2",
"/.	c #62A6CA",
"(.	c #61A6CA",
"_.	c #64A7CB",
":.	c #59A1C7",
"<.	c #549FC6",
"[.	c #1E82B7",
"}.	c #3790BE",
"|.	c #FFFDF8",
"1.	c #90BED7",
"2.	c #1D82B7",
"3.	c #FFFEF9",
"4.	c #9CC5DA",
"5.	c #127CB3",
"6.	c #4F9DC5",
"7.	c #ABCCDE",
"8.	c #2D8ABB",
"9.	c #4A9AC4",
"0.	c #4999C3",
"a.	c #2385B9",
"b.	c #5EA4C9",
"c.	c #F7F5F3",
"d.	c #F5F4F3",
"e.	c #D9E4EB",
"f.	c #308CBC",
"g.	c #2786BA",
"h.	c #E5EBEE",
"i.	c #2E8ABB",
"j.	c #2B89BA",
"k.	c #F8F5F4",
"l.	c #ADCDDF",
"m.	c #0F7AB3",
"n.	c #9AC3DA",
"o.	c #EDF0F1",
"p.	c #97C4DA",
"q.	c #4598C3",
"r.	c #DCE6EC",
"s.	c #65A8CB",
"t.	c #107AB3",
"u.	c #3890BE",
"v.	c #96C2D9",
"w.	c #FEF8F6",
"x.	c #6AAACC",
"y.	c #107BB3",
"z.	c #318CBC",
"A.	c #79B2D1",
"B.	c #127CB4",
"C.	c #117CB4",
"D.	c #56A0C8",
"E.	c #A3C8DC",
"F.	c #B1CFE0",
"G.	c #87B9D5",
"H.	c #157EB5",
"I.	c #338DBD",
"J.	c #0575B0",
"K.	c #59A1C8",
"L.	c #63A7CA",
"M.	c #4C9AC3",
"N.	c #DBE6EC",
"O.	c #94C0D8",
"P.	c #127BB4",
"Q.	c #B3D1E1",
"R.	c #0D79B2",
"S.	c #117BB3",
"T.	c #68A9CC",
"U.	c #D3E3E9",
"V.	c #CFDFE9",
"W.	c #2F8BBC",
"X.	c #93C0D8",
"Y.	c #FFFBF6",
"Z.	c #0B78B1",
"`.	c #DBE7EC",
" +	c #FFFAF7",
".+	c #2284B8",
"++	c #5AA2C7",
"@+	c #A2C8DC",
"#+	c #A8CBDE",
"$+	c #0A77B2",
"%+	c #A7CBDE",
"&+	c #5AA2C8",
"*+	c #C5DBE5",
"=+	c #107BB4",
"-+	c #ADCEDF",
";+	c #3890BF",
">+	c #9BC4DA",
",+	c #E8EDF0",
"'+	c #509DC5",
")+	c #EDEFF0",
"!+	c #F3F3F3",
"~+	c #9FC6DB",
"{+	c #3E93C0",
"]+	c #82B7D3",
"^+	c #73AFCF",
"/+	c #EAEEF0",
"(+	c #E8ECEF",
"_+	c #C8DCE6",
":+	c #4E9BC5",
"<+	c #F0F1F2",
"[+	c #E2EAED",
"}+	c #E8EDEF",
"|+	c #A0C7DC",
"1+	c #1F83B8",
"2+	c #E2EAEE",
"3+	c #E6ECEF",
"4+	c #5DA3C9",
"5+	c #137CB5",
"6+	c #368FBE",
"7+	c #93C0D7",
"8+	c #B8D4E2",
"9+	c #AFCFE0",
"0+	c #99C2D9",
"a+	c #85B8D4",
"b+	c #549EC6",
"c+	c #EEF1F1",
"d+	c #D0E0E8",
"e+	c #98C3D9",
"f+	c #1F82B7",
"g+	c #2686BA",
"h+	c #2988BA",
"i+	c #2C8ABB",
"j+	c #4898C2",
"k+	c #74B0CF",
"l+	c #318DBD",
"m+	c #1D81B7",
"n+	c #559FC6",
"o+	c #E1E9ED",
"p+	c #2B89BB",
"q+	c #B0CFE0",
"r+	c #EAEDF0",
"s+	c #0A78B1",
"t+	c #AACBDE",
"u+	c #ACCDDF",
"v+	c #8ABBD5",
"w+	c #B2D1E1",
"x+	c #2687B9",
"y+	c #D8E5EB",
"z+	c #CEDFE8",
"A+	c #2787BA",
"B+	c #D0E1E9",
"C+	c #CCDEE7",
"D+	c #368EBE",
"E+	c #358FBD",
"F+	c #78B2D0",
"G+	c #C5DAE5",
"H+	c #FFF9F5",
"I+	c #D1E1E9",
"J+	c #9CC5DB",
"K+	c #4C9BC4",
"L+	c #94C1D8",
"M+	c #FDF7F5",
"N+	c #7FB5D2",
"O+	c #2989BB",
"P+	c #76B0D0",
"Q+	c #74AFCF",
"R+	c #569FC7",
"S+	c #2E8ABC",
"T+	c #8EBDD6",
"U+	c #9DC5DB",
"V+	c #C2D9E5",
"W+	c #0D79B3",
"X+	c #CADDE7",
"Y+	c #B2D0E0",
"Z+	c #4798C3",
"`+	c #83B7D3",
" @	c #187EB5",
".@	c #EFF0F1",
"+@	c #157DB4",
"@@	c #CBDDE8",
"#@	c #4B9AC4",
"$@	c #79B2D0",
"%@	c #137DB4",
"&@	c #A1C8DB",
"*@	c #ECEFF0",
"=@	c #7BB3D1",
"-@	c #2F8BBB",
";@	c #2687BA",
">@	c #2786B9",
",@	c #4F9CC4",
"'@	c #C6DBE6",
")@	c #99C3D9",
"!@	c #C0D7E4",
"~@	c #FBF6F4",
"{@	c #D8E4EB",
"]@	c #2C89BB",
"^@	c #EDEFF1",
"/@	c #B6D2E1",
"(@	c #B5D2E1",
"_@	c #2D89BB",
":@	c #2083B7",
"<@	c #CADCE7",
"[@	c #0071AE",
"}@	c #0475B0",
"|@	c #1A7FB6",
"1@	c #388FBE",
"2@	c #0575B1",
"3@	c #0A77B1",
"4@	c #9CC4DA",
"5@	c #BED7E4",
"6@	c #97C2D9",
"7@	c #6EACCD",
"8@	c #81B6D3",
". . . . . . . . . . . . . . . . . . . . . . + @ # $ % & * = + - . . . . . . . . . . . . . . . . ",
". . . . . . . . . . . . . . . . . . . . ; > , ' ) ! ~ ! { ] ^ / ( . . . . . . . . . . . . . . . ",
". . . . . . . . . . . . . . . . . . . ; _ : < < [ } } } } | < 1 2 ; . . . . . . . . . . . . . . ",
". . 3 4 5 - . . . . . . . . . . . . . > 6 ! 7 } } } } } } } } < 8 9 0 . . . . . . . . . . . . . ",
". a b c d e . . . . . . . . . . . . + f < 7 } g h i j k l } } } h m n 3 . . . . . . . . . . . . ",
". o p } l q r 9 . . . . . . . . . . s t < } } u v w x y z A g } } B C D E _ F - ; . . . . . . . ",
"e 6 [ } } } G $ ( . . . . . . . . . # H } | I J K 3 3 L M N 7 l } } h O ! P Q R o o S 3 ( - . . ",
"T U < } } } V W X Y Z . . . . . . . `  .[ ..+.3 ; . . . ; @.#.$.%.%.%.%.%.! &.*.=.-.;.>.,.'.; - ",
").g } } } } } < 7 !.~.. . . . . . ( {.%.~ ].e . . . . . . . 0 ^./.(.(.(.(.(.(.(.(./._./.:.<.% [.",
"}.|.} } } } [ } } h 1.2.- . . . . 9 #.3.4.5.. . . . . . . . . 0 + + + + + + + + + + + + + e e . ",
"6.~ } } } [ W c [ } c 7.].L . . . . 8.*.9.0 . . . . . . . . . . . . . . . . . . . . . . . . . . ",
"0.~ } } g |.a.b.c.h g d.e.f.+ . . . g.h.i.; . . . . . . . . . . . . . . . . . . . . . . . . . . ",
"j.~ } } k.l.m.e @.n.o.< < ) J + . . 9 p.q.- . . . . . . . 0 . . . . . . . . . . . . . . . . . . ",
"# r.[ } O s.+ . . t.u.v.7 w.B x.y.. - z.A.B.. . . . . . C.D.B.. . . . . . . . . . . . . . . . . ",
"S E.h } ~ f 0 . . . ( Z i.F.c 7 G.H.; e I.. . . . . . . = r.J.; . . . . . . . . . . . . . . . . ",
"+ K.o.} %.L.+ . . . . . . ~.M.N.%.O.; ( - . . . . . . e x. .K . . . . . . . . . . . . . . . . . ",
". P.Q.A k.l.R.. . . . . . ; 3 S.T.U.V.W.e . . . . . . 0 X.Y.0.3 . . . . . . . . . . . . . . . . ",
". e Z.`.c. +[.- . . . . . . . . + .+++N.i.9 . . . . . 2.@+k.#+$+. . . . . . . . . . . . . . . . ",
"- I.%+&+N.l *+=+- . . . . . . . . . e 3 -+;+. . . . . Z >+V ,+/ - . . . . . . . . . . . . . . . ",
"9 '+)+O 7 } !+~+- _ 3 . . . . . . . . . ~.{+a.. . . . e ]+V B ^++ . . . . . . . . . . . . . . . ",
"( :./+} } } } 7 (+t 0.E 5.- . . . . . . . - . . . . . ( &+/+| _+.+. . . . . . . . . . . . . . . ",
"0 :+(+} } } <+p [+}+A d.|+^.).1+3 0 . . . . . . . . . . s 2+g ! K.3 . . . . . . . . . . . . . . ",
"- 8.3+} } } $.4+5+6+<.x 7+8+9+0+a+b++ B.9 . . . . . . . _ ~+d.[ c+3 . . . . . . . . . . . . . . ",
". ~.d+} } } d.e+; - 9 e + f+g+h+i+j+k+4+l+0 . . . . . . 0 m+&.g c.E.~.. . . . . . . . . . . . . ",
". H.n+i } } [ o+p+. . . . . . . ; ( L B.3 . . . . . . . . m.q+k.} r+}.0 . . . . . . . . . . . . ",
". ; s+t+O } } c u+_ . . . . . . . . . . . . . . . . . . . - R %.} l v+- . . . . . . . . . . . . ",
". . . o _+d.} } d.w+n . . . . . . . . . . . . . . . . . . . x+y+[ | z+= . . . . . . . . . . . . ",
". . . 9 A+B+g < } h C+D++.. ( . . . . . . . . . . . . . . . s u+< } ! E+. . . . . . . . . . . . ",
". . . . e H.F+G+H+%.%.&.I+J+K+( . . . . . . . . . . . . . . - L+h } M+N+3 . . . . . . . . . . . ",
". . . . . . + a.O+&+P+Q+R+S+x+- . . . . . . . . . . . . . . ( T+h } c.F.t.. . . . . . . . . . . ",
". . . . . . . . ; ( 3 3 ( . . . . . . . . . . . . . . . . . S U+d.} h V+W+. . . . . . . . . . . ",
". . . . . . . . . . . . . . . . . . . . . . . . . . . . . . .+X+| } c.Y+t.. . . . . . . . . . . ",
". . . . . . . . . . . . . . . . . . . . . . . . . . . . . - Z+O } } i `+F . . . . . . . . . . . ",
". . . . . . . . . . . . . . . . . . . . . . . . . . . . (  @.@[ } } ~ J . . . . . . . . . . . . ",
". . . . . . . . . . . . . . . + . . . . . . . . . . ; +@p+v h } } < @@T . . . . . . . . . . . . ",
". . . . . . . . . . . . . . ( J @.F . . . . . . . 0 M #@o+| } } } g $@( . . . . . . . . . . . . ",
". . . . . . . . . . . . . . %@&@*@=@-@;@g+= = >@).,@'@! g } } } V I+F . . . . . . . . . . . . . ",
". . . . . . . . . . . . . . L )@k c ~ 2+X+!@V+I+B ~ h g } } } ~@{@* e . . . . . . . . . . . . . ",
". . . . . . . . . . . . . . L )@A } } [ | | | | } } } } } } h -.]@( . . . . . . . . . . . . . . ",
". . . . . . . . . . . . . . L )@A } } } } } } } } } } } d.^@V+[.0 . . . . . . . . . . . . . . . ",
". . . . . . . . . . . . . . L )@A g c.} g } } g g V i c /@/._ 0 . . . . . . . . . . . . . . . . ",
". . . . . . . . . . . . . . L )@k.c (@k.|.~ ~  .|.-.^ _@:@( . . . . . . . . . . . . . . . . . . ",
". . . . . . . . . . . . . . L )@c <@[@}@|@$ 1@= 2@3@F . . . . . . . . . . . . . . . . . . . . . ",
". . . . . . . . . . . . . . L )@~ '.. ; - + + 9 ; . . . . . . . . . . . . . . . . . . . . . . . ",
". . . . . . . . . . . . . . L 4@5@s . . . . . . . . . . . . . . . . . . . . . . . . . . . . . . ",
". . . . . . . . . . . . . . L 6@7@3 . . . . . . . . . . . . . . . . . . . . . . . . . . . . . . ",
". . . . . . . . . . . . . . L 8@:@. . . . . . . . . . . . . . . . . . . . . . . . . . . . . . . ",
". . . . . . . . . . . . . . - a.( . . . . . . . . . . . . . . . . . . . . . . . . . . . . . . . "};
