/* XPM */
static const char * mate_xpm[] = {
"48 48 740 2",
"  	c None",
". 	c #B6DB8F",
"+ 	c #BCE595",
"@ 	c #C1E998",
"# 	c #C0E998",
"$ 	c #C1E999",
"% 	c #C0E999",
"& 	c #B5DB8F",
"* 	c #ACD284",
"= 	c #AEE17A",
"- 	c #98D957",
"; 	c #94D852",
"> 	c #94D853",
", 	c #95D853",
"' 	c #95D954",
") 	c #95D854",
"! 	c #96D854",
"~ 	c #97D854",
"{ 	c #96D855",
"] 	c #ABD284",
"^ 	c #B4E386",
"/ 	c #92D74D",
"( 	c #92D74F",
"_ 	c #93D74F",
": 	c #93D750",
"< 	c #94D850",
"[ 	c #94D851",
"} 	c #95D851",
"| 	c #95D852",
"1 	c #96D853",
"2 	c #92D74E",
"3 	c #B4E287",
"4 	c #B6E785",
"5 	c #8FD649",
"6 	c #96D955",
"7 	c #9ADA5B",
"8 	c #9EDB62",
"9 	c #A3DE6A",
"0 	c #A7DE70",
"a 	c #A8DF71",
"b 	c #A4DE6C",
"c 	c #9FDB62",
"d 	c #9ADB5C",
"e 	c #B5E783",
"f 	c #8FD64A",
"g 	c #97D955",
"h 	c #96D956",
"i 	c #97D956",
"j 	c #98D958",
"k 	c #B0E280",
"l 	c #CCEBAC",
"m 	c #E1F4CF",
"n 	c #EBFBDE",
"o 	c #EDFEE0",
"p 	c #EBFEDE",
"q 	c #EBFEDD",
"r 	c #ECFEE0",
"s 	c #EEFDE3",
"t 	c #E5F6D5",
"u 	c #D0EDB3",
"v 	c #B8E48D",
"w 	c #9BDA5C",
"x 	c #B4E782",
"y 	c #99DA59",
"z 	c #91D74C",
"A 	c #C2E89B",
"B 	c #F2F8E9",
"C 	c #E7FDD7",
"D 	c #DAFFC1",
"E 	c #D2FFB4",
"F 	c #CEFFAD",
"G 	c #CBFFA8",
"H 	c #C9FFA6",
"I 	c #C9FFA5",
"J 	c #CAFFA7",
"K 	c #CDFFAC",
"L 	c #D1FFB2",
"M 	c #D7FFBD",
"N 	c #E1FECD",
"O 	c #F3FAEC",
"P 	c #D1EEB5",
"Q 	c #8FD548",
"R 	c #B4E781",
"S 	c #B3E780",
"T 	c #90D64A",
"U 	c #99DA5A",
"V 	c #A6DE6E",
"W 	c #DFF4CA",
"X 	c #F5FFEF",
"Y 	c #CFFFB0",
"Z 	c #C8FFA4",
"` 	c #D0FFB0",
" .	c #D8FFBE",
"..	c #DCFEC4",
"+.	c #E4FDD2",
"@.	c #E8FCD9",
"#.	c #EAFCDC",
"$.	c #E6FDD5",
"%.	c #DCFEC5",
"&.	c #D9FFC0",
"*.	c #D1FFB3",
"=.	c #CAFFA6",
"-.	c #EFFFE4",
";.	c #F5FEEF",
">.	c #ADE17B",
",.	c #B2E77F",
"'.	c #90D64B",
").	c #9ADA5A",
"!.	c #9BDA5B",
"~.	c #C0E698",
"{.	c #F2FDEA",
"].	c #DCFFC4",
"^.	c #C8FFA3",
"/.	c #D4FFB7",
"(.	c #EBFFDE",
"_.	c #EAF9DD",
":.	c #D3EEB8",
"<.	c #C2E89C",
"[.	c #B3E283",
"}.	c #ABE077",
"|.	c #A9E073",
"1.	c #AEE17C",
"2.	c #BCE592",
"3.	c #CDECAE",
"4.	c #E5F6D6",
"5.	c #EEFFE2",
"6.	c #DCFFC6",
"7.	c #D2FFB5",
"8.	c #F1FFE7",
"9.	c #98D956",
"0.	c #8FD64B",
"a.	c #B2E67D",
"b.	c #91D64C",
"c.	c #9BDA5D",
"d.	c #C9EAA6",
"e.	c #CEFFAE",
"f.	c #F1FFE8",
"g.	c #F0FBE7",
"h.	c #B2E281",
"i.	c #A1DD67",
"j.	c #9CDB5E",
"k.	c #9ADA5C",
"l.	c #9BDB5E",
"m.	c #9BDB5D",
"n.	c #9BDB5C",
"o.	c #9FDC64",
"p.	c #D7F1BE",
"q.	c #F8FFF3",
"r.	c #CEFFAF",
"s.	c #E8FFD8",
"t.	c #E5F3D5",
"u.	c #B1E67D",
"v.	c #B1E67C",
"w.	c #A0DC65",
"x.	c #A0DD65",
"y.	c #B9E58D",
"z.	c #F5FFED",
"A.	c #CBFFA9",
"B.	c #F0FEE6",
"C.	c #CEEDB0",
"D.	c #8FD74A",
"E.	c #9CDB5F",
"F.	c #9DDC61",
"G.	c #A0DD64",
"H.	c #9EDC62",
"I.	c #BEE797",
"J.	c #F6FCF0",
"K.	c #C7FFA1",
"L.	c #E5FFD4",
"M.	c #D4EFB8",
"N.	c #99D959",
"O.	c #B0E67C",
"P.	c #B1E57B",
"Q.	c #91D74D",
"R.	c #95D752",
"S.	c #BEE694",
"T.	c #EFF8E6",
"U.	c #F3FBEC",
"V.	c #E3FFD0",
"W.	c #D3FFB6",
"X.	c #F3FDEC",
"Y.	c #B6E489",
"Z.	c #98DA59",
"`.	c #9DDB60",
" +	c #B0E17F",
".+	c #CDEBAF",
"++	c #DCF2C7",
"@+	c #E5F5D3",
"#+	c #E6F5D7",
"$+	c #E0F3CD",
"%+	c #D2EDB7",
"&+	c #B9E48E",
"*+	c #98DA58",
"=+	c #A6DF6F",
"-+	c #EAF8DD",
";+	c #DAFFC2",
">+	c #BCE693",
",+	c #93D74E",
"'+	c #B0E57A",
")+	c #AFE57A",
"!+	c #BEE594",
"~+	c #E1FDCF",
"{+	c #E2FCD0",
"]+	c #F0F7E7",
"^+	c #ABE076",
"/+	c #9EDB61",
"(+	c #D5F0BB",
"_+	c #FFFFFF",
":+	c #A8E073",
"<+	c #F0F6E7",
"[+	c #E9FDDB",
"}+	c #D8FFBF",
"|+	c #D4FFB6",
"1+	c #D0FFB1",
"2+	c #D3FFB5",
"3+	c #E3FDD1",
"4+	c #F4F9EC",
"5+	c #C5E9A2",
"6+	c #A2DD69",
"7+	c #F4FBED",
"8+	c #CCFFAA",
"9+	c #FBFFF8",
"0+	c #A5DE6C",
"a+	c #93D851",
"b+	c #AEE579",
"c+	c #BEE595",
"d+	c #DEFBCA",
"e+	c #CFFCB0",
"f+	c #D6FDBB",
"g+	c #FEFFFE",
"h+	c #A1DD66",
"i+	c #BDE794",
"j+	c #FCFFF8",
"k+	c #C8FFA2",
"l+	c #D6FFBB",
"m+	c #D9FFC1",
"n+	c #D8FFBD",
"o+	c #CDFEAC",
"p+	c #F6FFF1",
"q+	c #D2EEB7",
"r+	c #9EDC61",
"s+	c #FAFEF6",
"t+	c #DAFFC3",
"u+	c #EEF8E3",
"v+	c #93D751",
"w+	c #ADE577",
"x+	c #AEE577",
"y+	c #CDFDAC",
"z+	c #CEFDAF",
"A+	c #E2FDD0",
"B+	c #EFFAE6",
"C+	c #C9EAA8",
"D+	c #95D953",
"E+	c #CAEBA9",
"F+	c #FDFFFC",
"G+	c #CDFFAB",
"H+	c #E9FFDB",
"I+	c #EBF8DF",
"J+	c #D5EFBB",
"K+	c #CBEBAB",
"L+	c #D1EDB5",
"M+	c #E6F6D7",
"N+	c #D1FFB4",
"O+	c #E8FFD9",
"P+	c #DCF1C7",
"Q+	c #98DA57",
"R+	c #BBE590",
"S+	c #EAFFDC",
"T+	c #E8FEDB",
"U+	c #93D84F",
"V+	c #90D64C",
"W+	c #ADE576",
"X+	c #ADE476",
"Y+	c #D4FDB8",
"Z+	c #E1FCCF",
"`+	c #B7E48A",
" @	c #A3DD6A",
".@	c #F5FFEE",
"+@	c #FFFFFE",
"@@	c #B8E48B",
"#@	c #A1DC67",
"$@	c #99D95A",
"%@	c #9FDB64",
"&@	c #B2E283",
"*@	c #F7FBF3",
"=@	c #DDFEC6",
"-@	c #C9FFA4",
";@	c #EBFFDD",
">@	c #DAEFC4",
",@	c #A0DB64",
"'@	c #E7F7D9",
")@	c #D7FFBB",
"!@	c #D6EFBE",
"~@	c #ACE474",
"{@	c #ACE473",
"]@	c #CEFEAF",
"^@	c #D2FCB6",
"/@	c #FBFFF9",
"(@	c #D3EEB7",
"_@	c #A2DC68",
":@	c #CAEAA8",
"<@	c #A6DE70",
"[@	c #C4FF9E",
"}@	c #F1FBE9",
"|@	c #ADE07A",
"1@	c #99D958",
"2@	c #C6E9A1",
"3@	c #DDFFC5",
"4@	c #EDFCE2",
"5@	c #ABE472",
"6@	c #BEE696",
"7@	c #CCFFA9",
"8@	c #CCFEAA",
"9@	c #CEFDAE",
"0@	c #E4FED1",
"a@	c #EFFBE5",
"b@	c #C9EAA7",
"c@	c #97D856",
"d@	c #9BDA5E",
"e@	c #F0FBE6",
"f@	c #CFFFAF",
"g@	c #DAF0C3",
"h@	c #9CDA5D",
"i@	c #A5DE6D",
"j@	c #ECFCE1",
"k@	c #C7FFA2",
"l@	c #A9E074",
"m@	c #93D850",
"n@	c #AAE471",
"o@	c #BEE695",
"p@	c #CDFFAA",
"q@	c #D2FDB6",
"r@	c #F4F9EE",
"s@	c #C2E79D",
"t@	c #CEEBB0",
"u@	c #EDFBE2",
"v@	c #A4DD6A",
"w@	c #F1F8E8",
"x@	c #E4FFD2",
"y@	c #B4E484",
"z@	c #A9E370",
"A@	c #A9E46F",
"B@	c #CDFDAD",
"C@	c #D1FCB4",
"D@	c #F9FFF4",
"E@	c #DEF2C9",
"F@	c #A9DE72",
"G@	c #ACDF78",
"H@	c #E9FBDA",
"I@	c #EAFDDB",
"J@	c #AFE17C",
"K@	c #E7F5D8",
"L@	c #DBFFC3",
"M@	c #C8EBA5",
"N@	c #A8E36E",
"O@	c #A8E46E",
"P@	c #CCFFAB",
"Q@	c #CDFDAE",
"R@	c #DFFECC",
"S@	c #F3FCEA",
"T@	c #D0EDB1",
"U@	c #9DDA5E",
"V@	c #F3F8EB",
"W@	c #C5FF9F",
"X@	c #B5E386",
"Y@	c #E1FFCE",
"Z@	c #D4FFB8",
"`@	c #D6F1BD",
" #	c #8DD546",
".#	c #91D64D",
"+#	c #A7E36D",
"@#	c #A7E36C",
"##	c #91D74E",
"$#	c #DEFBCB",
"%#	c #D4FCB9",
"&#	c #FFFEFF",
"*#	c #D2EDB5",
"=#	c #F4F6ED",
"-#	c #C6FFA0",
";#	c #B6E48A",
">#	c #99DA58",
",#	c #D7F0BE",
"'#	c #E7FFD5",
")#	c #DDF4C7",
"!#	c #8BD544",
"~#	c #A6E36B",
"{#	c #A6E36A",
"]#	c #F3F9EC",
"^#	c #BFE796",
"/#	c #C6FF9E",
"(#	c #DDF2C9",
"_#	c #E2FFCD",
":#	c #D5FFB9",
"<#	c #A5E36A",
"[#	c #A5E269",
"}#	c #BEE596",
"|#	c #CCFEAB",
"1#	c #CFFDB0",
"2#	c #E4FED3",
"3#	c #EFFBE6",
"4#	c #9DDB61",
"5#	c #AFE17B",
"6#	c #E7F5D9",
"7#	c #C7EBA5",
"8#	c #A4E268",
"9#	c #A5E268",
"0#	c #DEFCCB",
"a#	c #D5FCB9",
"b#	c #FDFFFB",
"c#	c #CFEDB1",
"d#	c #C9E9A6",
"e#	c #DCFFC5",
"f#	c #CEFFAC",
"g#	c #A3DC68",
"h#	c #F3F9EA",
"i#	c #E3FFD1",
"j#	c #B5E486",
"k#	c #A4E267",
"l#	c #A4E266",
"m#	c #DEFCCA",
"n#	c #D5FDBA",
"o#	c #F3F7EC",
"p#	c #9ADA59",
"q#	c #A3DD68",
"r#	c #EDF9E3",
"s#	c #D6FFBC",
"t#	c #DAF0C2",
"u#	c #A3DD6B",
"v#	c #A3E265",
"w#	c #A2E264",
"x#	c #CDFEAB",
"y#	c #E6FED7",
"z#	c #EFFAE5",
"A#	c #C2E89D",
"B#	c #E2F3CF",
"C#	c #DEFFC9",
"D#	c #EEFCE3",
"E#	c #C4E9A0",
"F#	c #ECFBE0",
"G#	c #A1E263",
"H#	c #A2E163",
"I#	c #93D852",
"J#	c #CEFCAF",
"K#	c #D9FDC1",
"L#	c #CBEBAA",
"M#	c #9FDC63",
"N#	c #AAE075",
"O#	c #EEF8E5",
"P#	c #E7FED7",
"Q#	c #F5FAEF",
"R#	c #BFE698",
"S#	c #97D957",
"T#	c #ACE079",
"U#	c #F4F7EE",
"V#	c #D9F0C2",
"W#	c #EAF8DC",
"X#	c #D2FFB2",
"Y#	c #D4EEB9",
"Z#	c #A1E162",
"`#	c #A1E161",
" $	c #DFFCCA",
".$	c #CDFEAD",
"+$	c #D6FCBD",
"@$	c #F0F7E6",
"#$	c #D9F0C1",
"$$	c #F2FEE9",
"%$	c #CEFEAD",
"&$	c #F7FFF1",
"*$	c #E9F7DA",
"=$	c #BAE691",
"-$	c #B1E180",
";$	c #B4E385",
">$	c #D3FFB4",
",$	c #CBFFA7",
"'$	c #E2FFCE",
")$	c #E8F4D8",
"!$	c #8ED647",
"~$	c #E7FDD8",
"{$	c #AFE17D",
"]$	c #91D64E",
"^$	c #A0E161",
"/$	c #9FE05F",
"($	c #DDFCC7",
"_$	c #E8FED9",
":$	c #ECF8E0",
"<$	c #C0E798",
"[$	c #F1FDE9",
"}$	c #D7FFBC",
"|$	c #E4FFD1",
"1$	c #E7FFD7",
"2$	c #E6FFD5",
"3$	c #D9EFC1",
"4$	c #9ADB5B",
"5$	c #96D954",
"6$	c #A7DF71",
"7$	c #F8FEF3",
"8$	c #EBF6DE",
"9$	c #9FE05E",
"0$	c #92D64E",
"a$	c #94D751",
"b$	c #BDE593",
"c$	c #E8FDD9",
"d$	c #FDFEFB",
"e$	c #FCFDF9",
"f$	c #B4E486",
"g$	c #E4F4D3",
"h$	c #E0FFCD",
"i$	c #C5FF9E",
"j$	c #EFF9E5",
"k$	c #AFE27D",
"l$	c #9EE05D",
"m$	c #B9E48F",
"n$	c #EEF6E4",
"o$	c #A9DF75",
"p$	c #8FD549",
"q$	c #F5FBEE",
"r$	c #CFFFAE",
"s$	c #F8FEF4",
"t$	c #AFE27E",
"u$	c #8ED648",
"v$	c #A9DF73",
"w$	c #E0F1CD",
"x$	c #EFF5E6",
"y$	c #F2F7EB",
"z$	c #F2F6E9",
"A$	c #E5F2D4",
"B$	c #B8E48C",
"C$	c #9EE05C",
"D$	c #9DE05B",
"E$	c #F0FFE5",
"F$	c #F0FEE7",
"G$	c #C8EAA6",
"H$	c #98D857",
"I$	c #98D959",
"J$	c #BAE58F",
"K$	c #F0FAE5",
"L$	c #E6FFD6",
"M$	c #D2EDB6",
"N$	c #9DE05A",
"O$	c #97DD55",
"P$	c #8ED549",
"Q$	c #8FD54C",
"R$	c #90D64D",
"S$	c #92D650",
"T$	c #92D750",
"U$	c #93D752",
"V$	c #B8E58D",
"W$	c #F7FEF2",
"X$	c #E1FFCC",
"Y$	c #F4F9ED",
"Z$	c #BDE796",
"`$	c #8BD446",
" %	c #90D64E",
".%	c #93D753",
"+%	c #94D753",
"@%	c #91D750",
"#%	c #87D33F",
"$%	c #A6DE6F",
"%%	c #EDF7E2",
"&%	c #F4FFED",
"*%	c #D9F1C1",
"=%	c #91D64F",
"-%	c #8FD64C",
";%	c #8FD54B",
">%	c #8ED54B",
",%	c #8DD549",
"'%	c #97DD54",
")%	c #90DC4E",
"!%	c #87D344",
"~%	c #88D445",
"{%	c #88D545",
"]%	c #8AD547",
"^%	c #8AD548",
"/%	c #8BD549",
"(%	c #8CD64A",
"_%	c #8CD64B",
":%	c #87D343",
"<%	c #BCE695",
"[%	c #F6FCF1",
"}%	c #F6FFEF",
"|%	c #F3FCEB",
"1%	c #C3EA9F",
"2%	c #A9DF77",
"3%	c #A1DC6A",
"4%	c #9BDB63",
"5%	c #9BDA61",
"6%	c #9FDC69",
"7%	c #A7DF75",
"8%	c #B7E58E",
"9%	c #EAF9DE",
"0%	c #EFFEE4",
"a%	c #CBECAF",
"b%	c #7ED035",
"c%	c #8BD54A",
"d%	c #89D547",
"e%	c #88D444",
"f%	c #87D444",
"g%	c #90DC4D",
"h%	c #8AD945",
"i%	c #82D13E",
"j%	c #83D13F",
"k%	c #83D240",
"l%	c #84D340",
"m%	c #84D242",
"n%	c #85D243",
"o%	c #86D344",
"p%	c #87D446",
"q%	c #82D23E",
"r%	c #95D85B",
"s%	c #DAF1C5",
"t%	c #EFFFE3",
"u%	c #DEFFC8",
"v%	c #EAFEDD",
"w%	c #E8FFDA",
"x%	c #E9FFDA",
"y%	c #E7F7DA",
"z%	c #A6DE75",
"A%	c #82D13D",
"B%	c #86D343",
"C%	c #84D241",
"D%	c #81D13D",
"E%	c #83D73D",
"F%	c #7DD037",
"G%	c #7ED039",
"H%	c #7ED03A",
"I%	c #7FD13A",
"J%	c #7FD13B",
"K%	c #80D13D",
"L%	c #81D13E",
"M%	c #9ADB64",
"N%	c #D9F1C3",
"O%	c #E4FFD3",
"P%	c #C6FF9F",
"Q%	c #FCFFF7",
"R%	c #EEFAE4",
"S%	c #A6DF79",
"T%	c #86D445",
"U%	c #7ED13A",
"V%	c #80D13C",
"W%	c #7DD038",
"X%	c #7CD037",
"Y%	c #7BD636",
"Z%	c #76CE32",
"`%	c #77CF33",
" &	c #77CF34",
".&	c #78D034",
"+&	c #78D035",
"@&	c #79D036",
"#&	c #79D037",
"$&	c #7AD038",
"%&	c #7ACF37",
"&&	c #72CD2B",
"*&	c #8DD754",
"=&	c #D0EDB9",
"-&	c #EAF6E2",
";&	c #E8FBDA",
">&	c #E4FCD4",
",&	c #E4FCD2",
"'&	c #E6FBD6",
")&	c #EBFAE0",
"!&	c #ECF6E3",
"~&	c #DDF1CE",
"{&	c #9CDC6B",
"]&	c #6ECB25",
"^&	c #78CF34",
"/&	c #76CF32",
"(&	c #74D32E",
"_&	c #70CC2C",
":&	c #71CC2D",
"<&	c #72CC2E",
"[&	c #72CD2D",
"}&	c #71CC2E",
"|&	c #71CD2F",
"1&	c #72CD2E",
"2&	c #72CE2F",
"3&	c #73CE30",
"4&	c #73CD30",
"5&	c #74CE31",
"6&	c #71CD2E",
"7&	c #6CCB26",
"8&	c #72CD2F",
"9&	c #79D03A",
"0&	c #84D34A",
"a&	c #8BD554",
"b&	c #8DD657",
"c&	c #88D44F",
"d&	c #79CF3A",
"e&	c #6CCB25",
"f&	c #6FCD2A",
"g&	c #6FD228",
"h&	c #6BCA27",
"i&	c #6CCA27",
"j&	c #6DCA28",
"k&	c #6DCA29",
"l&	c #6DCB29",
"m&	c #6ECB2A",
"n&	c #6ECB29",
"o&	c #6DCB28",
"p&	c #63C220",
"q&	c #66C920",
"r&	c #65C920",
"s&	c #66C921",
"t&	c #66C922",
"u&	c #62C11F",
"v&	c #31640E",
"w&	c #65D31C",
"x&	c #60C71B",
"y&	c #5FC61A",
"z&	c #5FC61B",
"A&	c #60C61B",
"B&	c #61C61C",
"C&	c #61C61D",
"D&	c #62C61D",
"E&	c #62C61E",
"F&	c #2F630E",
"G&	c #030701",
"H&	c #2E640B",
"I&	c #5DCC14",
"J&	c #62DA17",
"K&	c #62D917",
"L&	c #63D916",
"M&	c #66DA1B",
"N&	c #6ADC21",
"O&	c #6EDD27",
"P&	c #72DF2C",
"Q&	c #76E033",
"R&	c #7BE238",
"S&	c #7FE33F",
"T&	c #83E444",
"U&	c #82E442",
"V&	c #7EE33D",
"W&	c #7AE237",
"X&	c #74DF30",
"Y&	c #71DE2A",
"Z&	c #6DDD25",
"`&	c #68DB1D",
" *	c #64DA18",
".*	c #62D916",
"+*	c #2E630B",
"@*	c #000000",
"                                                                                                ",
"                                                                                                ",
"                                                                                                ",
"        . + @ # # # # # # @ $ % % % $ $ $ $ $ $ $ $ $ $ % % % % @ @ # # # # # # # @ + &         ",
"      * = - ; ; ; > , , , , , ' ) ) ! ~ ! { { { { ! ! ! ! ) ' ) , , , , > > ; ; ; ; - = ]       ",
"      ^ / / ( ( _ _ : < [ [ } | , , , , , ! ! 1 , , , ) ) , | | [ [ [ : : _ ( ( 2 2 / 2 3       ",
"      4 5 ( ( _ _ : [ [ | , ) ) ! 6 6 ' ! 7 8 9 0 a b c d , | ) , , | [ [ : _ ( ( 2 2 5 4       ",
"      e f ( _ : [ | , ) g h i - j [ j k l m n o p q r s t u v w 2 i { ) | [ [ _ ( ( 2 5 e       ",
"      x f : : [ , ! g - j j y y z A B C D E F G H I J K L M N O P Q g i g ) | [ : ( ( 5 R       ",
"      S T : [ , ! h - j y U j V W X Y Z `  ...+.@.#.$.%.&.*.G =.-.;.>.- i 6 , | [ _ ( f S       ",
"      ,.'.[ | { i j y ).!.i ~.{.].^./.(._.:.<.[.}.|.1.2.3.4.5.6.^.7.8.3.; 9.6 ) [ : _ 0.,.      ",
"      a.b.| ) g j U 7 c.7 d.r e.I f.g.h.i.j.k.l.j.j.l.m.n.o.}.p.q.r.G s.t.' i g , [ : 0.u.      ",
"      v.b., ) w.x.- c.U y.z.A.*.B.C.D.l.E.l.n.F.G.x.H.m.m.E.E.> I.J. .K.L.M.N.i ) [ : 0.O.      ",
"      P.Q., R.S.T.A c.z U.V.W.X.Y.Z.`.7 7  +.+++@+#+$+%+&+H.*+`.j =+-+;+=.5.>+,+! [ : '.'+      ",
"      )+Q.) , !+~+{+]+^+/+(+_+:+7 j.).1.<+[+}+|+1+1+2+ .3+4+5+' j.m.6+7+ .8+9+0+a+[ [ '.b+      ",
"      b+/ ) , c+d+e+f+g+:.h+[ j.j.n.i+j+W.k+Y l+m+D n+*.I o+p+q+r+j.U 0 s+K t+u+v+[ [ '.w+      ",
"      x+2 ) , c+d+y+8+z+A+B+C+j.D+E+F+G G+H+I+J+K+C+L+M+r N+Z O+P+Q+c.i R+S+k+T+ +U+[ V+W+      ",
"      X+2 ) , c+d+y+8+8+K Y+Z+4+`+ @$+.@+@@@#@w $@$@7 %@&@*@=@-@;@>@i c.,@'@E )@!@; [ V+~@      ",
"      {@2 ) , c+d+y+8+8+8+8+]@^@/@(@_@:@<@U c.c.c.c.c.c.$@c.4+n+[@}@|@k.1@2@3@F 4@E.[ V+5@      ",
"      5@2 ) R.6@d+y+8+8+8+8+7@8@9@0@a@b@8 c@d@c.c.c.c.c.c.7 0 e@f@l+g@h@!.i@j@k@S+l@m@V+n@      ",
"      n@2 ) | o@d+y+8+8+8+8+8+8+8+p@q@A+r@s@: c.c.c.c.c.c.c.7 t@&.e.u@v@7 y w@=.x@y@U+V+z@      ",
"      A@2 ) | o@d+y+8+8+8+8+8+8+8+8+7@B@C@D@E@F@k.k.c.c.c.c.k.G@H@Z I@J@U ; K@ .L@M@5 V+N@      ",
"      O@2 , | o@d+y+8+8+8+8+8+8+8+8+8+8+P@Q@R@S@T@v@w w w w w U@V@W@L.X@y U+E@Y@Z@`@ #.#+#      ",
"      @###, | o@$#y+8+8+8+8+8+8+8+8+8+8+8+7@9@%#&#*#h@w w w w w =#-#x@;#>#m@,#'#E )#!#.#~#      ",
"      {#2 , ; 6@$#y+8+8+8+8+8+8+8+8+8+8+8+%#3+]#^#2 7 7 7 7 7 c.V@/#L.^ >#2 (#_#:#`@ #.#<#      ",
"      [#2 , ; }#$#y+8+8+8+8+8+8+8+7@|#1#2#3#b@4#! k.7 7 7 7 U 0 n Z H+5#Z.[ 6#n+L@7#5 .#8#      ",
"      9#2 , ; o@0#y+8+8+8+8+8+8+7@z+a#b#c#v@>#).).).).).).).- d#e#f#a@g#U - h#-@i#j#2 .#k#      ",
"      l#2 , ; 6@m#y+8+8+8+8+8+o+n#+.o#[.| ).).).).).).).).p#q#r#` s#t#d y u#j@^.S+l@( .#v#      ",
"      w#2 | ; o@m#y+8+8+8+x#e+y#z#A#y o@i@| 7 ).).).U ).g k.B#C#^.D#1.*+i E#3@F F#j.: .#G#      ",
"      H#( | I#o@m#y+8+P@J#K#_+L#M#N#O#P#Q#R#f S#Z.Z.Z.m@T#U#].Z 5.V#' y `.W#X#)@Y#[ : .#Z#      ",
"      `#( | I#6@ $.$o++$C @$V a+' #$$$=.%$&$*$=$-$ +;$`@b#>$,$'$)$!$).6 R+H+I ~${$U+: ]$^$      ",
"      /$_ | v+o@($C@_$:$<$6 H., U [ 2@[$}$^.E |$1$P#2$n+Z E 5.3$4$).5$6$7$f#m+8$2 [ : ]$/$      ",
"      9$0$[ a$b$c$d$b@w.6 B#e$f$} y y l@g$F+h$A.i$i$J L@q.j$k$).j S#8 Q#E 8+_+7 [ : : ]$l$      ",
"      l$0$[ : m$n$o$2 p$q$2$r$s$t$S#j j u$v$w$x$y$o#z$A$B$z - j {  @'@}$A.5.X@m@} : _ .#C$      ",
"      D$0$[ [ c.; | - ! `+E$8+L F$G$H$[ I$6 ( 6 N.U S#m@; I$! , J$K$L@Z L$M$! , [ : _ ]$N$      ",
"      O$P$Q$R$]$S$T$v+U$U$V$W$,$G+X$Y$Z$`$ %.%.%+%+%.%.%@%#%$%%%y#L Z &%*%=%=%]$-%;%>%,%'%      ",
"      )%!%~%{%]%^%/%(%_%_%:%<%[% .,$K }%|%1%2%3%4%5%6%7%8%9%b#}$I 2+0%a%b%c%]%d%~%e%f%:%g%      ",
"      h%i%j%k%l%m%m%n%o%o%p%q%r%s%t%M ^.K u%L$v%v%p p w%'$L ^.L x%y%z%A%B%m%C%k%k%j%i%D%h%      ",
"      E%F%G%G%H%I%J%J%K%K%L%L%K%k%M%N%_+O%G P%I J J H K.-@e#Q%R%S%T%U%V%J%I%H%H%G%G%W%X%E%      ",
"      Y%Z%`%`% & &.&+&@&@&#&#&$&$&%&&&*&=&-&B+;&>&,&'&)&!&~&{&]& &#&@&+&+&^& &`%`%/&/&Z%Y%      ",
"      (&_&_&:&<&[&}&|&1&1&2&2&3&3&4&5&6&7&8&9&0&a&b&c&d&5&e&f&3&2&8&1&6&}&}&[&:&_&_&_&_&(&      ",
"      g&h&i&i&i&i&j&j&j&j&k&k&k&l&m&m&m&m&m&n&l&l&o&l&n&m&l&k&k&k&k&j&j&j&i&i&i&i&i&i&h&g&      ",
"      p&q&r&r&r&r&r&s&s&s&s&s&s&t&t&t&t&t&t&t&t&t&t&t&t&t&t&t&s&s&s&s&s&r&r&r&r&r&r&r&q&u&      ",
"      v&w&x&y&y&y&y&y&y&y&z&A&A&A&B&B&C&C&D&D&E&D&C&C&C&B&B&A&A&A&y&y&y&y&y&y&y&y&y&x&w&F&      ",
"      G&H&I&J&K&K&K&K&K&K&K&K&L&M&N&O&P&Q&R&S&T&U&V&W&X&Y&Z&`& *.*K&K&K&K&K&K&K&K&J&I&+*G&      ",
"        @*@*@*@*@*@*@*@*@*@*@*@*@*@*@*@*@*@*@*@*@*@*@*@*@*@*@*@*@*@*@*@*@*@*@*@*@*@*@*@*        ",
"                                                                                                ",
"                                                                                                "};
