/* XPM */
static const char * xfce_xpm[] = {
"64 64 454 2",
"  	c None",
". 	c #7B93B7",
"+ 	c #7991B5",
"@ 	c #7B93B6",
"# 	c #7E95B8",
"$ 	c #738CB3",
"% 	c #6A85AE",
"& 	c #6682AC",
"* 	c #6782AC",
"= 	c #6783AC",
"- 	c #6883AC",
"; 	c #6B86AE",
"> 	c #748DB3",
", 	c #8097BA",
"' 	c #7D95B9",
") 	c #6C81A0",
"! 	c #7790B5",
"~ 	c #7A93B7",
"{ 	c #5F7CA8",
"] 	c #3C6095",
"^ 	c #234B87",
"/ 	c #1F4885",
"( 	c #204985",
"_ 	c #204986",
": 	c #204885",
"< 	c #3D6095",
"[ 	c #607DA9",
"} 	c #7E96BA",
"| 	c #6E83A5",
"1 	c #7690B4",
"2 	c #6581AA",
"3 	c #2D538C",
"4 	c #214986",
"5 	c #2D538D",
"6 	c #6681AB",
"7 	c #7991B6",
"8 	c #394556",
"9 	c #768FB4",
"0 	c #4C6C9D",
"a 	c #4C6D9E",
"b 	c #7992B8",
"c 	c #374354",
"d 	c #436599",
"e 	c #446699",
"f 	c #7790B6",
"g 	c #718BB1",
"h 	c #506FA0",
"i 	c #5170A0",
"j 	c #687FA2",
"k 	c #6783AD",
"l 	c #6B86B0",
"m 	c #364255",
"n 	c #6F89B0",
"o 	c #3A5D94",
"p 	c #3A5E94",
"q 	c #62789A",
"r 	c #6B88B1",
"s 	c #4C6D9D",
"t 	c #224A87",
"u 	c #214A86",
"v 	c #4F6FA0",
"w 	c #303C4E",
"x 	c #395D93",
"y 	c #637FA9",
"z 	c #5E7AA5",
"A 	c #43536C",
"B 	c #2E548D",
"C 	c #1B4483",
"D 	c #D8DFE9",
"E 	c #8E9DB3",
"F 	c #20457D",
"G 	c #1E4784",
"H 	c #495B76",
"I 	c #6984AE",
"J 	c #29508A",
"K 	c #174181",
"L 	c #284F8A",
"M 	c #FFFFFF",
"N 	c #9AA7BB",
"O 	c #193765",
"P 	c #B4C2D6",
"Q 	c #C3CCD8",
"R 	c #1E4683",
"S 	c #6983AD",
"T 	c #224A86",
"U 	c #5473A1",
"V 	c #DBE1EB",
"W 	c #FBFCFD",
"X 	c #C1CDDD",
"Y 	c #30558E",
"Z 	c #5A78A4",
"` 	c #99A6BB",
" .	c #1A3866",
"..	c #1B3866",
"+.	c #20457C",
"@.	c #1B4583",
"#.	c #BAC6D9",
"$.	c #607595",
"%.	c #1C3A69",
"&.	c #234A86",
"*.	c #475A76",
"=.	c #6681AC",
"-.	c #436598",
";.	c #DFE4EB",
">.	c #1A4280",
",.	c #8097B9",
"'.	c #8D9DB3",
").	c #1B3967",
"!.	c #F9FAFC",
"~.	c #123161",
"{.	c #465874",
"].	c #6380AB",
"^.	c #284F89",
"/.	c #164080",
"(.	c #1A4482",
"_.	c #B9C6D9",
":.	c #5D7395",
"<.	c #234B86",
"[.	c #A9B9D0",
"}.	c #798AA6",
"|.	c #183664",
"1.	c #F7F9FB",
"2.	c #8F9DB4",
"3.	c #1C3B6A",
"4.	c #455774",
"5.	c #617EA9",
"6.	c #274F8A",
"7.	c #99ACC7",
"8.	c #E3E8EF",
"9.	c #416497",
"0.	c #194381",
"a.	c #EDF0F5",
"b.	c #B3BDCD",
"c.	c #183768",
"d.	c #1C4583",
"e.	c #D3DBE6",
"f.	c #5A7091",
"g.	c #183665",
"h.	c #9BA8BC",
"i.	c #223F6C",
"j.	c #425572",
"k.	c #5F7CA7",
"l.	c #284E8A",
"m.	c #869BBC",
"n.	c #365B91",
"o.	c #194382",
"p.	c #E8EDF2",
"q.	c #ECEEF2",
"r.	c #103060",
"s.	c #1C3C6B",
"t.	c #174281",
"u.	c #F7F8FA",
"v.	c #334E77",
"w.	c #324D76",
"x.	c #A7B3C4",
"y.	c #415471",
"z.	c #5D79A6",
"A.	c #274F89",
"B.	c #184281",
"C.	c #F2F4F8",
"D.	c #D9DFE8",
"E.	c #194280",
"F.	c #C2CDDE",
"G.	c #0E2E5E",
"H.	c #1D3C6C",
"I.	c #234B88",
"J.	c #113060",
"K.	c #133261",
"L.	c #C8CFDA",
"M.	c #294671",
"N.	c #3F5370",
"O.	c #5978A5",
"P.	c #274E89",
"Q.	c #687E9F",
"R.	c #224B87",
"S.	c #97AAC6",
"T.	c #1D3C6D",
"U.	c #4A6B9C",
"V.	c #DADFE6",
"W.	c #123261",
"X.	c #4E6589",
"Y.	c #A6B2C4",
"Z.	c #3D516F",
"`.	c #5776A3",
" +	c #30568E",
".+	c #CFD5DF",
"++	c #16386D",
"@+	c #627FAA",
"#+	c #314C76",
"$+	c #1D3D6E",
"%+	c #234C88",
"&+	c #6581AB",
"*+	c #A4B0C3",
"=+	c #D3D9E2",
"-+	c #213E6B",
";+	c #3B4F6E",
">+	c #5574A2",
",+	c #26426E",
"'+	c #28497B",
")+	c #3C557D",
"!+	c #1D3E6F",
"~+	c #6C86AE",
"{+	c #697D9B",
"]+	c #365179",
"^+	c #8797AF",
"/+	c #1C3B6B",
"(+	c #3A4E6C",
"_+	c #5372A1",
":+	c #264E89",
"<+	c #DFE4ED",
"[+	c #0C2B5D",
"}+	c #F5F7F9",
"|+	c #3E587F",
"1+	c #1D3E70",
"2+	c #1B3867",
"3+	c #8595AD",
"4+	c #EAECF1",
"5+	c #133262",
"6+	c #203E6D",
"7+	c #374C6B",
"8+	c #4F70A0",
"9+	c #A2B3CC",
"0+	c #8696AE",
"a+	c #E9ECF0",
"b+	c #D7DCE4",
"c+	c #6F829F",
"d+	c #496085",
"e+	c #213F6B",
"f+	c #143363",
"g+	c #1E3F71",
"h+	c #48638B",
"i+	c #173564",
"j+	c #B5BFCE",
"k+	c #496086",
"l+	c #1F3C6A",
"m+	c #324259",
"n+	c #4E6D9F",
"o+	c #264D89",
"p+	c #5B79A5",
"q+	c #FCFDFD",
"r+	c #CAD1DB",
"s+	c #95A3B9",
"t+	c #617695",
"u+	c #234476",
"v+	c #1A4483",
"w+	c #455E83",
"x+	c #5E7394",
"y+	c #1F3C69",
"z+	c #304058",
"A+	c #4C6B9D",
"B+	c #4E6E9E",
"C+	c #DEE3EC",
"D+	c #9BADC8",
"E+	c #4F709F",
"F+	c #123568",
"G+	c #193866",
"H+	c #1E3C69",
"I+	c #2F3F57",
"J+	c #4A6A9B",
"K+	c #889EBE",
"L+	c #95A3B8",
"M+	c #294571",
"N+	c #173664",
"O+	c #2D3D56",
"P+	c #46689A",
"Q+	c #E5EAF0",
"R+	c #AAB5C7",
"S+	c #2B3C54",
"T+	c #264D88",
"U+	c #3F6296",
"V+	c #5F7495",
"W+	c #163564",
"X+	c #1E3B69",
"Y+	c #2A3A52",
"Z+	c #426597",
"`+	c #254D88",
" @	c #8A9FBE",
".@	c #8091AB",
"+@	c #1E3B68",
"@@	c #283852",
"#@	c #406296",
"$@	c #1D4684",
"%@	c #CBD4E2",
"&@	c #1D3B69",
"*@	c #263751",
"=@	c #F8F9FA",
"-@	c #253650",
";@	c #3B5F95",
">@	c #456799",
",@	c #5B7092",
"'@	c #1D3B68",
")@	c #23344E",
"!@	c #3B5E93",
"~@	c #254C88",
"{@	c #738CB2",
"]@	c #8494AD",
"^@	c #1D3A68",
"/@	c #22334E",
"(@	c #385C92",
"_@	c #99ABC7",
":@	c #51688B",
"<@	c #21324C",
"[@	c #365B90",
"}@	c #B7C4D7",
"|@	c #D9DEE6",
"1@	c #1C3B68",
"2@	c #20314B",
"3@	c #35598F",
"4@	c #244C88",
"5@	c #C6D0DF",
"6@	c #F3F4F7",
"7@	c #26436E",
"8@	c #1E2F4A",
"9@	c #33568E",
"0@	c #CFD8E5",
"a@	c #DDE2E9",
"b@	c #24416D",
"c@	c #1C3A68",
"d@	c #1E2E48",
"e@	c #31558B",
"f@	c #244C87",
"g@	c #C5CFDF",
"h@	c #A0ACC0",
"i@	c #143362",
"j@	c #1C2D48",
"k@	c #B2BFD4",
"l@	c #E0E4EA",
"m@	c #405980",
"n@	c #1A2C46",
"o@	c #8BA0BF",
"p@	c #FEFEFE",
"q@	c #7B8CA7",
"r@	c #113161",
"s@	c #1A2B46",
"t@	c #31548A",
"u@	c #93A1B7",
"v@	c #1A2B45",
"w@	c #305489",
"x@	c #9EABBF",
"y@	c #193766",
"z@	c #305388",
"A@	c #8C9BB2",
"B@	c #1C3A67",
"C@	c #1A2A44",
"D@	c #305287",
"E@	c #EEF1F5",
"F@	c #6E819E",
"G@	c #153463",
"H@	c #192A43",
"I@	c #2F5285",
"J@	c #31578E",
"K@	c #F0F2F6",
"L@	c #F6F7F9",
"M@	c #A2AEC1",
"N@	c #3E577E",
"O@	c #192942",
"P@	c #254C86",
"Q@	c #A6B3C6",
"R@	c #9BA8BD",
"S@	c #496186",
"T@	c #0F2F5F",
"U@	c #1D3A67",
"V@	c #182840",
"W@	c #264D86",
"X@	c #1F4883",
"Y@	c #23416F",
"Z@	c #7689A4",
"`@	c #ACB7C8",
" #	c #C9D0DB",
".#	c #D0D7E0",
"+#	c #BDC6D3",
"@#	c #99A7BC",
"##	c #687C9A",
"$#	c #2B4772",
"%#	c #102F60",
"&#	c #1E3B67",
"*#	c #152339",
"=#	c #294D85",
"-#	c #143262",
";#	c #163463",
">#	c #213C67",
",#	c #0E1727",
"'#	c #2B4D81",
")#	c #233F67",
"!#	c #000000",
"~#	c #223E68",
"{#	c #254B84",
"]#	c #1D3A65",
"^#	c #1D3152",
"/#	c #13243C",
"(#	c #284B7E",
"_#	c #213B63",
":#	c #0D1626",
"<#	c #213E6A",
"[#	c #25497F",
"}#	c #1D3862",
"|#	c #1C3253",
"1#	c #254678",
"2#	c #244980",
"3#	c #1C3862",
"4#	c #1E375D",
"5#	c #05080E",
"6#	c #0D1A2D",
"7#	c #234577",
"8#	c #23477D",
"9#	c #1B3968",
"0#	c #1B3760",
"a#	c #1C365C",
"b#	c #0A1321",
"c#	c #0C182A",
"d#	c #214273",
"e#	c #214377",
"f#	c #234A85",
"g#	c #1B345A",
"h#	c #1B3359",
"i#	c #0A1320",
"j#	c #050A12",
"k#	c #1B3762",
"l#	c #204071",
"m#	c #204376",
"n#	c #224780",
"o#	c #1B3A68",
"p#	c #1A3661",
"q#	c #19335A",
"r#	c #193156",
"s#	c #152B4C",
"t#	c #03080D",
"u#	c #0B182B",
"v#	c #19335B",
"w#	c #1E3F70",
"x#	c #1D3E6E",
"y#	c #1D3F70",
"z#	c #1E4072",
"A#	c #1E4073",
"B#	c #1E3F72",
"C#	c #183259",
"D#	c #173158",
"E#	c #173157",
"F#	c #173057",
"G#	c #172F55",
"H#	c #172F54",
"I#	c #173056",
"J#	c #132746",
"K#	c #081220",
"L#	c #0A1628",
"M#	c #0F213B",
"N#	c #112541",
"O#	c #112542",
"P#	c #112441",
"Q#	c #0D1C32",
"R#	c #0E1C32",
"S#	c #0C192D",
"T#	c #08111F",
"U#	c #000100",
"                                                                                                                                ",
"                                                                                                                                ",
"                              . . . . . . . . . . . . . . . . . . . . . . . . . . . . . . . . . .                               ",
"                    + @ # $ % & * * * * * * * * * * * * * * * * * = = = = = = = = = = - - - - - - ; > , ' )                     ",
"                ! ~ { ] ^ / ( _ _ _ _ _ _ _ _ _ _ _ _ _ _ _ _ _ _ _ _ _ _ _ _ _ _ _ _ _ _ _ _ _ _ : / ^ < [ } |                 ",
"              1 2 3 4 ^ ^ ^ ^ ^ ^ ^ ^ ^ ^ ^ ^ ^ ^ ^ ^ ^ ^ ^ ^ ^ ^ ^ ^ ^ ^ ^ ^ ^ ^ ^ ^ ^ ^ ^ ^ ^ ^ ^ ^ ^ ^ 4 5 6 7 8             ",
"            9 0 : ^ ^ ^ ^ ^ ^ ^ ^ ^ ^ ^ ^ ^ ^ ^ ^ ^ ^ ^ ^ ^ ^ ^ ^ ^ ^ ^ ^ ^ ^ ^ ^ ^ ^ ^ ^ ^ ^ ^ ^ ^ ^ ^ ^ ^ ^ : a b c           ",
"          > d 4 ^ ^ ^ ^ ^ ^ ^ ^ ^ ^ ^ ^ ^ ^ ^ ^ ^ ^ ^ ^ ^ ^ ^ ^ ^ ^ ^ ^ ^ ^ ^ ^ ^ ^ ^ ^ ^ ^ ^ ^ ^ ^ ^ ^ ^ ^ ^ ^ 4 e f           ",
"        g h 4 ^ ^ ^ ^ ^ ^ ^ ^ ^ ^ ^ ^ ^ ^ ^ ^ ^ ^ ^ ^ ^ ^ ^ ^ ^ ^ ^ ^ ^ ^ ^ ^ ^ ^ ^ ^ ^ ^ ^ ^ ^ ^ ^ ^ ^ ^ ^ ^ ^ ^ 4 i j         ",
"        k 4 ^ ^ ^ ^ ^ ^ ^ ^ ^ ^ ^ ^ ^ ^ ^ ^ ^ ^ ^ ^ ^ ^ ^ ^ ^ ^ ^ ^ ^ ^ ^ ^ ^ ^ ^ ^ ^ ^ ^ ^ ^ ^ ^ ^ ^ ^ ^ ^ ^ ^ ^ ^ 4 l m       ",
"      n o ^ ^ ^ ^ ^ ^ ^ ^ ^ ^ ^ ^ ^ ^ ^ ^ ^ ^ ^ ^ ^ ^ ^ ^ ^ ^ ^ ^ ^ ^ ^ ^ ^ ^ ^ ^ ^ ^ ^ ^ ^ ^ ^ ^ ^ ^ ^ ^ ^ ^ ^ ^ ^ ^ p q       ",
"      = : ^ ^ ^ ^ ^ ^ ^ ^ ^ ^ ^ ^ ^ ^ ^ ^ ^ ^ ^ ^ ^ ^ ^ ^ ^ ^ ^ ^ ^ ^ ^ ^ ^ ^ ^ ^ ^ ^ ^ ^ ^ ^ ^ ^ ^ ^ ^ ^ ^ ^ ^ ^ ^ ^ : r       ",
"      s t ^ ^ ^ ^ ^ ^ ^ ^ ^ ^ ^ ^ ^ ^ ^ ^ ^ ^ ^ ^ ^ ^ ^ ^ ^ ^ ^ ^ ^ ^ ^ ^ ^ ^ ^ ^ u u ^ ^ ^ ^ ^ ^ ^ ^ ^ ^ ^ ^ ^ ^ ^ ^ t v w     ",
"      x ^ ^ ^ ^ ^ ^ ^ ^ ^ ^ ^ ^ ^ ^ ^ ^ ^ ^ ^ ^ ^ ^ ^ ^ ^ ^ ^ ^ ^ ^ ^ ^ ^ ^ ^ ^ ^ y z ^ ^ ^ ^ ^ ^ ^ ^ ^ ^ ^ ^ ^ ^ ^ ^ ^ p A     ",
"      B ^ ^ ^ ^ ^ ^ ^ ^ ^ ^ ^ ^ ^ ^ ^ ^ ^ ^ ^ ^ ^ ^ ^ ^ ^ ^ ^ ^ ^ ^ ^ ^ ^ ^ ^ ^ C D E F ^ ^ ^ ^ ^ G G ^ ^ ^ ^ ^ ^ ^ ^ ^ B H     ",
"    I J ^ ^ ^ ^ ^ ^ ^ ^ ^ ^ ^ ^ ^ ^ ^ ^ ^ ^ ^ ^ ^ C K G ^ ^ ^ ^ ^ ^ ^ ^ ^ ^ ^ ^ L M N O F ^ ^ ^ G P Q R ^ ^ ^ ^ ^ ^ ^ ^ J H     ",
"    S L ^ ^ ^ ^ ^ ^ ^ ^ ^ ^ ^ ^ ^ ^ ^ ^ ^ ^ ^ T U V W X Y ^ ^ ^ ^ ^ ^ ^ ^ ^ ^ ^ Z M `  ...+.^ @.#.M $.%.&.^ ^ ^ ^ ^ ^ ^ L *.    ",
"    =.L ^ ^ ^ ^ ^ ^ ^ ^ ^ ^ ^ ^ ^ ^ ^ ^ ^ ^ ^ -.M M M M ;.>.^ ^ ^ ^ ^ ^ ^ ^ ^ ^ ,.M '.).)...+.= M !.~.).%.&.^ ^ ^ ^ ^ ^ L {.    ",
"    ].^.^ ^ ^ ^ ^ ^ ^ ^ ^ ^ ^ ^ _ /.(.^ ^ ^ / _.M M M M M :.<.^ ^ ^ ^ ^ ^ ^ ^ _ [.M }.).).).|.1.M 2. .).).3.&.^ ^ ^ ^ ^ L 4.    ",
"    5.6.^ ^ ^ ^ ^ ^ ^ ^ ^ ^ ^ @.7.M 8.9.^ ^ 0.a.M M M M M b.c.^ ^ ^ ^ ^ ^ ^ ^ d.e.M f.).).g.h.M M i.).).).).3.&.^ ^ ^ ^ ^.j.    ",
"    k.l.^ ^ ^ ^ ^ ^ ^ ^ ^ ^ T m.M M M M n.^ o.p.M M M M M q.r.s.^ ^ ^ ^ ^ ^ ^ t.u.M v.).).w.M M x.g.).).).).).3.&.^ ^ ^ 6.y.    ",
"    z.A.^ ^ ^ ^ ^ ^ ^ ^ ^ ^ B.C.M M M M D.E.G F.M M M M M M G.).H.I.^ ^ ^ ^ ^ &.M M J.).K.L.M M M.).).).).).).).3.&.^ ^ l.N.    ",
"    O.P.^ ^ ^ ^ ^ ^ ^ ^ ^ ^ J M M M M M M Q.R.S.M M M M M M i.).).T.I.^ ^ ^ ^ U.M V.W.).X.M M Y.g.).).).).).).).).3.&.^ A.Z.    ",
"    `.P.^ ^ ^ ^ ^ ^ ^ ^ ^ ^  +M M M M M M .+++@+M M M M M M #+).).).$+%+^ ^ ^ &+M *+O ~.=+M M -+).).).).).).).).).).3.&.P.;+    ",
"    >+P.^ ^ ^ ^ ^ ^ ^ ^ ^ ^ (.M M M M M M M ,+'+M M M M M M )+).).).).!+%+^ ^ ~+M {+).]+M M ^+ .).).).).).).).).).).)./+P.(+    ",
"    _+:+^ ^ ^ ^ ^ ^ ^ ^ ^ ^ (.<+M M M M M M E [+}+M M M M M |+).).).).).1+%+^ U M 2+).3+M 4+5+).).).).).).).).).).).).).6+7+    ",
"    8+:+^ ^ ^ ^ ^ ^ ^ ^ ^ ^ u 9+M M M M M M M 0+a+M M M M M b+c+d+e+G.f+ .g+%+t h+ .i+j+M k+).).).).).).).).).).).).).).l+m+    ",
"    n+o+^ ^ ^ ^ ^ ^ ^ ^ ^ ^ ^ p+M M M M M M M M M M M M M M M M M M q+r+s+t+u+v+t $+).w+x+g.).).).).).).).).).).).).).).y+z+    ",
"    A+:+^ ^ ^ ^ ^ ^ ^ ^ ^ ^ ^ B+M M M M M M M M M M M M M M M M M M M M M M M C+D+E+F+G+).).).).).).).).).).).).).).).).H+I+    ",
"    J+o+^ ^ ^ ^ ^ ^ ^ ^ ^ ^ ^ K+M M M M M M M M M M M M M M M M M M M M M M M M M M }+L+M+N+).).).).).).).).).).).).).).H+O+    ",
"    P+o+^ ^ ^ ^ ^ ^ ^ ^ ^ ^ B.Q+M M M M M M M M M M M M M M M M M M M M M M M M M M M M M R+i.).).).).).).).).).).).).).H+S+    ",
"    e T+^ ^ ^ ^ ^ ^ ^ ^ ^ ^ U+M M M M M M M M M M M M M M M M M M M M M M M M M M M M M M M M V+W+).).).).).).).).).).).X+Y+    ",
"    Z+`+^ ^ ^ ^ ^ ^ ^ ^ ^ ^  @M M M M M M M M M M M M M M M M M M M M M M M M M M M M M M M M M .@W+).).).).).).).).).).+@@@    ",
"    #@`+^ ^ ^ ^ ^ ^ ^ ^ ^ $@%@M M M M M M M M M M M M M M M M M M M M M M M M M M M M M M M M M M f.).).).).).).).).).).&@*@    ",
"    < `+^ ^ ^ ^ ^ ^ ^ ^ ^ 0.M M M M M M M M M M M M M M M M M M M M M M M M M M M M M M M M M M M =@5+).).).).).).).).).&@-@    ",
"    ;@`+^ ^ ^ ^ ^ ^ ^ ^ ^ >@M M M M M M M M M M M M M M M M M M M M M M M M M M M M M M M M M M M M ,@).).).).).).).).).'@)@    ",
"    !@~@^ ^ ^ ^ ^ ^ ^ ^ ^ {@M M M M M M M M M M M M M M M M M M M M M M M M M M M M M M M M M M M M ]@).).).).).).).).).^@/@    ",
"    (@~@^ ^ ^ ^ ^ ^ ^ ^ t _@M M M M M M M M M M M M M M M M M M M M M M M M M M M M M M M M M M M M :@).).).).).).).).).'@<@    ",
"    [@~@^ ^ ^ ^ ^ ^ ^ ^ / }@M M M M M M M M M M M M M M M M M M M M M M M M M M M M M M M M M M M |@~.).).).).).).).).).1@2@    ",
"    3@4@^ ^ ^ ^ ^ ^ ^ ^ $@5@M M M M M M M M M M M M M M M M M M M M M M M M M M M M M M M M M M 6@7@).).).).).).).).).).^@8@    ",
"    9@4@^ ^ ^ ^ ^ ^ ^ ^ d.0@M M M M M M M M M M M M M M M M M M M M M M M M M M M M M M M M M a@b@).).).).).).).).).).).c@d@    ",
"    e@f@^ ^ ^ ^ ^ ^ ^ ^ $@g@M M M M M M M M M M M M M M M M M M M M M M M M M M M M M M M M h@i@).).).).).).).).).).).).c@j@    ",
"    e@f@^ ^ ^ ^ ^ ^ ^ ^ / k@M M M M M M M M M M M M M M M M M M M M M M M M M M M M M M l@m@i+).).).).).).).).).).).).).c@n@    ",
"    e@f@^ ^ ^ ^ ^ ^ ^ ^ ^ o@M M M M M M M M M M M M M M M M M M M M M M M M M M M M p@q@r@).).).).).).).).).).).).).).).c@s@    ",
"    t@f@^ ^ ^ ^ ^ ^ ^ ^ ^ _+M M M M M M M M M M M M M M M M M M M M M M M M M M M u@ . .).).).).).).).).).).).).).).).).c@v@    ",
"    w@4@^ ^ ^ ^ ^ ^ ^ ^ ^ 0.M M M M M M M M M M M M M M M M M M M M M M M M M x@i.y@).).).).).).).).).).).).).).).).).).c@v@    ",
"    z@f@^ ^ ^ ^ ^ ^ ^ ^ ^ u 7.M M M M M M M M M M M M M M M M M M M M M q+A@&@O ).).).).).).).).).).).).).).).).).).).).B@C@    ",
"    D@f@^ ^ ^ ^ ^ ^ ^ ^ ^ ^ / E@M M M M M M M M M M M M M M M M M M |@F@G@ .).).).).).).).).).).).).).).).).).).).).).).B@H@    ",
"    I@f@^ ^ ^ ^ ^ ^ ^ ^ ^ ^ ^ J@K@M M M M M M M M M M M M M M L@M@N@J.).).).).).).).).).).).).).).).).).).).).).).).).).B@O@    ",
"      P@^ ^ ^ ^ ^ ^ ^ ^ ^ ^ ^ ^ <.Q@M M M M M M M M M M a+R@S@T@O ).).).).).).).).).).).).).).).).).).).).).).).).).).).U@V@    ",
"      W@^ ^ ^ ^ ^ ^ ^ ^ ^ ^ ^ ^ ^ X@Y@Z@`@ #b+.#+#@###$#%#y@).).).).).).).).).).).).).).).).).).).).).).).).).).).).).).&#*#    ",
"      =#^ ^ ^ ^ ^ ^ ^ ^ ^ ^ ^ ^ ^ ^ &.3.g.f+5+-#;# .).).).).).).).).).).).).).).).).).).).).).).).).).).).).).).).).).).>#,#    ",
"      '#I.^ ^ ^ ^ ^ ^ ^ ^ ^ ^ ^ ^ ^ ^ &.3.).).).).).).).).).).).).).).).).).).).).).).).).).).).).).).).).).).).).).).).)#!#    ",
"      ~#{#^ ^ ^ ^ ^ ^ ^ ^ ^ ^ ^ ^ ^ ^ ^ &.3.).).).).).).).).).).).).).).).).).).).).).).).).).).).).).).).).).).).).).]#^#      ",
"      /#(#I.^ ^ ^ ^ ^ ^ ^ ^ ^ ^ ^ ^ ^ ^ ^ &.3.).).).).).).).).).).).).).).).).).).).).).).).).).).).).).).).).).).).)._#:#      ",
"        <#[#^ ^ ^ ^ ^ ^ ^ ^ ^ ^ ^ ^ ^ ^ ^ ^ &.3.).).).).).).).).).).).).).).).).).).).).).).).).).).).).).).).).).).}#|#!#      ",
"          1#2#^ ^ ^ ^ ^ ^ ^ ^ ^ ^ ^ ^ ^ ^ ^ ^ &.3.).).).).).).).).).).).).).).).).).).).).).).).).).).).).).).).).3#4#5#        ",
"          6#7#8#I.^ ^ ^ ^ ^ ^ ^ ^ ^ ^ ^ ^ ^ ^ ^ &.3.).).).).).).).).).).).).).).).).).).).).).).).).).).).).).9#0#a#b#          ",
"            c#d#e#f#I.^ ^ ^ ^ ^ ^ ^ ^ ^ ^ ^ ^ ^ ^ &.3.).).).).).).).).).).).).).).).).).).).).).).).).).).)...g#h#i#            ",
"              j#k#l#m#n#^ %+I.I.I.I.I.I.I.I.I.I.I.I.^ 3.9#9#9#9#9#9#9#9#9#9#9#9#9#9#9#9#9#9#9#9#9#9#o#).p#q#r#s#t#              ",
"                  u#v#w#x#y#z#A#A#A#A#A#A#A#A#A#A#A#A#B#C#D#E#E#E#E#E#E#E#E#E#E#E#E#E#E#E#E#E#E#E#F#G#H#I#J#K#!#                ",
"                      !#L#M#N#O#O#O#O#O#O#O#O#O#O#O#O#O#P#Q#R#R#R#R#R#R#R#R#R#R#R#R#R#R#R#R#R#R#R#R#S#T#U#!#                    ",
"                                                                                                                                ",
"                                                                                                                                "};
