/* XPM */
static const char * xfce_xpm[] = {
"48 48 425 2",
"  	c None",
". 	c #7D95B8",
"+ 	c #7E95B8",
"@ 	c #7E96B8",
"# 	c #8399BB",
"$ 	c #738CB3",
"% 	c #6D88B0",
"& 	c #6E87B0",
"* 	c #6E88B0",
"= 	c #6F88B0",
"- 	c #6F89B0",
"; 	c #748DB3",
"> 	c #859BBD",
", 	c #758FB4",
"' 	c #6682AC",
") 	c #3A5F94",
"! 	c #1C4583",
"~ 	c #1B4583",
"{ 	c #1C4684",
"] 	c #1B4483",
"^ 	c #3B5F94",
"/ 	c #6985B0",
"( 	c #6F85A8",
"_ 	c #6884AD",
": 	c #1F4784",
"< 	c #214986",
"[ 	c #234B87",
"} 	c #1E4785",
"| 	c #3C5F95",
"1 	c #6781A9",
"2 	c #4A596D",
"3 	c #637FAA",
"4 	c #2A508B",
"5 	c #224A86",
"6 	c #2A518B",
"7 	c #627EA6",
"8 	c #6C87AF",
"9 	c #31568F",
"0 	c #224A87",
"a 	c #325790",
"b 	c #667FA4",
"c 	c #4B6B9D",
"d 	c #1E4784",
"e 	c #4E70A3",
"f 	c #4A5971",
"g 	c #6E89B0",
"h 	c #718DB4",
"i 	c #4B6C9C",
"j 	c #204886",
"k 	c #244C87",
"l 	c #28508A",
"m 	c #4A6794",
"n 	c #2F3948",
"o 	c #335890",
"p 	c #2E548D",
"q 	c #9AAAC3",
"r 	c #2C5188",
"s 	c #234B88",
"t 	c #15407F",
"u 	c #37598D",
"v 	c #4A586F",
"w 	c #31578F",
"x 	c #0C387B",
"y 	c #133E7E",
"z 	c #3F6297",
"A 	c #E0E3E8",
"B 	c #28446F",
"C 	c #214882",
"D 	c #244C88",
"E 	c #254D88",
"F 	c #BBC7D7",
"G 	c #31568E",
"H 	c #2E5288",
"I 	c #4D5C74",
"J 	c #7189B1",
"K 	c #204985",
"L 	c #FFFFFF",
"M 	c #E1E7EF",
"N 	c #395C93",
"O 	c #204885",
"P 	c #1F4885",
"Q 	c #7991B5",
"R 	c #DDE1E7",
"S 	c #284470",
"T 	c #1B3967",
"U 	c #214781",
"V 	c #184382",
"W 	c #DEE4ED",
"X 	c #B1BBCB",
"Y 	c #203C69",
"Z 	c #234985",
"` 	c #4B5B73",
" .	c #6C87B0",
"..	c #30568E",
"+.	c #184281",
"@.	c #0E3A7C",
"#.	c #6A85AD",
"$.	c #E2E6EC",
"%.	c #204780",
"&.	c #A9B9D0",
"*.	c #CFD5DE",
"=.	c #26436F",
"-.	c #0D2E61",
";.	c #9BADC6",
">.	c #6A7D9C",
",.	c #183665",
"'.	c #1C3A68",
").	c #224881",
"!.	c #2C5087",
"~.	c #495971",
"{.	c #6984AD",
"].	c #2F558E",
"^.	c #113D7E",
"/.	c #97AAC6",
"(.	c #E5EAF1",
"_.	c #456799",
":.	c #113D7D",
"<.	c #CED7E4",
"[.	c #F6F7F9",
"}.	c #5A7093",
"|.	c #214884",
"1.	c #DEE5ED",
"2.	c #B7C0CF",
"3.	c #213F6B",
"4.	c #193766",
"5.	c #465E83",
"6.	c #F2F4F6",
"7.	c #EBEDF2",
"8.	c #173665",
"9.	c #1C3A69",
"0.	c #2C5086",
"a.	c #46566F",
"b.	c #6681AA",
"c.	c #2F548E",
"d.	c #1A4482",
"e.	c #849ABB",
"f.	c #3A5E93",
"g.	c #CAD4E2",
"h.	c #7F90A9",
"i.	c #173664",
"j.	c #234A86",
"k.	c #0C397B",
"l.	c #97A5BA",
"m.	c #A8B3C5",
"n.	c #7E8FA9",
"o.	c #123161",
"p.	c #1B3966",
"q.	c #2B5087",
"r.	c #44546E",
"s.	c #627EA9",
"t.	c #E4E9F1",
"u.	c #DFE4EB",
"v.	c #19417E",
"w.	c #98AAC7",
"x.	c #8B9BB2",
"y.	c #1C3B6A",
"z.	c #224883",
"A.	c #284E89",
"B.	c #173564",
"C.	c #40597F",
"D.	c #0E2D5E",
"E.	c #2B4F86",
"F.	c #41536C",
"G.	c #5D7BA7",
"H.	c #2E538D",
"I.	c #1D4684",
"J.	c #E6EBF2",
"K.	c #FAFAFB",
"L.	c #62799C",
"M.	c #5775A2",
"N.	c #98A6BB",
"O.	c #1C3B6B",
"P.	c #5171A0",
"Q.	c #5E7394",
"R.	c #062659",
"S.	c #D3D9E2",
"T.	c #4B6387",
"U.	c #224985",
"V.	c #2A4E86",
"W.	c #3E4F6B",
"X.	c #5A78A5",
"Y.	c #2D538C",
"Z.	c #103B7C",
"`.	c #E0E6EE",
" +	c #9BA8BB",
".+	c #13356A",
"++	c #9FABBF",
"@+	c #1C3A67",
"#+	c #5976A4",
"$+	c #F7F7F8",
"%+	c #2F4A74",
"&+	c #314C75",
"*+	c #BDC6D3",
"=+	c #23406C",
"-+	c #294D84",
";+	c #3C4E69",
">+	c #5675A3",
",+	c #2C538C",
"'+	c #164180",
")+	c #ABBAD1",
"!+	c #EFF1F4",
"~+	c #F9FAFB",
"{+	c #C8D0DB",
"]+	c #455E83",
"^+	c #233F6C",
"/+	c #092A5B",
"(+	c #0B2B5C",
"_+	c #153667",
":+	c #1F4782",
"<+	c #9BA8BC",
"[+	c #052558",
"}+	c #92A0B6",
"|+	c #4E6589",
"1+	c #223E69",
"2+	c #374861",
"3+	c #5372A2",
"4+	c #2B518C",
"5+	c #5372A1",
"6+	c #F3F5F7",
"7+	c #FDFDFE",
"8+	c #FEFEFF",
"9+	c #F0F2F5",
"0+	c #E9ECF0",
"a+	c #E4E8ED",
"b+	c #B9C3D0",
"c+	c #788AA5",
"d+	c #304E7A",
"e+	c #0E3A7B",
"f+	c #1E4580",
"g+	c #163564",
"h+	c #4D6588",
"i+	c #6C7F9E",
"j+	c #163464",
"k+	c #223D67",
"l+	c #324156",
"m+	c #506E9F",
"n+	c #2B528C",
"o+	c #436598",
"p+	c #F5F6F9",
"q+	c #A3B4CD",
"r+	c #466592",
"s+	c #25436F",
"t+	c #1A3866",
"u+	c #203D67",
"v+	c #313F55",
"w+	c #4C6D9D",
"x+	c #2B518B",
"y+	c #154080",
"z+	c #A1B3CB",
"A+	c #DCE0E7",
"B+	c #8B9AB2",
"C+	c #324D76",
"D+	c #153463",
"E+	c #1C3967",
"F+	c #203C67",
"G+	c #2E3D53",
"H+	c #48699B",
"I+	c #2A508A",
"J+	c #637898",
"K+	c #0E2E5F",
"L+	c #203B66",
"M+	c #2C3A4F",
"N+	c #456899",
"O+	c #29508A",
"P+	c #5574A2",
"Q+	c #F4F6F9",
"R+	c #8091AB",
"S+	c #143362",
"T+	c #1F3B65",
"U+	c #29374F",
"V+	c #426397",
"W+	c #7E96B9",
"X+	c #FEFEFE",
"Y+	c #596F91",
"Z+	c #183765",
"`+	c #1E3B66",
" @	c #27364D",
".@	c #3E6197",
"+@	c #A0B1CB",
"@@	c #ABB6C7",
"#@	c #1F3D6A",
"$@	c #1E3A65",
"%@	c #24334B",
"&@	c #3D6094",
"*@	c #2C528C",
"=@	c #C2CDDD",
"-@	c #C7CED9",
";@	c #26426E",
">@	c #1E3965",
",@	c #22324A",
"'@	c #395D92",
")@	c #DDE3EC",
"!@	c #93A1B7",
"~@	c #1D3A64",
"{@	c #213048",
"]@	c #375B90",
"^@	c #264E89",
"/@	c #ECEFF4",
"(@	c #1E3C69",
"_@	c #1A3867",
":@	c #1D3964",
"<@	c #1E2E47",
"[@	c #34578E",
"}@	c #264D89",
"|@	c #F2F4F8",
"1@	c #0D2D5E",
"2@	c #1C3864",
"3@	c #1E2C44",
"4@	c #32568B",
"5@	c #264D87",
"6@	c #E8ECF2",
"7@	c #F2F3F6",
"8@	c #7B8CA7",
"9@	c #1B2B43",
"0@	c #33568C",
"a@	c #264D88",
"b@	c #2F558D",
"c@	c #D0D8E5",
"d@	c #A5B1C3",
"e@	c #223F6C",
"f@	c #1A2942",
"g@	c #32558A",
"h@	c #A7B7CF",
"i@	c #F7F8FA",
"j@	c #D9DEE5",
"k@	c #3F587F",
"l@	c #1C3863",
"m@	c #1A2941",
"n@	c #315589",
"o@	c #738DB2",
"p@	c #ADB8C8",
"q@	c #5F7495",
"r@	c #1A2940",
"s@	c #325387",
"t@	c #E2E7EF",
"u@	c #95A3B8",
"v@	c #2B4771",
"w@	c #1F3C69",
"x@	c #1C3862",
"y@	c #19283F",
"z@	c #254D87",
"A@	c #E4E9F0",
"B@	c #EFF1F5",
"C@	c #E0E4EA",
"D@	c #7D8EA8",
"E@	c #143262",
"F@	c #19273D",
"G@	c #254D86",
"H@	c #1D4683",
"I@	c #788DAB",
"J@	c #F5F6F8",
"K@	c #F4F6F8",
"L@	c #E6E9EE",
"M@	c #C7CFDA",
"N@	c #9BA9BD",
"O@	c #7587A3",
"P@	c #3D567E",
"Q@	c #133261",
"R@	c #1D3862",
"S@	c #162438",
"T@	c #294D85",
"U@	c #244370",
"V@	c #294570",
"W@	c #294571",
"X@	c #2A4571",
"Y@	c #1F375F",
"Z@	c #0E1524",
"`@	c #2B4C7E",
" #	c #244C89",
".#	c #1D3C6B",
"+#	c #1F3759",
"@#	c #192E4C",
"##	c #274D86",
"$#	c #1D3D6E",
"%#	c #1F3C67",
"&#	c #15233B",
"*#	c #22416F",
"=#	c #244B85",
"-#	c #1C3C6B",
";#	c #1C3966",
">#	c #20395F",
",#	c #000000",
"'#	c #234476",
")#	c #234A85",
"!#	c #1D385F",
"~#	c #070B13",
"{#	c #11223C",
"]#	c #224477",
"^#	c #224882",
"/#	c #234C88",
"(#	c #1B3968",
"_#	c #1B3763",
":#	c #1B355C",
"<#	c #0E1B2D",
"[#	c #070E18",
"}#	c #214579",
"|#	c #224780",
"1#	c #234C89",
"2#	c #1D3C6C",
"3#	c #1B3969",
"4#	c #1B3A69",
"5#	c #1A3661",
"6#	c #1A345C",
"7#	c #183157",
"8#	c #050B12",
"9#	c #11223E",
"0#	c #1A3660",
"a#	c #1A3864",
"b#	c #1B3B69",
"c#	c #1D3D6D",
"d#	c #162F53",
"e#	c #152E51",
"f#	c #162E51",
"g#	c #152C50",
"h#	c #152B4C",
"i#	c #132949",
"j#	c #0C1A2E",
"k#	c #091424",
"l#	c #0F2039",
"m#	c #0F223C",
"n#	c #10213C",
"o#	c #0C192C",
"p#	c #0D192D",
"q#	c #0C182C",
"r#	c #070F1C",
"                                                                                                ",
"                        . + + + + + + + + + + + + + + + + + + + . . . .                         ",
"                @ # $ % & & & & & & & & & & & & * * * * * * * * * = = = - ; > +                 ",
"            , ' ) ! ~ { { { { { { { { { { { { { { { { { { { { { { { { { { ] ! ^ / (             ",
"          _ ^ : < [ [ [ [ [ [ [ [ [ [ [ [ [ [ [ [ [ [ [ [ [ [ [ [ [ [ [ [ [ [ < } | 1 2         ",
"        3 4 5 [ [ [ [ [ [ [ [ [ [ [ [ [ [ [ [ [ [ [ [ [ [ [ [ [ [ [ [ [ [ [ [ [ [ 5 6 7         ",
"      8 9 0 [ [ [ [ [ [ [ [ [ [ [ [ [ [ [ [ [ [ [ [ [ [ [ [ [ [ [ [ [ [ [ [ [ [ [ [ 0 a b       ",
"      c d [ [ [ [ [ [ [ [ [ [ [ [ [ [ [ [ [ [ [ [ [ [ [ [ [ [ [ [ [ [ [ [ [ [ [ [ [ [ d e f     ",
"    g d [ [ [ [ [ [ [ [ [ [ [ [ [ [ [ [ [ [ [ [ [ [ [ [ [ [ [ [ [ [ [ [ [ [ [ [ [ [ [ [ d h     ",
"    i j [ [ [ [ [ [ [ [ [ [ [ [ [ [ [ [ [ [ [ [ [ [ [ [ [ [ k l k [ [ [ [ [ [ [ [ [ [ [ j m n   ",
"    o 0 [ [ [ [ [ [ [ [ [ [ [ [ [ [ [ k [ [ [ [ [ [ [ [ [ [ p q r s [ [ 5 t 5 [ [ [ [ [ 5 u v   ",
"    w [ [ [ [ [ [ [ [ [ [ [ [ [ [ [ d x y [ [ [ [ [ [ [ [ [ z A B C s D E F G [ [ [ [ [ [ H I   ",
"  J 9 [ [ [ [ [ [ [ [ [ [ [ [ [ [ K @ L M N O [ [ [ [ [ [ P Q R S T U V W X Y Z [ [ [ [ [ r `   ",
"   ...[ [ [ [ [ [ [ [ k +.@.P [ { #.L L L $.%.[ [ [ [ [ [ ~ &.*.=.T -.;.L >.,.'.).[ [ [ [ !.~.  ",
"  {.].[ [ [ [ [ [ [ k ^./.(._.< :.<.L L L [.}.|.[ [ [ [ [ y 1.2.3.4.5.6.7.8.T T 9.Z [ [ [ 0.a.  ",
"  b.c.[ [ [ [ [ [ [ d.e.L L L f.@.g.L L L L h.i.j.[ [ [ k k.L l.T '.m.L n.o.T T T p.Z [ [ q.r.  ",
"  s.p [ [ [ [ [ [ [ y t.L L L u.v.w.L L L L x.,.y.z.[ [ 5 A.L n.B.C.L 7.D.T T T T T 9.).[ E.F.  ",
"  G.H.[ [ [ [ [ [ [ I.J.L L L K.L.M.L L L L N.T T O.[ [ P P.L Q.R.S.L T.4.T T T T T T 9.U.V.W.  ",
"  X.Y.[ [ [ [ [ [ [ Z.`.L L L L  +.+L L L L ++@+T p.y.[ P #+$+%+&+L *+=+T T T T T T T T T -+;+  ",
"  >+,+[ [ [ [ [ [ [ '+)+L L L L !+5.~+L L L {+]+^+/+(+_+:+w <+[+}+L |+,.T T T T T T T T T 1+2+  ",
"  3+4+[ [ [ [ [ [ [ P 5+L L L L L 6+7+L L L 8+9+0+a+b+c+d+e+f+g+h+i+j+T T T T T T T T T T k+l+  ",
"  m+n+[ [ [ [ [ [ [ K o+L L L L L L L L L L L L L L L L L p+q+r+s+j+t+T T T T T T T T T T u+v+  ",
"  w+x+[ [ [ [ [ [ [ y+z+L L L L L L L L L L L L L L L L L L L L A+B+C+D+E+T T T T T T T T F+G+  ",
"  H+I+[ [ [ [ [ [ [ K (.L L L L L L L L L L L L L L L L L L L L L L [.J+K+'.T T T T T T T L+M+  ",
"  N+O+[ [ [ [ [ [ 5 P+Q+L L L L L L L L L L L L L L L L L L L L L L 8+L R+S+T T T T T T T T+U+  ",
"  V+l [ [ [ [ [ [ P W+L L L L L L L L L L L L L L L L L L L L L L L L L X+Y+Z+T T T T T T `+ @  ",
"  .@l [ [ [ [ [ [ k +@L L L L L L L L L L L L L L L L L L L L L L L L L L @@#@T T T T T T $@%@  ",
"  &@A.[ [ [ [ [ [ *@=@L L L L L L L L L L L L L L L L L L L L L L L L L L -@;@T T T T T T >@,@  ",
"  '@A.[ [ [ [ [ [ ..)@L L L L L L L L L L L L L L L L L L L L L L L L L L !@T T T T T T T ~@{@  ",
"  ]@^@[ [ [ [ [ [ ../@L L L L L L L L L L L L L L L L L L L L L L L L L 0+(@_@T T T T T T :@<@  ",
"  [@}@[ [ [ [ [ [ G |@L L L L L L L L L L L L L L L L L L L L L L L 8+S.1@T T T T T T T T 2@3@  ",
"  4@5@[ [ [ [ [ [ ..6@L L L L L L L L L L L L L L L L L L L L L L 7@8@o.T T T T T T T T T 2@9@  ",
"  0@a@[ [ [ [ [ [ b@c@L L L L L L L L L L L L L L L L L L L L L d@e@t+T T T T T T T T T T 2@f@  ",
"  g@5@[ [ [ [ [ [ E h@L L L L L L L L L L L L L L L L L L i@j@k@o.'.T T T T T T T T T T T l@m@  ",
"  n@a@[ [ [ [ [ [ O o@7+L L L L L L L L L L L L L L L L p@q@1@B.T T T T T T T T T T T T T l@r@  ",
"  s@5@[ [ [ [ [ [ [ ] t@L L L L L L L L L L L L L L u@v@w@4.T T T T T T T T T T T T T T T x@y@  ",
"    z@[ [ [ [ [ [ [ [ d.A@X+L L L L L L L X+B@C@D@E@S+@+T T T T T T T T T T T T T T T T T x@F@  ",
"    G@[ [ [ [ [ [ [ [ [ H@I@b+$.J@K@L@M@N@O@P@/+Q@T T T T T T T T T T T T T T T T T T T T R@S@  ",
"    T@[ [ [ [ [ [ [ [ [ [ O U@V@W@X@V@;@@+8.t+T T T T T T T T T T T T T T T T T T T T T T Y@Z@  ",
"    `@s [ [ [ [ [ [ [ [ [ [  #.#T T T T T T T T T T T T T T T T T T T T T T T T T T T T T +#    ",
"    @###s [ [ [ [ [ [ [ [ [ [ [ $#T T T T T T T T T T T T T T T T T T T T T T T T T T T %#&#    ",
"      *#=#[ [ [ [ [ [ [ [ [ [ [ [ -#T T T T T T T T T T T T T T T T T T T T T T T T T ;#>#,#    ",
"        '#)#[ [ [ [ [ [ [ [ [ [ [  #-#T T T T T T T T T T T T T T T T T T T T T T T p.!#~#      ",
"        {#]#^#/#s [ [ [ [ [ [ [ [ [ [ $#T T T T T T T T T T T T T T T T T T T T (#_#:#<#        ",
"          [#.#}#|#1#1#1#1#1#1#1#1#1#1#1#2#3#3#3#3#3#3#3#3#3#3#3#3#3#3#3#3#4#4#5#6#7#8#          ",
"              9#0#a#b#-#-#-#-#-#-#-#-#-#c#d#e#f#f#f#f#f#f#f#f#f#f#f#f#f#f#g#h#i#j#,#            ",
"                  k#l#m#m#m#m#m#m#m#m#m#m#n#o#p#p#p#p#p#p#p#p#p#p#p#p#p#p#q#r#,#                ",
"                                                                                                "};
